<?xml version="1.0" encoding="UTF-8"?>
<svg id="_レイヤー_1" data-name="レイヤー 1" xmlns="http://www.w3.org/2000/svg" viewBox="0 0 500 500">
  <defs>
    <style>
      .cls-1 {
        fill: #fff;
        stroke-width: 0px;
      }
    </style>
  </defs>
  <g>
    <path class="cls-1" d="m176.86,349.21c-.42-.53-.94-1.2-1.71-1.84-.66-.59-1.75-1.44-2.43-1.84l-.16-.1c-.81-.52-2.15-1.39-3.39-.58-1.38.9-2.25,1.81-2.66,2.77-.42.26-1.38.64-1.71.65-.52,0-1.07-.03-1.62-.05-1.18-.05-2.39-.1-3.44.03-.53.1-1,.06-1.6,0-.52-.05-1.1-.09-1.81-.06-.57.03-1.04,0-1.55-.04-.66-.04-1.34-.09-2.14,0-.88.1-1.71.04-2.44,0-.34-.02-.65-.04-.94-.04-.48-.04-1.03-.02-1.61,0-.61.03-1.3.05-1.78-.01-1.16-.3-2.43-.21-3.91-.06-1.02.07-2.53.05-3.33-.03-.22-.03-.53-.12-1.01-.61-.71-.72-1.96-1.23-2.64-1.46-.21-.07-.46-.18-.73-.28-1.52-.62-4.06-1.65-5.22.34-.59.96-.38,2.39,0,4.47.07.38.16.9.17,1.04,0,.32-.03.62-.05.92-.06.82-.14,1.74.12,2.97.12.62.08,1.12.02,1.8-.04.43-.07.9-.08,1.45,0,.47.02.92.05,1.37.04.69.08,1.29-.04,1.73-.01.06-.03.11-.03.17-.19,1.4-.3,2.51-.03,3.92.14.94.08,1.63.01,2.3-.03.36-.06.68-.06,1.01,0,.08,0,.16.02.23.13.85.08,1.48.02,2.14-.03.38-.07.76-.07,1.15l-.08,7.81c0,.36,0,.75.02,1.15.02.98.05,2-.13,2.94-.12.84-.17,1.94-.22,2.92-.03.56-.05,1.07-.08,1.44-.03.37-.1.8-.16,1.26-.14.93-.29,1.98-.3,3.04,0,.69-.19,1.46-.35,2.15-.11.47-.22.92-.26,1.3-.18,1.46-.24,2.01-.69,2.89-.53.9-.72,1.6-.93,2.33-.1.36-.21.76-.39,1.24-.02.05-.03.1-.05.15-.23.94-.8,2.01-1.29,2.39-.04.03-.08.07-.12.1-.71.69-1.01,1.19-1.25,1.59-.08.14-.16.27-.25.39-.11.14-.21.28-.3.41-.33.45-.51.7-.9.98-.57.33-1.69,1.38-2.12,2.18-.39.64-.44.71-1.09.98-.68.28-1.46.93-2.41,1.76l-.45.39c-.86.77-1.18,1.06-1.96,1.3-1.68.58-2.4,1.53-2.89,2.4-.79,1.44-.64,2.74.46,3.86.94.96,2.12,1.32,3.23.98.63-.16,1.07-.39,1.45-.59.34-.18.64-.34,1.13-.47.04-.01.08-.02.12-.04.59-.21,1.12-.55,1.62-.88.48-.31.94-.61,1.38-.76.94-.3,2.31-1.46,3.05-2.12.05-.05.11-.11.15-.16.63-.77.8-.98,1.39-1.24.61-.25,1.06-.79,1.5-1.3.12-.14.3-.35.4-.45,1.2-.42,1.69-1.33,2.21-2.29l.1-.18c.4-.57.98-1.06,1.57-1.57.53-.44.9-1.08,1.27-1.7.17-.28.35-.6.48-.76.81-.82,1.3-1.9,1.74-2.97.17-.46.39-.92.61-1.38.2-.41.37-.79.5-1.12.02-.06.04-.12.06-.18.09-.39.21-.68.35-1.02.19-.47.41-1,.52-1.67.05-.21.11-.45.18-.7.18-.66.4-1.47.54-2.45.09-.65.26-1.68.61-3.02.13-.66.7-1.79,1.29-2.52.32-.44.92-.95,1.19-1.07.98.06,1.85.05,2.77.04.49,0,.99,0,1.53,0,.56.02,1.03-.03,1.44-.07.69-.06,1.23-.11,2.09.07,1.06.31,1.95.21,2.74.12.5-.06.93-.1,1.33-.06.87.14,1.9.11,2.9.08.44-.01.87-.02,1.26-.02.29,0,.63.02.99.04.89.05,2,.11,3.12-.02,1.25-.21,2.89-.11,3.55.02.33.14,1.24.84,1.48,1.13.23.28.65.97.85,2.5.1.48.05.87,0,1.32-.04.38-.09.81-.05,1.33.07.57.05,1.57-.02,2.31-.12.79-.06,1.43-.02,1.9.02.2.04.48.04.5-.22.71-.14,1.33-.07,1.83.05.38.09.65.03.89-.22.78-.16,1.37-.11,1.88.03.33.06.61.03.99,0,.03,0,.07,0,.1,0,.16-.01.36-.02.57-.03.59-.06,1.33,0,2.08.12,1.44-.05,1.71-.47,2.36-.13.01-.32.02-.48.03-.43.02-1.02.04-1.68.15-.13.02-.25,0-.57-.07-.4-.08-.96-.2-1.79-.21-.84,0-2.48-.25-3.29-.48-1.43-.44-2.71-.36-3.61.22-.68.44-1.12,1.15-1.24,2-.36,2.49,2.46,3.33,3.73,3.7.63.16,1.21.24,1.72.31.69.1,1.24.17,1.73.41,1.14.5,1.29.58,1.53,1.06.09.21.16.46.24.73.21.75.5,1.77,1.47,2.46.72.51,1.57.67,2.41.67s1.74-.17,2.47-.32l.39-.08c1.34-.26,2.74-1.35,3.44-1.97.57-.49,1.97-1.77,2.57-3.06.02-.03.03-.07.04-.1.05-.13.11-.27.17-.42.38-.92.94-2.3.71-4.06-.03-.66-.02-1.25-.02-1.89,0-.7.01-1.46-.02-2.41-.02-.55,0-1.08.04-1.65.06-.93.12-1.88-.08-2.9l-.04-4.36c0-.49,0-1.09-.02-1.75-.02-.81-.03-1.73-.02-2.7,0-.6,0-1.27-.02-1.99-.01-.8-.03-1.66-.02-2.55l.04-4.45c0-.55.03-1.02.04-1.46.05-1.07.08-1.99-.09-3.22-.09-1-.05-1.77,0-2.66.03-.51.05-1.04.06-1.64,0-.46.02-.93.03-1.41.03-1.05.06-2.13.01-3.2,0-.06,0-.12-.02-.17-.18-1.03-.11-1.73-.04-2.61.04-.49.09-1.04.1-1.67,0-.5.03-.94.05-1.34.05-.81.09-1.51-.04-2.19-.05-.26-.01-.62.02-1.07.05-.6.12-1.36.03-2.24-.02-.29.01-.77.05-1.27.07-.93.15-2.1,0-3.18,0-.35.56-1.32.97-1.67.13-.11.35-.23.58-.36.67-.36,1.92-1.04,1.94-2.61,0-.82-.71-2.44-1.25-3.05-.11-.13-.21-.26-.32-.4Zm-11.21,27.36c.05.52.1,1.06.06,1.47-.24.87-.17,1.83-.11,2.77.04.51.07,1.04.05,1.49-.15.56-.46,1.14-.78,1.46-.63.62-1.01.73-1.31.75-.83.06-2.4.14-3.74-.02-.83-.21-1.71-.12-2.49-.03-.39.04-.98.11-1.22.04-1.31-.42-2.71-.27-4.19-.12l-.29.03c-.67.09-1.58.04-2.45,0-.43-.02-.84-.04-1.22-.05l-.34-.04c-1.04-.12-2.6-.29-3.86.02-1.19.12-2.84.04-3.7-.06-.77-.08-1.56-.17-1.99-.25-.07-.33-.12-.85-.09-1.35.18-.85.14-1.37.11-1.75-.01-.19-.02-.31,0-.45.03-.26.07-.5.11-.72.16-.97.31-1.89,0-3.18-.01-.11.04-.44.07-.68.1-.73.25-1.71-.02-2.79.04-.09.17-.29.5-.49.17-.1.32-.19.47-.28.52-.32.77-.46,1.07-.51.43,0,.83.03,1.22.05.87.05,1.77.09,2.83-.01.37-.03.76,0,1.22.05.77.06,1.65.14,2.79-.03.57-.1,1.04-.05,1.63,0,.62.06,1.32.13,2.18.04,1.04-.08,2.1-.13,3.64.04.76.07,1.51.06,2.38.05.47,0,.99,0,1.59,0,.31,0,.73,0,1.19,0,.93-.01,2.2-.02,2.7.04.02,0,.04,0,.06,0,.24.06.89.38,1.37.8.34.36.6.78.67.99-.29.85-.2,1.79-.11,2.71Zm.24-16.11c.12.64.1,2.69,0,3.26-.24.6-.73,1.53-.84,1.68-.35.42-.39.43-1.14.54l-.18.03c-.18.02-.6-.02-.98-.06-.92-.09-2.06-.2-3.16.03-.69.08-1.43.04-2.21,0-.46-.02-.92-.05-1.4-.05l-3.86-.04c-.42,0-.88-.04-1.32-.07-.51-.04-1.03-.07-1.53-.07s-1.01.04-1.47.15c-.69.19-1.11.13-1.79.05-.44-.06-.99-.13-1.69-.13-.25,0-.64,0-1.08.02-.78.02-2.24.06-2.7-.03-.29-.06-.48-.17-.85-.39-.28-.17-.62-.38-1.05-.56-.1-.04-.28-.11-.28-.67l.2-3.69c.09-1.01.28-3.21.39-4.56,0-.45.28-.67.43-.75.47-.21.8-.42,1.1-.61.32-.2.55-.34.97-.49.27-.09,1.16.02,1.69.08.87.1,1.7.2,2.46.01.23-.06,1,0,1.46.05.74.06,1.51.13,2.13.03.61-.09,1.52-.04,2.34,0,.44.02.86.04,1.23.05.37,0,.73-.03,1.12-.06.72-.07,1.4-.13,2.23.05,1.06.28,2.33.2,3.55.12l.57-.04c.3,0,.72-.02,1.17-.06.6-.04,1.85-.13,2.21,0,.05.02.09.03.14.04.12.03.25.06.37.09.5.11.7.15.97.51.15.22.31.43.46.63.31.39.4.54.38.68-.17,2.28-.17,3.51-.02,4.23Z"/>
    <path class="cls-1" d="m245.81,383.03c.8,0,1.58-.2,2.35-.41.47-.13,1.26-.33,1.55-.28.54.16,1.09.11,1.61.07.37-.03.76-.06,1.12,0,.76.1,1.74.12,2.83.04.2,0,.38.04.59.08.55.11,1.3.25,2.35-.14.13-.03.53.01.79.04.44.05.93.1,1.46.06.04,0,.07,0,.1-.01.3-.05.53-.02.87.02.43.05.97.11,1.77,0,.02,0,.49-.09,2.23.05.05,0,.09,0,.14,0l2.56-.06c.21,0,.41.02.63.04.58.05,1.3.1,2.18-.01.25-.02.51.01.82.05.55.07,1.23.14,2.03-.06.04-.01.09-.02.13-.04.4-.15,1.56-.03,2.06.02.04,0,.08,0,.12,0,.19,0,.57,0,1.01-.02.53-.02,1.16-.04,1.63-.04.64.05,1.18-.01,1.62-.06.33-.04.65-.07.8-.03.1.02.21.04.31.04.38,0,1.58.17,2.52.47.05.02.1.03.16.04.61.12,1.12.31,1.61.49.47.18.96.36,1.44.45,1.82.42,3.06.38,3.88-.12,1.14-.65,1.71-1.34,2.38-2.15l.22-.26c.72-.88.79-2.36-.52-3.51-.26-.22-.55-.35-.8-.46-.41-.18-.7-.32-.99-.83-.33-.5-.84-.85-1.25-1.13-.09-.06-.19-.12-.26-.18-.37-.63-.93-1-1.31-1.26-.1-.07-.21-.13-.24-.15-.04-.06-.09-.14-.15-.24-.44-.73-1.61-2.68-3.66-2.12-.88.29-1.27.83-1.5,1.16-.12.16-.16.22-.26.3-.03.02-.06.05-.09.07-.51.44-.78.78-.98,1.02-.13.16-.18.21-.25.28-.38.31-.62.59-.85.86-.14.16-.29.34-.52.56-.38.37-.62.66-.81.9-.08.1-.16.2-.27.32-.2-.02-.52-.09-.71-.14-.37-.09-.72-.17-1.08-.17-.36,0-.72,0-1.07,0-.57.01-1.1.02-1.49-.02-.34-.07-.68-.11-.99-.15-.81-.1-1.05-.16-1.2-.34-.35-.46-.8-.75-1.17-.98-.03-.02-.07-.04-.11-.07.22-.96.15-1.84.08-2.62-.03-.38-.06-.77-.06-1.18,0-.36-.03-.75-.06-1.16-.06-.7-.12-1.43.05-2.11.02-.07.03-.15.04-.23.02-.24.09-.34.77-.84l.17-.13c.49-.34,1.71-.81,2.12-.81h0c.19,0,.39.03.6.05.6.07,1.43.16,2.33-.04.15-.02.36,0,.61.02.48.03,1.13.07,1.89.02.31-.03.63,0,1,.01.44.03.93.06,1.57,0,.26-.04.82-.01,1.31,0,.33.01.67.03,1.01.03.26,0,.49.03.71.06.55.06,1.24.15,2.11-.06.53-.11,1.28-.12,2.17-.04.04,0,.08,0,.12,0,.44-.03,1.28-.14,1.87-.72.37-.36.58-.84.58-1.35.01-1.11-.5-2.2-1.66-3.55l-.25-.29c-.47-.57-.81-.96-1.93-1.57-.05-.03-.2-.18-.31-.29-.26-.26-.61-.62-1.18-1.04-.14-.1-.31-.33-.48-.55-.45-.59-1.2-1.57-2.58-1.59h-.03c-1.37,0-2.09,1.01-2.62,1.75-.2.28-.41.58-.65.83-.12.08-.23.14-.33.19-.44.25-1.17.65-1.46,1.71-.08.12-.3.31-.43.39-1,.19-2.45.17-3.9-.06-.17-.04-.38-.08-.61-.12-.35-.06-1.17-.21-1.35-.36-.05-.06-.1-.11-.16-.16-.49-.42-.75-.7-.87-.87.18-.76.07-1.5-.02-2.12-.06-.4-.12-.85-.05-1.09.16-.53.21-1.08.27-1.62.04-.37.1-.97.2-1.18.01,0,.02-.02.03-.02.85-.62,1.88-1.47,2.31-2.63.23-.68.36-1.91-1.38-2.6-.11-.04-.24-.09-.36-.16-.04-.02-.08-.05-.12-.07-.49-.25-1.17-.39-1.96-.56-.36-.08-.74-.16-1.15-.26-1.28-.27-1.85-.37-3.3-.48-.08,0-.25-.08-.41-.14-.44-.19-1.76-.77-2.77.54-1.13,1.56-.65,3.36-.33,4.54.09.32.18.66.19.79.02.69-.03,1.3-.08,1.89-.08.92-.16,1.79.07,2.64.15.73.23,1.13.02,1.68-.19.54-.58,1.19-.93,1.54-.34.34-1.16.66-1.52.66h0c-.34,0-.79,0-1.27,0-1.01,0-2.26.02-2.91-.04-.84-.16-1.56-.17-2.19-.19-.71-.01-1.23-.02-1.67-.23-1.29-.61-4.48-.99-5.97.48-.26.25-.51.45-.73.62-.3.23-.82.64-1.1,1.2-.07-.09-.14-.19-.22-.31-.45-.65-.84-.93-1.23-1.18-.17-.11-.24-.15-.34-.27l-.1-.12c-1.88-2.38-3.49-1.74-4.26-1.16-.54.4-.81.86-1,1.2-.17.3-.21.36-.41.47-.44.26-.66.63-.81.88-.11.19-.26.43-.69.77-.02-.16-.04-.32-.06-.45v-.04c-.04-.38-.01-.83.01-1.28.03-.48.05-.94.01-1.36l.05-5.38c0-.07,0-.13-.01-.2-.1-.73.34-1.8.71-2.09.17-.12.41-.25.65-.37.67-.34,1.5-.77,1.78-1.7.11-.38.17-.99-.21-1.65-.57-1.1-.94-1.43-1.48-1.85-.13-.1-.29-.22-.55-.46-1.29-1.05-2.26-1.02-3.54-.84-.43.04-.84.12-1.27.2-.44.08-.85.16-1.31.2-1.02.07-2.28.17-2.91,1.38-.75,1.37-.42,2.72-.2,3.62.04.15.07.3.11.47.06.27.03.99.02,1.47-.02.55-.03,1.03.02,1.46.05.37.02.67-.02,1.08-.05.5-.11,1.11-.02,1.86.02.17.04.35.06.53.07.6.16,1.35,0,1.77-.26.67-.19,1.36-.12,1.97.04.36.07.73.02,1,0,0-.16.93-.98.9-.69-.17-1.38-.1-1.99-.05-.42.04-.83.07-1.06.03-.6-.13-1.11-.16-1.55-.18-.56-.03-.94-.05-1.39-.25-1.13-.59-2.25-.33-3.25-.1-.3.07-.62.14-1.03.22-1.75.39-2.68,1.84-2.94,2.97-.15.64-.39,2.8,2.85,3.64.05.01.1.02.14.03l.7.11c1.02.17,2.07.35,3.04.26.67-.08,1.3-.24,1.85-.38.48-.12,1-.24,1.24-.25l1.99.02c.03.09.06.19.08.28l.08.24c.05.23.12.88.1,2.68,0,.67-.31,1.58-.55,2.32-.19.56-.35,1.04-.38,1.37-.15.79-.46,1.69-.61,2.07-.02.06-.04.12-.06.18-.28,1.08-.45,1.5-.51,1.64-.5.56-.63,1.22-.73,1.71-.06.28-.1.52-.23.76l-.21.44c-.3.62-.49,1.03-.73,1.95-.05.17-.13.28-.29.5-.27.37-.67.92-.71,1.78-.02.1-.06.17-.22.44-.19.3-.44.7-.66,1.35-.09.3-.2.48-.37.77-.17.29-.38.65-.61,1.18-.15.35-.27.56-.37.75-.18.33-.37.68-.6,1.4-.09.21-.38.78-1.26,2.12-.01.02-1.19,2.09-1.43,3.11-.03.1-.09.22-.15.35-.34.75-.84,1.88-.45,3.02.18.76.42,1.68,1.15,2.41.51.46,1.17.67,1.85.63,1.32-.1,2.44-1.15,3.13-1.99.18-.21.31-.4.45-.6.19-.28.36-.52.82-.97.67-.66,1.06-1.29,1.29-2.05.42-1.21.7-1.7,1.1-2.23.69-.96,1.01-1.6,1.49-3.01.06-.21.43-.95.66-1.38.25-.5.49-.96.63-1.32.15-.25.28-.49.41-.72,0,.25-.01.48-.02.71-.03.72-.05,1.41,0,2.24.02.21,0,.63-.04.99-.05.7-.1,1.37.04,1.88.26,1.09.13,2.34,0,3.45-.03.28-.06.54-.08.79-.43,1.9-.25,3.53-.14,4.18l-.26,9.58c-.14.88-.1,1.78-.07,2.58.03.72.06,1.39-.04,1.89,0,.04-.01.07-.02.11-.11.89-.11,1.51.16,2.46v.12c.05.76.16,3.08,2.2,3.74.43.14.81.19,1.16.19.79,0,1.4-.3,2.04-.61.18-.09.37-.18.63-.3.46-.22.78-.62,1.13-1.04.12-.14.32-.39.36-.43.45-.33.84-1.02,1.07-1.76.25.19.56.38.94.54,1.57.62,4.26.52,5.02.48.93-.04,1.62-.21,2.23-.36.61-.15,1.12-.29,1.91-.27.08,0,.16,0,.23-.02.47-.07.77-.05,1.32-.01.37.03.81.05,1.38.06.29,0,.57.01.86.03.64.03,1.3.05,2.13,0,.38-.04.95,0,1.46.02.61.03,1.14.05,1.58,0,.45-.05,1.83-.18,2.27-.03.04.01.09.03.13.04.86.21,1.6.14,2.19.09.35-.03.65-.06.95-.03.04,0,.08,0,.12,0,.18,0,.46,0,.78-.02.45-.02,1.51-.07,1.88.02,1.48.31,2.52.21,3.41.05.64-.04,1.26-.01,1.86,0,.31.01.61.02.89.03.52,0,.88,0,1.2-.01.51-.01.87-.02,1.61.03.54.06,1.03.04,1.5.02.47-.02.95-.03,1.56.01.7.06,1.14.04,1.56.02.36-.02.71-.03,1.29,0,1.08.23,1.83.16,2.62.09.19-.02.39-.04.61-.05.08,0,.16-.02.24-.04.23-.05.48-.02.9.04.54.08,1.22.17,1.97,0,.59-.11,1.82-.05,2.49.04.56.08,1.4.06,2.21.05.33,0,.64,0,.91,0,.41.02.87-.03,1.31-.06.55-.04,1.11-.09,1.43-.02.09.02.19.03.28.03,1.11,0,2.01-.86,2.02-1.99,0-.04,0-.08,0-.12-.11-1.43-.55-2.27-1.71-3.88-.45-.69-1.05-1.05-1.49-1.31-.1-.06-.21-.12-.29-.18-.51-.79-1.21-1.29-1.78-1.7l-.22-.16c-.33-.23-.55-.47-.81-.75-.45-.48-1-1.08-2.02-1.41-1.47-.44-2.35.89-2.77,1.53-.07.11-.14.22-.24.36-.06.09-.11.13-.31.3-.22.19-.53.44-.96.92-.38.46-.58.64-.76.81-.19.17-.36.33-.57.58-.23.26-.44.46-.63.66-.19.19-.38.37-.57.58-.04-.01-.08-.03-.12-.04-.38-.12-.91-.29-1.55-.29-.44-.01-.85.01-1.23.03-.55.03-.99.05-1.32-.02-.99-.23-2.42-.78-2.78-1.1l-.15-.12q-.98-.78-.97-1.29c0-.32.01-.74.03-1.19.03-1.11.07-2.49,0-3.53-.05-.44,0-1.05.04-1.69.07-.88.15-1.87,0-2.82-.01-.07-.03-.06-.05-.12.09-.25.86-.82,1.14-1.02,1.07-.83,1.76-.98,2.27-1.02.43-.03.89,0,1.33.02.5.03.96.05,1.41,0,.03,0,.07,0,.1-.02.32-.06.77-.05,1.24-.03.44.01.9.03,1.34,0,.57-.03.81.04,1.33.19.36.1.77.22,1.37.33.71.12,1.36.32,2.12.56.28.09.58.18.9.28.88.25,2.86.55,4.1-.15.13-.08.26-.16.4-.24.73-.42,1.84-1.05,2.47-2.68.4-1.26.58-2.22-.81-3.16-.36-.32-.68-.54-1.01-.78-.29-.21-.62-.45-1-.76-.24-.21-.41-.38-.56-.53-.28-.27-.54-.53-1.02-.9-.19-.15-.37-.28-.54-.39-.34-.24-.54-.39-.6-.47-.43-.74-1.56-2.7-3.6-2.57-1.15.1-2,.82-2.54,2.12-.08.2-.12.27-.12.27-.08.07-.19.12-.33.2l-.27.16c-.83.42-1.53,1.16-1.89,1.99l-.2.4s-.04.09-.06.13c-.61.02-1.76,0-2.71-.03-.56-.01-1.1-.03-1.54-.03-1.17-.01-1.68-.27-1.76-.36-.04-.04-.08-.08-.13-.12-.25-.2-.48-.35-.68-.47,0-.05.01-.11.02-.16.11-.79.25-1.86-.17-2.83-.07-.14-.14-.29.41-.67.76-.42,2.46-1.74,2.55-3.19.12-1.19-.55-2.03-2-2.51h-.04c-.51-.22-.97-.33-1.41-.43-.4-.09-.81-.19-1.35-.39-.79-.27-1.64-.31-2.33-.34-.28-.01-.67-.03-.77-.05-.19-.05-.37-.12-.54-.18-.69-.25-2.14-.78-3.1.53-.77,1.07-.5,2.27-.32,3.06.05.22.11.49.11.6v.04l.05,2.69c-.08.88-.21,1.08-.25,1.14-.23.32-.4.62-.59.94-.17.31-.34.6-.61.99l-.06.09c-.49.68-.66.91-.94,1.01-.3.12-.52.27-.69.38-.05.04-.1.08-.15.1,0,0-.05,0-.15,0-1.24-.18-2.01-.29-3.27-.03-.59.03-1.1,0-1.54-.03-.49-.03-.91-.05-1.34,0-.87.13-1.51-.01-2.56-.26-.37-.09-.77-.18-1.25-.28-1.47-.26-3.38-.46-5.17.3-.07.03-.13.06-.19.1-.32.2-.59.35-.81.48-.95.54-1.85,1.06-1.72,2.8.15,1.35,1.32,2.91,3.01,3.19.85.14,2.58.38,4.58.4.85,0,1.65-.2,2.36-.38.63-.16,1.23-.31,1.67-.28.84.23,1.55.14,2.08.07.33-.04.58-.08.84-.03.21.03.39.07.57.1.87.16,1.77.32,2.98-.11.31-.03,1.12.54,1.47.78.23.17.45.32.62.42.49.32.96,1.13,1.01,1.33l-.04,4.45c0,.48,0,1.05.02,1.63.02.97.05,2.18-.04,2.66,0,.04-.01.07-.02.11-.04.35-.44,1.06-1.04,1.65-.03.03-.05.05-.07.08-.31.35-1.06.8-1.69.83-1.01.04-2.06.02-3.17-.01-.57-.01-1.14-.03-1.71-.04-.35,0-.78-.02-1.24-.03-1.1-.03-2.36-.06-3.5-.01-1.98.15-3.04.2-4.24-.02l-.69-.13c-1.52-.3-2.62-.51-3.84-.52-.23,0-.49-.01-.78-.02-1.28-.04-2.88-.1-4.06.31-.43.15-.81.33-1.12.54-.03-.32-.07-.62-.14-.9-.11-.48-.09-1-.07-1.62.03-.75.06-1.6-.14-2.64-.16-.73-.13-2.37-.1-3.35v-.7c.01-.07,0-.15,0-.22-.17-1.14-.09-2.11,0-3.22.02-.27.04-.55.06-.84,0-.08,0-.16,0-.25-.08-.71-.03-1.32.03-2.1.05-.59.1-1.26.11-2.1,0-.35-.03-.75-.07-1.18-.08-.87-.16-1.77.12-2.66.24-.7.36-2.64.19-3.64.02-.2.16-.57.29-.77.08,0,.16-.01.24-.02.12-.01.31-.03.48-.04.34,1.11,1.11,2.05,1.52,2.55.16.18.32.52.46.82.27.56.54,1.14,1.11,1.49l.11.07c.49.3,1.4.87,2.48.99.05,0,.1,0,.16,0,1.11,0,2.45-.96,3.04-1.42,1.1-.96,1.16-1.9,1.23-2.81l.03-.4c.21-2.44-.47-4.18-1.98-4.96-.03-.02-.1-.14-.16-.22-.17-.27-.43-.66-.9-.98-.04-.04-.08-.08-.12-.12-.2-.21-.42-.41-.7-.6,1.12.21,2.38.21,3.35.21h.5Zm8.2-17.01c.59-.14,1.15-.27,1.6-.27h.02c.34,0,.7.03,1.1.06.97.07,2.17.15,3.51-.04.18.02.66.34.95.54.2.13.4.27.56.37.6.39.6.57.6.9.04.93.02,1.54,0,2.25-.01.39-.03.8-.03,1.28,0,.33,0,.76.02,1.22.02.64.05,1.83-.03,2.2l-.04.19c-.08.41-.16.77-.38.92l-.18.12c-.41.27-.87.58-1.34.67-.05,0-.09.02-.14.03-.44.13-.98.08-1.67,0-.45-.04-.96-.1-1.53-.1-.26,0-.64,0-1.04.02-.61.02-1.75.06-2.08-.02-.91-.22-1.75-.17-2.55-.12-.38.02-.78.05-1.21.05h-.6c-1.35,0-2.03-.01-3.19-.45-.06-.02-.13-.04-.2-.06-1.71-.38-3.58-.29-5.14.26-1.35.47-2.38,1.82-2.6,2.83-.16.61-.22,1.88,1.5,3.09-.08-.04-.15-.07-.22-.11-.42-.2-.79-.37-1.13-.44l-.23-.05c-.94-.21-1.15-.27-1.34-.42h-.01s-1.68-1.4-1.68-1.4c-.25-.29-.38-.79-.38-.98.07-.97.06-1.81.05-2.78,0-.51-.01-1.05,0-1.67l.04-3.95c0-.23.03-.29.03-.29.09-.14.73-.52.99-.67.46-.28,1.55-.95,2.53-.94l2.77.03c.36,0,.67.02.96.04.73.04,1.42.08,2.32-.13.75-.18,1.99-.91,2.38-2.16,1.12.26,2.08.28,3,.29.4,0,.82.01,1.26.04.96.06,1.92-.16,2.75-.35Z"/>
    <path class="cls-1" d="m401.52,360.82c-.07-.09-.14-.2-.21-.32-.37-.6-.98-1.6-2.31-1.94-.19-.05-.38-.22-.66-.5-.37-.37-.88-.87-1.7-.98-.25-.03-.43-.11-.67-.24-.32-.16-.75-.37-1.3-.38-1.24.02-2.03,1.03-2.6,1.79-.13.17-.24.34-.35.45-.35.34-1.08.74-2,.74-.01,0-.04,0-.03,0l-2.69-.03c-.36-.01-.75.01-1.12.03-.45.02-1,.05-1.26,0-1.61-.56-3.22-.29-4.29-.12l-.33.05c-.94.15-2.1.33-3.3-.01-.55-.15-.97-.45-1.41-.77-.58-.42-1.25-.9-2.26-.98-.08-.03-.14-.08-.21-.12-.32-.19-.79-.49-1.55-.57-.23-.02-.49-.15-.74-.28-.44-.23-1.36-.7-2.17-.1-1.29.84-.97,2.33-.77,3.21.09.42.19.85.18,1.23l-.06,6.21c0,.44-.02.81-.03,1.16-.02.66-.05,1.28,0,2.06s.06,1.51.02,2.32c-.15-.52-.4-1.02-.8-1.42-.09-.09-.19-.2-.29-.31-.47-.51-1.12-1.21-2.24-1.95-.28-.17-.53-.34-.77-.51-.63-.43-1.33-.93-2.31-1.18-.14-.05-.27-.18-.45-.39-.28-.3-.75-.8-1.51-.82-.33,0-.81.08-1.27.53-.19.19-.32.34-.45.49-.17.2-.21.25-.5.39-.4.17-1.01.57-1.78,1.83-.16.24-.29.45-.4.64-.03.05-.06.1-.08.14-.93.27-1.33,1-1.53,1.38-.08-.01-.19-.04-.27-.05-.39-.08-.97-.21-1.66-.12-.11-.1-.29-.28-.58-.61-.05-.06-.1-.11-.16-.15-.18-.14-.27-.23-.32-.29,0-.05.02-.12.04-.22.39-1.24.22-3.22.09-4.29-.05-.39,0-.96.06-1.56.09-.98.19-2.08-.01-3.16-.02-.13-.05-.3-.1-.49-.05-.2-.16-.65-.13-.76,0,0,.04-.03.21-.09.95-.37,1.52-1.15,1.86-1.61.03-.04.06-.08.08-.12.65-.23,1.93-.32,2.66-.37l.38-.03c.67-.04,1.35-.29,2.01-.53.42-.15,1.12-.4,1.4-.37.44.06.71.18,1.01.31.4.17.9.39,1.6.4.03,0,.06,0,.09,0,2.81,0,3.51-1.32,3.67-2.11l.04-.16c.17-.63.53-1.95-.2-3.3-.07-.12-.14-.24-.2-.35-.34-.61-.77-1.38-1.7-1.94-.25-.17-.54-.3-.82-.43-.22-.1-.62-.28-.71-.39-.67-1.36-1.88-1.64-2.35-1.75-1.12-.35-1.93.24-2.32.51-.08.06-.21.15-.19.16h-.02c-.67,0-1.33.31-1.91.58-.17.08-.31.15-.4.18-1.54.33-2.19.7-2.58.99-.05,0-.1,0-.15.01-.4.04-1.08.1-1.8.64q-.24.18-.64.24c-.24.03-.53.08-.96.17-.2.05-.37.09-.54.13-.72.17-1.34.33-1.94.79-.41.33-1.31.47-2.11.6-.46.07-.94.15-1.41.27-.5.14-1.22.23-1.91.32-.77.1-1.56.2-2.25.38-.26.06-.47.12-.66.17-.46.13-.56.16-1.03.11-1.04-.13-1.94.02-2.83.45-.05,0-.1,0-.16,0-.5,0-1.33.02-2.13.49-.42.22-.62.25-.91.29-.29.04-.69.1-1.24.34-.17.08-.39.15-.6.22-.73.24-1.63.54-2.04,1.36-.07.08-.34.23-.5.31-.52.28-1.61.87-1.44,2.14v.12c.02.5.05,1.54.92,2.33.66.61,1.63.89,2.8.82,1.21.03,2.23-.17,2.99-.54.05-.02.25-.01.39-.01.42,0,1,.01,1.58-.24.25-.09.79-.14,1.28-.18.4-.04.82-.08,1.3-.15.3-.06.56-.12.79-.17.65-.14,1.04-.23,1.87-.28.92-.05,1.72.12,2.72.33l.32.07c.67.26.86.44.89.43,0,.84-.03,2.76-.28,3.44-.03.07-.04.14-.06.21-.17.81-.09,1.62-.02,2.34.06.62.12,1.2,0,1.62q-.2.79-1.07,1.31c-.98.6-1.53.71-2.43.88l-.4.08s-.15.04-.19.05c-.02,0-.49.13-2.26-.11-1.25-.1-2.18-.11-3.13-.02-.56.06-1.45-.16-2.17-.34-.64-.16-1.19-.3-1.76-.3-.44.02-.86,0-1.32-.04-1.02-.07-2.17-.15-3.34.35-2.28.91-2.9,2.43-2.73,3.49.16.83,1.04,2.39,2.73,3.01,1.05.38,2.24.4,3.38.42.41,0,.82.01,1.16.04,1.13.11,3.05-.14,4.58-.6.49-.14,1.41-.06,2.16,0,.47.04.91.08,1.28.09.26.01,1.16.39,1.81,1.07.35.6.36,1.29.36,1.96-.07.28-.45.96-.67,1.37-.45.81-.84,1.52-.94,2.18-.03.08-.14.29-.23.46-.17.32-.41.77-.66,1.42-.11.32-.38.8-.75,1.47l-.2.35c-.16.31-.31.52-.48.74-.3.41-.68.92-.78,1.78-.03.4-.27.64-.62.97l-.21.2c-.85.93-1.15,1.35-1.48,2.3-.07.19-.15.28-.33.48-.29.32-.67.76-.9,1.55-.02.08-.03.11-.03.18-.04.11-.3.37-.44.51-.28.28-.58.57-.73.93-.14.29-.28.45-.49.68-.25.28-.57.63-.85,1.19-.28.55-.69,1.14-1.24,1.79-.47.52-.84,1.24-1.17,1.87-.16.31-.35.67-.46.82-.02.03-.04.06-.06.09-.54.88-.83,1.67-1.14,2.5l-.09.25s-.03.09-.04.14c-.4,1.55-.13,2.65.83,3.31.98.64,2.64.9,4.88-1.49.14-.14.29-.26.43-.38.45-.39,1.02-.88,1.46-1.73.02-.04.04-.07.05-.11.19-.46.6-.85.96-1.19l.1-.1c.44-.38.68-.77.84-1.04.73-.18,1.15-.85,1.47-1.36.08-.13.16-.26.22-.33.39-.38.63-.87.89-1.39.25-.5.55-1.12.87-1.27.94-.46,1.23-1.16,1.53-1.91l.1-.24c.3-.72.46-.96.71-1.2.78-.76.99-1.18,1.39-2.05l.06-.13c.09-.15.19-.26.33-.42.26-.3.6-.7.9-1.32.06.22.11.47.15.74.14.95.04,2.05-.01,2.36-.15.72-.12,1.3-.08,1.86.02.25.03.53.03.85,0,.05,0,.09,0,.14.06.69,0,1.38-.05,2.05-.07.8-.13,1.57.01,2.31.05.7,0,1.18-.07,1.74-.07.62-.15,1.32-.06,2.36.12.94.06,1.56-.02,2.29-.05.47-.11,1-.11,1.63,0,.42,0,.82,0,1.2,0,1.03,0,1.93-.11,2.82-.19,1.43-.21,3.29-.22,4.21-.05.76-.02,1.4,0,1.92.02.4.04.78,0,1-.29.94-.05,1.62.21,2.03.69,1.08,2.1,1.21,2.86,1.28.07,0,.14,0,.21,0,1.23,0,2.33-.26,3.37-.81,1.34-.71,2.04-1.34,2.42-3,.26-1.09.28-2.27.06-3.61l-.29-4.04c-.02-.36-.02-.79-.01-1.23.01-1.03.02-2.2-.25-3.18-.17-.59-.1-1.34-.03-2.06.06-.64.12-1.3.03-1.94-.14-1.01-.29-2.49-.05-3.68.17-.97.11-1.8.06-2.53-.04-.58-.08-1.13-.02-1.68.3-1.8.49-3.19.08-4.78-.13-.41,0-1.25.14-2.08v-.07c.25-1.24.49-1.67.53-1.74l.04-.03c.06-.03.11-.07.15-.1.03.01.06.03.1.05.19.11.76.68,1.14,1.33.59.94.98,1.54,1.67,1.96.59.39.71.78.86,1.31.08.28.17.59.33.88.23.43.53.87.79,1.26.15.22.36.53.44.66.28.92,1.14,1.94,3.58,1.96,1.1,0,1.73-.45,2.21-.81.21-.16.44-.33.7-.49,1.38-.68,2.02-3.06,1.7-4.05-.32-1.25-.36-1.69-.35-1.91,0-.05,0-.11,0-.16-.09-.87-.55-1.43-.88-1.84-.17-.21-.31-.38-.41-.58l-.09-.19c-.4-.84-.96-1.99-2.55-2.27-.12-.03-.32-.2-.55-.4-.3-.26-.67-.58-1.14-.82-1.17-.65-2.16-1.02-2.98-1.3-.15-.05-.45-.23-.71-.38-.71-.42-1.51-.89-2.41-.89-.03,0-.08,0-.12,0-.09,0-.24-.09-.58-.38-.25-.21-.52-.44-.81-.6-.26-.17-.45-.51-.44-.66.07-.36.59-1.65.87-1.98.61-.68.81-.84,1.27-.78.06,0,.12.01.19.01.57.02,1.12-.04,1.64-.08.87-.07,1.69-.13,2.6.02.07.01.14.02.21.02.17,0,.51.07.83.13.41.08.92.18,1.47.23.21.02.45.1.73.2.57.2,1.36.47,2.29.32.22-.03.35,0,.6.05.48.1,1.2.24,2.19-.17,1.34-.39,2.04-1.1,2.4-1.82.01.33.04.67.09,1,.2,1.25.06,2.85-.04,3.91v.13c-.23,1.26-.15,2.3-.08,3.14.04.54.08,1,.03,1.38,0,.06-.01.12-.01.19l-.04,4.45c0,.66.02,1.19.04,1.67.04.89.07,1.49-.12,2.51-.29.91-.2,1.95-.1,2.95.05.58.12,1.24.05,1.55,0,.04-.02.09-.02.13-.1.82-.09,1.72-.08,2.58.01.71.02,1.45-.06,1.99-.14,1.47-.14,2.27-.13,3.29,0,.37,0,.79,0,1.28,0,.63-.06,1.26-.11,1.87-.09,1.08-.18,2.1.01,2.96,0,.08-.03.35-.05.56-.09.74-.22,1.86-.01,3.52.11.9.3,1.92,1.18,2.52.9.63,1.96.37,2.27.3.17-.04.38-.06.61-.09.92-.11,2.06-.25,2.87-.94.08-.07.17-.13.25-.2.6-.46,1.6-1.22,1.85-2.87.25-1.08.17-2.37.1-3.51-.03-.55-.07-1.11-.04-1.42,0-.04,0-.07,0-.11,0-.14.18-.4.48-.84.2-.29.43-.62.64-.97.58-.85.85-.8,1.07-.75,1.25.34,3.04.25,4.77.12l.37-.03c.79-.03,1.55,0,2.28.02.76.03,1.54.06,2.38.02.51-.03,1.33.34,1.68.63.71.58.78.68.92,1.23.1.45.23.81.36,1.17.14.36.26.71.37,1.2.02.08.04.15.07.23.14.35.22.71.3,1.06.13.59.27,1.2.73,1.67,1.31,1.34,3.08.44,4.13-.1l.61-.3c.76-.34,2.54-1.15,2.41-3.1-.02-.24.03-.75.08-1.25.09-.99.21-2.23.04-3.37,0-.04-.01-.08-.02-.12-.26-1.1-.18-2.48-.12-3.39.02-.32.04-.59.04-.8,0-.33-.03-.74-.08-1.17-.05-.47-.12-1.25-.04-1.53.02-.07.04-.15.05-.22.14-1.01.06-1.95,0-2.64-.02-.22-.04-.41-.04-.58.12-.92.09-1.65.06-2.31-.01-.31-.03-.62-.03-.96,0-.47-.01-.99-.03-1.53-.02-.53-.03-1.07-.03-1.58,0-.31,0-.66,0-1.02-.01-.68-.02-1.46.02-1.87.19-1.17.14-2.35.05-3.46,0-.17.02-.4.03-.65.06-1.07.1-1.95-.02-2.61-.04-.44,0-1.26.02-1.92.01-.36.02-.7.03-.98,0-.36.02-.76.03-1.18.03-.97.06-2.06.01-3.1,0-.06,0-.11-.02-.17-.16-.94-.09-1.61-.02-2.32.05-.53.11-1.08.08-1.72-.03-.44.08-.83.19-1.29.12-.45.25-.96.26-1.54,0-.04,0-.08,0-.11.04-.17.25-.58.43-.82.07-.07.17-.15.29-.25.7-.58,1.66-1.36,1.67-2.49.01-1.19-.5-2-.97-2.59Zm-10.83,15.43l.03.34c.04.67.02,1.19,0,1.7-.01.25-.02.49-.02.71,0,.12-.02.28-.03.47-.05.65-.12,1.54.04,2.36.01.07-.03.31-.06.47-.09.54-.22,1.29.05,2.12.05.23,0,1-.03,1.37-.02.3-.04.57-.04.77,0,.54.03.95.06,1.31.04.47.05.6,0,.76-.01.03-.02.07-.03.1-.16.59-.12,1.27-.08,1.92.02.31.04.69.02.85,0,.06-.01.12-.01.18,0,.27-.01.58-.03.9-.03.91-.05,1.49.03,1.9.01.06.03.11.04.17.06.19.03.38-.04.75-.08.44-.2,1.04-.02,1.73.03.2,0,.45-.03.76-.05.45-.11,1-.03,1.66-.12.39-.67,1.32-.91,1.73l-.27.47c-.31.56-.92.86-1.04.88-.48-.12-.95-.16-1.41-.16s-.9.04-1.34.08c-.69.06-1.34.12-1.99.01-1.26-.19-3.26-.31-5.01-.06-.21-.03-.76-.5-1.08-.79-.17-.15-.34-.3-.45-.39-.17-.16-.46-.65-.85-2.11l-.05-.19c-.15-.53-.11-.85.06-1.9.13-.78.08-1.39.05-1.88-.02-.31-.04-.56-.01-.81.09-.93.03-1.73-.03-2.43-.06-.81-.12-1.46.08-2.15.51-1.11.33-2.32.07-3.39-.12-.44-.09-.62.03-1.3.03-.19.07-.4.12-.72l.04-.33c.08-.74.14-1.32,0-2.43-.04-.55.01-1.15.06-1.63.03-.31.05-.57.05-.77,0-.47.03-.97.06-1.42.02-.44.05-.85.05-1.18.01-1.16.04-1.95.09-2.28.12-.7.21-1.85.22-3.09,0-.19,0-.39,0-.59,0-.6-.02-1.28.1-2.06.14-.95.46-1.6.99-2.07l.35-.31c.34-.31.92-.83,1.15-.83h0l8.96.09c.25.03.96.44,1.29.92.45.66.86,1.77,1,2.38,0,.17-.02.42-.04.7-.07.94-.1,1.6.06,2.18.07.27.08,1.26-.04,1.82-.28.97-.18,1.94-.1,2.72Z"/>
    <path class="cls-1" d="m172.38,454.26l-.69-.3c-.12-.05-.26-.07-.38-.05l-.6.09c-.07,0-.14.03-.21.06l-.53.26-.34.09-1.02-.26c-.16-.04-.33-.01-.47.06l-.23.12-.24-.13c-.13-.07-.29-.1-.44-.08l-.43.06-.34-.09-.53-.31c-.12-.07-.27-.1-.41-.09l-.45.03c-.05,0-.1.01-.15.03l-.87.26-.72.03c-.15,0-.29.06-.41.16l-.43.34-.17-.05c-.36-.12-.74.07-.88.42l-.19.49c-.11.3-.01.64.25.83l.68.49c.12.08.25.13.4.13l.81.02c.06,0,.11,0,.17-.02l.48-.1.27.28s.06.06.09.08l.67.49.38.52-.09.28c-.05.15-.04.31.01.46l.21.57.06.43-.24.35c-.07.1-.11.21-.12.32l-.11.89-.29.66-.37.69-.41.46-.72.25c-.1.04-.19.09-.27.17l-.55.56-.43.15-.81-.48c-.12-.07-.27-.1-.41-.1l-.83.06-.79-.03-1.17-.77c-.07-.05-.15-.08-.23-.1l-.54-.13-.09-.48c-.04-.23-.19-.42-.41-.52l-.67-.3.03-.3c.02-.21-.05-.42-.2-.58l-.6-.6-.27-.49.28-.62c.12-.26.06-.57-.14-.78l-.45-.47.18-.32c.08-.13.11-.28.09-.43l-.1-1.25c0-.05-.01-.1-.02-.15l-.15-.54c-.03-.12-.1-.24-.19-.33l-.09-.09.15-.14c.21-.2.27-.52.16-.78l-.21-.49.24-.5c.07-.14.09-.29.06-.44l-.31-1.62.6-.72c.11-.14.17-.31.16-.49l-.04-.84.16-.63.68-.58c.07-.06.13-.13.17-.21l.35-.69c.06-.13.09-.27.07-.41l-.12-.95.22-.55.45-.42.68.11c.27.05.54-.07.69-.29l.47-.65.51-.09.86.28c.1.03.2.04.3.03l.51-.06.57.06c.12.01.23,0,.34-.05l.44-.17.14.51c.05.18.16.33.32.43l.53.32c.17.1.38.13.56.07l.2-.06.03.08c.06.13.15.24.27.32l.49.31c.08.05.17.09.26.1l.48.08.18.68c.04.17.15.31.29.41l.42.28.25.42s.04.07.07.1l.44.51c.15.18.39.27.62.24h.08s.53.47.53.47c.25.22.62.25.89.06l.72-.51c.32-.22.4-.66.18-.98l-.63-.92-.32-.57.05-.58c.01-.14-.02-.28-.09-.41l-.35-.63v-.66c0-.27-.14-.51-.38-.63l-.41-.21.14-.44c.1-.32-.04-.67-.34-.84l-1.27-.74c-.14-.08-.3-.12-.46-.1l-.63.08c-.23.03-.43.17-.54.37l-.29.55-.21.09-.61-.12-.74-.42c-.17-.09-.36-.12-.54-.07l-.27.08-.23-.21c-.15-.14-.35-.2-.56-.18l-.39.04-1.06-.56c-.31-.15-.69-.06-.89.22h0c-.16-.2-.4-.29-.64-.25-.24.04-.45.19-.55.42l-.27.61-.05.04-.3-.13c-.32-.14-.69-.03-.88.26h0s-.13-.06-.13-.06c-.2-.09-.43-.09-.62.01s-.33.29-.37.5l-.12.64-1.09.33c-.31.08-.53.36-.53.68v.32s-.08.03-.08.03c-.04.01-.08.03-.12.06l-.98.58c-.16.09-.28.25-.33.44l-.17.66s-.01.07-.02.1l-.05.45-.24.26-1.07.65c-.29.17-.42.51-.32.83l.18.55-.49.5c-.2.18-.29.46-.21.72l.17.6-.58.35c-.27.15-.42.46-.36.76l.15.76c.02.11.07.22.15.31l.22.27-.56.66c-.22.25-.24.63-.03.9l.42.55.08.18-.13.26c-.08.16-.1.35-.05.53l.06.19-.25.29c-.17.19-.22.46-.14.7l.37,1.05-.03.47c-.01.19.05.38.19.53l.58.64-.06.38c-.03.22.04.44.2.6l.2.2.03.45c.01.19.1.37.25.49l.66.55.23.91c.03.15.11.28.22.38l.43.38c.16.14.37.2.58.17l.38-.06c.06.17.18.31.34.39l.34.18.24.27.27.52c.12.24.37.38.63.38h0v.03c.03.24.18.45.4.55l.7.34c.17.08.36.09.54.03l.48-.16h.5s.07-.01.1-.02l.24-.04.15.19c.23.3.66.37.97.15l.1-.07.17.17c.08.08.17.13.27.17l.63.21c.19.06.39.05.56-.04l.21-.11.29.18c.12.07.25.11.38.11.12,0,.25-.03.36-.1l.5-.29.76-.25.81-.1c.15-.02.29-.08.4-.19l.43-.41.33-.13.47-.02.66.06.4.11c.27.07.57-.02.74-.25l.03-.04c.13.13.31.2.5.2.2,0,.39-.09.52-.24l.41-.46.66-.51c.21-.16.31-.42.27-.67l-.09-.56-.05-.76c0-.06-.02-.13-.04-.19l-.25-.71s-.03-.07-.04-.1l-.15-.29.27-.34c.21-.26.21-.64,0-.9l-.34-.41.05-.18.46-.48c.27-.28.26-.72-.01-.99l-.34-.34.05-.14h.72s.49-.06.49-.06c.07,0,.14-.03.21-.06l.62-.29c.28-.13.44-.42.41-.72v-.09s.47-1.28.47-1.28c.13-.35-.04-.74-.38-.89Z"/>
    <path class="cls-1" d="m199.36,461.63l-.73-.29c-.17-.07-.36-.07-.53,0l-.65.26c-.06.02-.11.06-.16.09l-.61.46s-.07.06-.1.09l-.44.49-.53.31s-.06.04-.09.07l-.39.32-.53-.07s-.1,0-.14,0l-.73.06c-.07,0-.14.02-.21.05l-.55.22-.47-.11c-.06-.01-.13-.02-.18-.02h-.54s-.82-.58-.82-.58c-.12-.09-.27-.14-.42-.14h-.38s-.08-.54-.08-.54c-.02-.2-.12-.38-.28-.5l-.45-.33s-.06-.04-.09-.06l-.33-.17-.03-.17.14-.58c.06-.25-.02-.51-.2-.68l-.44-.42-.19-.37.08-.43.19-.46,1.83-.17.58.12c.1.02.21.02.31,0l.76-.19.45-.15.45.21c.12.05.26.08.39.06l.63-.08.64.12c.13.03.26.01.38-.03l.5-.19,1.22.27c.07.02.13.02.2.02l.72-.03c.12,0,.25-.04.35-.11l.54-.35.38.05c.22.03.44-.05.59-.2.16-.16.23-.38.2-.59l-.09-.67-.18-.67.07-.58c.02-.18-.03-.37-.14-.51l-.27-.36.06-.51c.01-.12,0-.24-.05-.35l-.26-.61c-.04-.09-.09-.17-.16-.24l-1.15-1.06s-.08-.06-.12-.09l-.43-.25-.2-.43c-.1-.2-.28-.35-.5-.39l-.43-.09-.22-.38c-.06-.09-.13-.17-.22-.23l-.59-.38c-.1-.07-.22-.1-.34-.11l-.55-.04-.5-.3c-.15-.09-.32-.12-.49-.09l-.69.12-1.64.19c-.13.01-.25.06-.35.13l-.65.47-.72.3-1.54.77-.63.46c-.14.1-.23.24-.27.41l-.15.61-.55.4c-.16.11-.26.29-.29.48l-.08.57-.52.34c-.13.08-.23.21-.28.35l-.31.85-.22.79c-.02.06-.03.13-.02.2l.02.88s0,.09.02.14l.12.54-.31.54c-.12.21-.13.48-.01.69l.32.6-.02.53-.18.75c-.06.24.02.5.2.67l.59.57.23.34-.06.54c-.02.16.02.31.1.45l.45.74c.07.11.16.2.28.26l.76.39.58.23.32.32.44.62c.04.06.09.11.15.16l.63.48c.06.05.13.08.2.11l.72.24c.07.02.15.04.22.04h0l1.55-.03.71.14s.08.01.12.01l1.04.03s.01,0,.02,0c.09,0,.18-.02.26-.05l.94-.37.91-.1c.09,0,.18-.04.26-.08l2.81-1.6c.07-.04.13-.09.18-.14l.69-.78c.07-.08.12-.17.15-.27l.14-.47.23-.39c.1-.18.13-.39.06-.59-.07-.2-.22-.35-.41-.43Zm-6.6-9.99l1.64,1.13.22.59c.03.08.07.15.12.21l.29.35-.1.23-.3.36-.39.38-.5.15-.45.07-.49-.21c-.08-.04-.17-.05-.27-.06h-.68s0,0,0,0c-.09,0-.19.02-.28.06l-.44.18-.45-.09c-.07-.01-.15-.02-.23,0l-.35.05-1.01-.99-.06-.21.19-.52.34-.53,1.06-1.05,1.47-.24.66.14Z"/>
    <path class="cls-1" d="m227.83,463.61c-.08-.08-.19-.14-.3-.17l-.5-.14-.49-.38c-.08-.06-.16-.1-.26-.13l-.17-.04.03-.36c.01-.15-.03-.31-.11-.44l-.4-.62c-.05-.08-.11-.14-.19-.2l-.8-.57-.68-.66-.46-.38-.21-.88c-.06-.24-.23-.43-.47-.51l-.09-.03.03-.19c.01-.08,0-.15,0-.23l-.1-.56c-.03-.18-.14-.35-.29-.45h0c.08-.2.07-.42-.03-.61l-.25-.46v-.07s.13-.14.13-.14c.1-.1.17-.23.19-.37l.07-.38.95-.75.55-.32.55-.22c.26-.1.44-.35.45-.63h0c.27.02.51-.13.65-.37.14.1.31.14.49.13l.75-.08c.09,0,.17-.03.25-.07l.84-.43c.2-.1.34-.29.38-.5l.17-.89c.05-.26-.05-.52-.26-.68l-.46-.36-.37-.58c-.11-.18-.3-.3-.51-.32-.21-.03-.42.05-.58.2l-.35.34-.14-.02-.74-.45c-.23-.14-.53-.14-.75.01l-.78.51-.44.05-.66-.43c-.14-.09-.31-.13-.47-.11l-.56.07c-.05,0-.1.02-.16.04l-.64.23c-.14.05-.27.15-.35.28l-.44.64c-.06.08-.1.16-.12.25l-.2.75c-.08.3.05.63.32.79l.69.42c.14.08.3.12.46.09l.42-.06-.66.47c-.1.07-.18.17-.23.28l-.27.56-.67.34c-.05.03-.1.06-.15.1l-.78.71-.46.21c-.07.03-.14.08-.2.14l-.42.41c-.05.05-.09.11-.13.17l-.05.09-.24-.12.11-.35c.02-.06.03-.12.03-.18l.03-.55c0-.08,0-.16-.03-.23l-.14-.48-.03-1.06c0-.05,0-.11-.02-.16l-.19-.71.35-.82c.03-.08.05-.16.06-.25l.02-.54c0-.12-.02-.24-.07-.34l-.18-.36.17-.74c.02-.1.02-.21,0-.31l-.18-.81.42-.77c.05-.09.08-.19.09-.29l.04-.66-.1-1.68c-.01-.17-.09-.34-.22-.46h0s.05-.05.05-.05c.26-.22.33-.6.16-.9l-.1-.18.09-.22c.07-.16.08-.33.02-.49l-.18-.56c-.05-.15-.15-.28-.28-.37l-.76-.61c-.29-.26-.74-.23-1,.06l-.39.44-.24.11-.6-.15c-.16-.04-.34-.02-.49.06l-.63.33c-.16.08-.29.23-.35.4l-.24.7-.41.24h-.07c-.07.03-.13.05-.19.08l-.74.4c-.28.15-.43.48-.35.79s.35.54.67.54l.76.02.38.14.33.33.29.4.04.34c.01.1.04.2.09.28l.26.45.02.14-.44.41c-.13.12-.21.29-.23.46l-.05.65c-.02.2.06.4.2.55l.29.29-.11.21c-.06.1-.08.22-.08.34v.66c0,.18.07.36.2.49l.35.37-.03.16-.37.51c-.12.17-.16.39-.11.59l.14.55-.08.53c-.01.09,0,.19.02.28l.17.66c.02.07.05.14.09.2l.08.12-.34.26c-.16.12-.26.3-.28.5l-.07.7c-.02.22.06.44.22.59l.43.41v.16s-.31.48-.31.48c-.11.17-.14.38-.09.57l.11.42-.2.41c-.13.28-.07.62.16.83l.26.24-.11.18c-.15.24-.15.54,0,.78l.11.16-.21.2c-.07.07-.12.14-.16.23l-.26.6c-.11.25-.06.54.11.74l.4.46-.38.19-.41-.15c-.29-.1-.61,0-.79.23l-.23.29-.32.19c-.16.1-.28.25-.33.44s-.02.38.08.54l.28.46c.03.06.08.11.13.15l.45.42c.05.05.11.09.17.12l.67.32c.3.15.67.06.87-.21l.07-.09.13.13c.26.26.67.28.96.04l.59-.5.23-.07.41.3c.2.14.46.17.69.08l.24-.1.22.23c.13.14.32.23.52.23h0c.2,0,.38-.08.52-.23l.49-.52.13-.02c.11-.02.22-.06.32-.13l.56-.41s.01,0,.02-.02l.48.64c.15.2.4.31.66.27l.48-.06.44.25c.19.11.42.13.62.04l.32-.13.65.22c.16.05.34.05.49-.02l.69-.29.8.1.98.3c.07.02.14.03.21.03,0,0,.01,0,.02,0l.96-.03c.33,0,.61-.24.67-.57l.15-.73.25-.53c.13-.28.07-.61-.15-.82l-.44-.42Zm-8.29.61s-.1-.07-.17-.1l-.49-.2-.07-.12c-.07-.11-.17-.21-.29-.27l-.59-.29c-.05-.03-.11-.05-.17-.06l-.47-.1-.32-.47.05-.47.21-.48.41-.54c.23-.3.18-.73-.11-.97l-.29-.25.33-.19c.16-.09.28-.24.33-.42l.14-.47.19-.05.23.41c.05.1.13.18.22.24l.58.39c.08.06.18.09.28.11l.35.06.07.24-.04.78c-.02.32.19.62.5.71l.62.19.3.28.11.6c.01.06.03.11.05.17v.02s-.17,0-.17,0c-.07,0-.15.02-.22.04l-.8.3c-.14.05-.26.15-.34.27l-.43.65Z"/>
    <path class="cls-1" d="m260.43,463.61c-.08-.08-.18-.14-.29-.17l-.5-.14-.49-.38c-.08-.06-.16-.1-.26-.13l-.17-.04.03-.36c.01-.15-.03-.31-.11-.44l-.39-.62c-.05-.08-.11-.14-.19-.2l-.8-.57-.68-.66-.46-.38-.21-.88c-.06-.24-.23-.43-.47-.51l-.09-.03.03-.19c.01-.08,0-.16,0-.23l-.1-.56c-.03-.18-.14-.35-.29-.45h0c.08-.2.07-.42-.03-.61l-.25-.46v-.07s.13-.14.13-.14c.1-.1.17-.23.19-.37l.07-.39.95-.75.55-.32.55-.22c.26-.1.44-.35.45-.63h0c.28.01.51-.13.65-.36.14.1.32.14.49.13l.75-.08c.09,0,.17-.03.25-.07l.84-.43c.2-.1.33-.29.38-.5l.17-.89c.05-.26-.05-.52-.26-.68l-.46-.36-.37-.58c-.11-.18-.3-.3-.51-.32-.21-.02-.42.05-.58.2l-.35.34-.14-.02-.74-.45c-.23-.14-.53-.14-.75.01l-.78.51-.43.05-.66-.43c-.14-.09-.3-.12-.47-.11l-.56.07c-.05,0-.1.02-.16.04l-.64.23c-.14.05-.27.15-.35.28l-.44.64c-.06.08-.1.16-.12.25l-.2.75c-.08.3.05.63.32.79l.69.42c.14.08.3.11.46.09l.42-.06-.66.47c-.1.07-.18.17-.23.28l-.27.56-.67.34c-.05.03-.1.06-.15.1l-.78.71-.46.21c-.07.03-.14.08-.2.14l-.42.41c-.05.05-.09.11-.13.17l-.05.09-.24-.12.11-.35c.02-.06.03-.12.03-.18l.03-.55c0-.08,0-.16-.03-.23l-.14-.48-.03-1.06c0-.05,0-.11-.02-.16l-.19-.71.35-.82c.03-.08.05-.16.06-.25l.02-.54c0-.12-.02-.24-.07-.34l-.18-.36.17-.74c.02-.1.02-.21,0-.31l-.18-.81.42-.77c.05-.09.08-.19.09-.29l.04-.66-.1-1.68c-.01-.17-.09-.34-.22-.46h0s.05-.05.05-.05c.26-.22.33-.6.16-.9l-.1-.18.09-.22c.07-.16.08-.33.02-.49l-.18-.56c-.05-.15-.15-.28-.28-.37l-.76-.61c-.29-.26-.74-.23-1,.06l-.39.44-.24.11-.6-.15c-.17-.04-.34-.02-.49.06l-.63.33c-.16.08-.29.23-.35.4l-.24.7-.41.24h-.07c-.07.03-.13.05-.19.08l-.74.4c-.28.15-.43.48-.35.79s.35.54.67.54l.76.02.38.14.33.33.29.4.04.34c.01.1.04.2.09.28l.26.45.02.14-.44.41c-.13.12-.21.29-.23.46l-.05.65c-.02.2.06.4.2.55l.29.29-.11.21c-.06.1-.08.22-.08.34v.66c0,.18.07.36.2.49l.35.37-.03.16-.37.51c-.12.17-.16.39-.11.59l.14.55-.08.53c-.01.09,0,.19.02.28l.17.66c.02.07.05.14.09.2l.08.12-.34.26c-.16.12-.26.3-.28.5l-.07.7c-.02.22.06.44.22.59l.43.41v.16s-.31.48-.31.48c-.11.17-.14.38-.09.57l.11.42-.2.41c-.13.28-.07.62.16.83l.26.24-.11.18c-.15.24-.15.54,0,.78l.11.16-.21.2c-.07.07-.12.14-.16.23l-.26.6c-.11.25-.06.54.11.74l.4.46-.38.19-.41-.15c-.29-.1-.61,0-.79.23l-.23.29-.32.19c-.16.1-.28.25-.33.44s-.02.38.08.54l.28.46c.03.06.08.11.13.15l.45.42c.05.05.11.09.17.12l.67.32c.3.15.67.06.87-.21l.07-.09.13.13c.26.26.67.28.96.04l.59-.5.23-.07.41.3c.2.14.46.17.69.08l.24-.1.22.23c.13.14.32.23.52.23h0c.2,0,.38-.08.52-.23l.48-.52.13-.02c.12-.02.22-.06.32-.13l.56-.41s.01,0,.02-.02l.48.64c.15.2.4.32.66.27l.48-.06.44.25c.19.11.42.12.62.04l.32-.13.66.22c.16.05.34.05.49-.02l.69-.29.8.1.98.3c.07.02.14.03.21.03,0,0,.01,0,.02,0l.96-.03c.33,0,.61-.24.67-.57l.15-.73.25-.53c.13-.28.07-.61-.15-.82l-.44-.42Zm-8.29.61c-.05-.04-.11-.07-.17-.1l-.49-.2-.07-.12c-.07-.11-.17-.21-.29-.27l-.59-.29c-.05-.03-.11-.05-.17-.06l-.47-.1-.32-.47.05-.47.21-.48.41-.54c.23-.3.18-.73-.11-.97l-.29-.25.33-.19c.16-.09.28-.24.33-.42l.14-.47.19-.05.23.41c.05.1.13.18.22.24l.58.39c.08.06.18.09.28.11l.35.06.07.24-.04.78c-.01.32.19.62.5.71l.62.19.3.29.11.59c.01.06.03.11.05.17v.02s-.17,0-.17,0c-.07,0-.15.02-.22.04l-.81.3c-.14.05-.26.15-.34.27l-.43.65Z"/>
    <path class="cls-1" d="m286.62,461.63l-.73-.29c-.17-.07-.36-.07-.53,0l-.65.26c-.06.02-.12.06-.17.09l-.6.46s-.07.06-.1.09l-.44.49-.53.31s-.06.04-.09.07l-.39.32-.53-.07s-.1,0-.14,0l-.73.06c-.07,0-.14.02-.21.05l-.55.22-.47-.11c-.06-.01-.1-.02-.18-.02h-.54s-.82-.58-.82-.58c-.12-.09-.27-.14-.42-.14h-.38s-.08-.54-.08-.54c-.02-.2-.12-.38-.29-.5l-.45-.33s-.06-.04-.09-.06l-.33-.17-.03-.17.14-.57c.06-.25-.02-.51-.2-.68l-.44-.42-.19-.37.08-.43.19-.46,1.83-.17.58.12c.1.02.21.02.31,0l.76-.19.45-.15.45.21c.12.05.25.08.39.06l.63-.08.64.12c.13.03.26.01.38-.04l.5-.19,1.22.27c.07.02.14.02.2.02l.72-.03c.12,0,.25-.04.35-.11l.54-.35.38.05c.22.04.44-.04.59-.2s.23-.38.2-.59l-.09-.67-.18-.67.07-.58c.02-.18-.03-.37-.14-.52l-.27-.36.06-.51c.01-.12,0-.24-.05-.35l-.26-.61c-.04-.09-.09-.17-.16-.24l-1.15-1.06s-.08-.06-.12-.09l-.43-.24-.2-.43c-.1-.2-.28-.35-.5-.39l-.43-.09-.22-.38c-.06-.09-.13-.17-.22-.23l-.59-.38c-.1-.07-.22-.1-.34-.11l-.55-.04-.5-.3c-.15-.09-.32-.12-.49-.09l-.69.12-1.64.19c-.13.01-.25.06-.35.13l-.65.47-.72.3-1.46.72s-.06.03-.08.05l-.63.46c-.14.1-.23.24-.27.41l-.15.61-.55.4c-.16.11-.26.29-.29.48l-.08.57-.52.34c-.13.08-.23.21-.28.35l-.31.86-.21.79c-.02.06-.03.13-.03.2v.88s.02.09.03.14l.12.54-.31.53c-.12.21-.13.48-.01.69l.32.6-.02.53-.18.75c-.06.24.02.5.2.67l.59.57.23.34-.06.54c-.02.16.02.31.1.45l.45.74c.07.11.16.2.28.26l.76.39.58.23.32.32.44.62c.04.06.09.11.15.16l.63.48c.06.05.13.08.2.11l.72.24c.07.02.15.04.22.04h0l1.55-.03.71.14s.08.01.12.01l1.04.03s.01,0,.02,0c.09,0,.18-.02.26-.05l.94-.37.91-.1c.09,0,.18-.04.26-.08l2.81-1.6c.07-.04.12-.09.18-.14l.69-.78c.07-.08.12-.17.15-.27l.14-.48.23-.39c.1-.18.13-.39.06-.59-.07-.2-.22-.35-.41-.43Zm-6.6-9.99l1.64,1.13.22.59c.03.08.07.15.12.21l.29.35-.1.23-.3.36-.39.38-.49.16-.45.07-.49-.21c-.08-.04-.17-.05-.27-.06h-.68s0,0,0,0c-.09,0-.19.02-.28.06l-.44.18-.45-.09c-.07-.01-.15-.02-.23,0l-.35.05-1.01-.99-.06-.21.19-.52.34-.53,1.06-1.05,1.47-.24.66.14Z"/>
    <path class="cls-1" d="m308.08,464.29c-.15-.32-.5-.49-.84-.39h-.04s-.87-.59-.87-.59l-.24-.22.06-.28c.03-.13.02-.27-.03-.4l-.17-.46.15-1.31.28-.7c.07-.17.07-.36,0-.53l-.17-.43.33-.46c.08-.11.12-.24.13-.37l.05-.8c0-.12-.02-.25-.07-.36l-.37-.73-.2-.8-.19-.51.26-.52c.11-.21.1-.47-.02-.67l-.23-.41.3-.45c.04-.05.07-.11.09-.17l.26-.8c.05-.15.05-.32,0-.46l-.18-.49.29-.45c.13-.2.15-.46.05-.68l-.44-.98c-.14-.31-.47-.47-.8-.4l-1.42.36c-.14.04-.26.12-.35.23l-.33.41-.33.08h-.58s-.78,0-.78,0l-.95.12c-.35.05-.61.34-.62.69l-.02,1.13c0,.07,0,.13.02.2l.19.71c.05.2.19.36.37.45.18.09.39.1.58.02l.11-.04v.03c.04.12.1.23.19.32l.16.16v.43c0,.12.04.23.09.34l.44.77-.21.25c-.2.25-.21.6-.03.86l.27.38-.06.17-.44.59c-.21.29-.18.68.08.93l.48.46v.08s-.34.41-.34.41c-.13.15-.19.35-.17.55l.07.61c0,.06.02.12.04.17l.27.67c.02.05.05.1.08.15l.28.4-.03.21-.35.51-.25.43s-.05.1-.07.15l-.15.49-.25.27-.92.09c-.25.01-.47.16-.59.38l-.32.6c-.13.25-.1.57.09.79l.81,1c.16.21.43.31.68.26l.59-.11.49-.04.74.25c.07.02.15.04.22.04.01,0,.03,0,.04,0l.91-.05c.1,0,.2-.03.29-.08l.66-.35.64.04c.1,0,.21-.01.31-.05l.33-.14.19.16c.2.18.49.22.74.12l.55-.23c.25-.1.42-.34.43-.61l.04-.6c0-.12-.01-.23-.06-.34l-.2-.44Z"/>
    <path class="cls-1" d="m301.3,444.3c.05.16.16.29.29.38l1.37.87c.17.11.38.14.57.08l.55-.16.38.16c.09.04.19.06.28.06.14,0,.29-.04.41-.13l.61-.43c.1-.07.18-.16.23-.27l.31-.64c.04-.08.06-.17.07-.26l.04-.7c0-.15-.03-.3-.11-.43l-.23-.36v-.58c.01-.21-.08-.42-.24-.55l-.58-.49c-.16-.14-.37-.19-.58-.16l-.69.12-.52-.08c-.27-.04-.55.08-.71.32l-.3.46-.58.24c-.15.06-.27.17-.35.31l-.46.8c-.1.17-.12.38-.06.57l.28.87Z"/>
    <path class="cls-1" d="m343.43,449.54c-.1-.3-.38-.51-.72-.48l-.93.06c-.13,0-.25.05-.35.12l-.56.39-.34-.06-.64-.37c-.07-.04-.15-.07-.24-.08l-.83-.13-.81-.03c-.09,0-.16,0-.23.03l-1.54.49c-.17.06-.3.17-.39.33l-.25.44c-.07.13-.1.28-.08.43l.09.72c.04.35.34.61.69.62h.64s.53.22.53.22l.18.13v.06s-.29.53-.29.53c-.04.06-.06.13-.08.2l-.14.63c-.03.11-.02.23,0,.34l.12.42-.12.3c-.06.14-.07.29-.04.43l.07.3-.08.05c-.12.08-.22.2-.28.34l-.22.57c-.03.07-.04.14-.05.22l-.03.53-.12.52s-.02.1-.02.15v.3s-.32.22-.32.22c-.1.07-.18.17-.23.28l-.26.55s-.08-.08-.12-.11l-.44-.3.08-.19c.11-.27.04-.57-.17-.77l-.44-.42-.04-.07.23-.37c.1-.17.13-.37.08-.56-.05-.19-.18-.35-.36-.44l-.2-.1.06-.17c.06-.16.06-.33,0-.49l-.14-.37-.14-.68c-.02-.1-.06-.19-.12-.27l-.31-.43c-.05-.06-.1-.12-.17-.17l-.12-.08.13-.18c.16-.23.17-.53.02-.77l-.04-.07.71-.47.3-.25.64-.31c.19-.09.33-.26.38-.47s0-.42-.12-.59l-.49-.65c-.09-.12-.21-.2-.34-.25l-.48-.16-.66-.34c-.12-.07-.27-.09-.41-.08l-.41.05c-.14.02-.27.07-.37.16l-.72.6-.62.16-.41-.04-.69-.56c-.22-.18-.52-.21-.77-.08l-.73.37-.58-.02c-.19-.02-.37.06-.5.19l-.33.31v-.02c.07-.25,0-.51-.18-.69-.18-.18-.45-.25-.69-.18l-1.19.34-.59.21-.54-.32c-.17-.1-.38-.12-.58-.06l-.51.17-.59-.37c-.27-.17-.62-.14-.85.07l-.62.55-.55-.07-.84-.27c-.26-.08-.55,0-.74.2-.19.2-.24.5-.13.75l.22.52-.04.39c-.02.21.05.42.21.57l.38.38c.18.18.44.25.68.18l.46-.12.47.08.27.45.06.82-.05,1.1c-.01.25.11.5.33.63l.52.33.1,1.34c.01.2.1.38.25.51l.57.47.08.33-.31.82c-.09.23-.05.49.1.68l.55.71s.08.09.13.13l.48.37.05.63-.18.79c-.05.24.02.49.2.66l.66.64.35.62-.03.54c0,.1.01.2.05.29l.25.64-.09.92c-.02.2.05.4.19.55.14.15.34.24.54.22l1.54-.04c.26,0,.5-.16.62-.4l.78-1.5c.07-.13.1-.27.08-.42l-.07-.61v-.41s.38-.31.38-.31c.15-.12.25-.3.27-.5l.05-.61.32-.42c.1-.13.15-.29.15-.46l-.02-.61.79-1.15c.05-.07.09-.15.11-.23l.26-.94c.02-.06.02-.12.03-.18.01.02.03.03.04.04l.18.17-.15.67c-.03.13-.02.28.03.41l.25.67c.03.09.08.17.14.23l.5.54.33.57s.06.08.09.12l.29.32-.08.51c-.03.23.05.46.22.62l.29.27-.13.42c-.03.09-.04.18-.03.27l.06.74c0,.08.03.17.07.25l.29.6.17.95c.03.19.15.36.31.47.12.08.25.12.39.12.05,0,.11,0,.16-.02l1.27-.3c.25-.06.44-.24.51-.48l.26-.87.37-.69c.06-.11.08-.22.08-.34v-.79s.25-.6.25-.6l1.42-2.25c.11-.18.13-.39.07-.59l-.19-.58.42-.39c.17-.16.25-.38.22-.61l-.06-.46.42-.21c.18-.09.31-.25.36-.44l.27-1,.22-.65c.02-.06.03-.12.04-.19l.05-.93-.02-.52.56-.48c.17-.15.27-.38.24-.6l-.08-.8.15-.16.45.04c.24.02.47-.07.62-.26l.38-.46.08-.04c.06-.03.12-.07.18-.11l.68-.6c.22-.19.3-.49.2-.76l-.3-.87Zm-16.77,2.45c.05-.07.1-.15.12-.24.08.13.21.23.35.28l.68.25c.18.07.38.06.55-.02l.34-.16.08.04-.1.64c-.02.14,0,.28.05.4l.2.45c.04.1.11.19.2.25l-.22.38c-.1.17-.12.37-.07.55l.14.49-.5.42c-.17.13-.28.33-.29.54l-.02.42-.2.37c-.05.08-.08.17-.08.27l-.06.59c0,.09,0,.18.02.27l-.25.05c-.2.04-.36.17-.46.34l-.09.15c-.05-.18-.18-.34-.36-.43l-.26-.13.05-.15c.09-.28,0-.58-.22-.77l-.14-.12.13-.29c.04-.09.06-.18.06-.27l.02-.56c0-.27-.14-.52-.38-.65l-.68-.36-.22-.27-.06-.44.07-.51c.03-.23-.05-.45-.22-.61l-.29-.28.08-.56.18-.24.04.02c.1.06.22.1.34.11l.88.04c.23,0,.45-.09.59-.27Zm4.08,5.99s-.01.09-.02.14l-.14-.16.21-.25-.06.27Z"/>
    <path class="cls-1" d="m367.38,463.57c-.11-.19-.3-.31-.52-.34l-.65-.08c-.11-.01-.22,0-.33.04l.09-.16c.08-.15.11-.32.08-.49l-.14-.75c-.02-.09-.05-.18-.1-.26l-.27-.4.44-1.38c.06-.19.04-.39-.05-.56l-.27-.51-.12-.35.18-.81c.01-.06.02-.11.02-.17l-.02-.91.31-.95c.03-.09.04-.18.03-.27l-.14-1.66.12-.72c.03-.16,0-.33-.08-.47l-.4-.7-.35-.46-.12-.55c-.04-.19-.15-.35-.31-.45l-.5-.32-.42-.45c-.12-.13-.28-.21-.46-.22l-.54-.05-1.11-.58c-.08-.04-.17-.07-.26-.07l-.66-.06c-.19-.02-.37.04-.51.16l-.48.4h-.66s-1.01.11-1.01.11l-.87.17-1.08.13c-.15.02-.29.08-.4.18l-.65.59-.88.31c-.15.05-.27.15-.36.28l-.58.88c-.09.13-.13.29-.12.45l.09,1c0,.06.02.12.04.18l.21.58c.06.16.17.3.33.38l.27.15.28.41c.17.25.5.37.79.28l.29-.09.59.13c.15.03.3.02.44-.04l.69-.31c.16-.07.29-.2.36-.36l.26-.59.49-.53c.08-.08.13-.19.16-.3l.16-.57.2-.39,1.21-.53.29.03.3.19.44.49.13.69c.03.15.1.28.21.39l.12.12-.06.11c-.08.16-.1.34-.06.51l.18.68-.33.3-.52.3-.6.19c-.05.02-.1.04-.15.07l-.62.37s-.08.05-.11.08l-.17.15-.29-.08c-.29-.07-.58.03-.75.27l-.24.32-.18.04-.58-.05c-.3-.04-.57.12-.7.39l-.25.5-.17.13-.49.02c-.2,0-.39.1-.52.26l-.45.56-.31.5c-.03.06-.06.12-.08.18l-.12.42-.15.18-.46.34c-.06.05-.12.11-.16.17l-.36.53c-.06.08-.1.18-.11.28l-.09.52c-.02.09-.01.19,0,.28l.16.66.23.72.1.73c0,.07.03.13.06.2l.32.7c.05.12.14.22.25.3l.51.34.44.54c.07.09.16.16.27.2l1.58.66.82.25c.07.02.13.03.2.03.03,0,.05,0,.08,0l.74-.09c.11-.01.21-.05.3-.11l.58-.37.56-.18c.12-.04.23-.11.32-.21l.35-.41.83-.21.4-.15.33.05.39.19.47.3.18.34c.1.18.27.31.47.36l.64.15c.16.04.32.02.47-.05l.69-.34.74-.18c.13-.03.26-.1.35-.2l.53-.56s.04-.04.06-.07l.49-.67c.17-.23.18-.54.04-.78l-.27-.46Zm-9.31-.2l-.51-.14-.28-.43-.25-.6.24-.63.46-.84.78-1.21.38-.26.6-.09c.06,0,.12-.03.18-.06l.83-.38s.07-.04.11-.06l.5-.35.35.08.21.29-.17.29c-.1.18-.12.39-.06.58l.2.6.07.57-.06.63-.14.58c-.01.05-.02.11-.02.17v.35l-.48.41-.71.4-.75.22-1.51-.14Z"/>
  </g>
  <g>
    <polygon class="cls-1" points="369.44 207.8 370 206.41 368.5 206.74 369.05 205.31 368.38 204.93 367.94 204.35 367.04 204.2 366.69 203.54 366.54 202.68 365.94 202.25 364.53 202.65 364.56 201.6 363.65 201.52 363.68 200.44 362.54 200.62 362.66 199.41 362.42 198.59 361.7 198.31 360.66 198.43 359.85 198.28 360.3 196.59 359.18 196.84 358.72 196.26 357.81 196.26 357.35 195.68 357.35 194.47 356.13 194.93 355.71 194.28 355.33 193.57 354.78 193.08 354.03 192.91 352.94 193.26 352.89 192.02 352.62 191.08 351.31 191.82 351 190.96 350.75 189.97 350.13 189.6 349.07 189.98 348.06 190.31 347.39 190.04 346.86 189.53 346.58 188.54 345.58 188.89 345.29 187.9 344.38 188.1 343.78 187.69 343.6 186.43 342.57 186.92 342.34 185.7 341.53 185.74 340.5 186.27 339.87 185.93 339.62 184.69 338.83 184.7 338.4 183.87 337.26 184.73 336.97 183.53 336.06 183.87 335.5 183.32 334.8 183.14 333.99 183.25 333.56 182.32 332.94 181.9 332.05 182.24 331.15 182.68 330.71 181.72 329.94 181.75 329.55 180.61 328.72 180.85 327.94 180.93 327.07 181.31 326.35 181.21 325.63 181.15 325.16 180.16 324.54 179.71 323.77 179.78 322.88 180.35 322.35 179.52 321.51 179.92 320.84 179.62 320.15 179.43 319.78 177.88 318.99 178.04 318.03 179.05 317.31 178.97 316.91 177.42 316.1 177.76 315.51 177.01 314.73 177.23 313.97 177.39 313.19 177.53 312.47 177.42 311.88 176.53 311.19 176.16 310.37 176.59 309.6 176.76 308.91 176.41 308.26 175.76 307.34 176.99 306.61 176.96 305.93 176.5 305.19 176.5 304.41 176.84 303.75 176.23 303 176.27 302.23 176.58 301.55 176.05 300.39 174.9 300.57 176.32 300.17 176.92 300.11 177.69 298.93 177.82 299.02 178.7 299.04 179.59 298.65 180.22 297.44 180.1 297.67 181.32 297.22 181.93 296.06 181.65 296.22 183.07 294.98 182.55 294.48 183.08 294.22 184.13 293.49 184.34 292.68 184.31 291.86 184.16 291.38 185.08 290.37 183.94 289.94 185.43 288.76 184.72 288.7 185.8 289.82 186.4 289.82 187.19 289.26 187.97 289.5 188.73 289.1 189.45 290.2 190.37 288.59 190.8 289.18 191.64 289.47 192.48 288.32 192.84 288.26 193.56 288.42 194.41 287.15 194.54 287.3 195.41 287.26 196.22 287.17 197.06 286 197.03 286.29 198.25 285.52 198.52 284.9 198.9 283.83 198.71 283.22 199.03 282.78 199.65 282.77 201.09 282.02 201.36 280.66 200.22 280.03 200.53 279.49 201.14 278.72 201.02 278.1 201.52 277.38 201.59 276.76 202.56 276.01 202.83 275.23 202.01 274.5 202.81 273.88 201.71 273.19 201.73 272.5 201.71 271.93 201.14 270.99 201.93 270.57 201.83 269.95 201.99 270.02 202.94 268.7 202.84 268.09 203.24 267.97 204.08 268.21 205.4 266.78 204.87 267.06 206.43 266.43 206.86 265.06 206.05 265.03 207.5 264.22 207.57 263.06 206.66 262.49 207.11 261.94 207.71 261.13 207.98 261.05 208.84 261.42 209.55 261.69 210.26 261.66 210.98 260.94 211.7 261.57 212.41 261.01 213.13 262.17 213.83 261.53 214.55 260.97 215.27 260.64 215.99 260.71 216.7 262.12 217.41 260.88 218.13 261.24 218.85 260.59 219.57 260.51 220.28 261.57 220.99 260.83 221.71 260.77 222.43 260.49 223.14 262.25 223.85 262.28 224.56 260.94 225.28 261.23 225.99 261.34 226.71 261.79 227.42 261.96 228.14 262.2 228.85 261.81 229.57 261.48 230.28 261.5 231 262.19 231.71 261.76 232.43 261.73 233.15 261.21 233.87 260.9 234.59 261.85 235.3 261.98 236.01 261.98 236.73 261.61 237.45 260.81 238.17 261.64 238.88 261.96 239.6 261.59 240.32 261.51 241.04 261.09 241.76 260.68 242.48 261.25 243.2 260.85 243.92 261.48 244.63 260.68 245.36 260.75 246.08 261.97 246.79 261.55 247.51 260.94 248.24 262.34 248.95 262.25 249.67 261.14 250.4 262.38 251.11 261.7 251.83 261.14 252.56 262.15 253.27 261.59 253.99 260.84 254.72 260.87 255.44 260.67 256.16 262.2 256.87 262.37 257.59 261.12 258.32 262.21 259.03 261.99 259.75 261.78 260.47 261.94 261.19 261.71 261.92 261.35 262.64 262.05 263.36 261.57 264.08 261.69 264.8 261.95 265.52 262.43 266.24 261.82 266.96 260.97 267.69 261.74 268.4 262.23 269.12 262.17 269.84 262.47 270.56 261.85 271.28 261.68 272.01 262.33 272.72 261.05 273.45 260.84 274.17 261.28 274.89 261.84 275.61 261.76 276.33 261.14 277.05 261.59 277.77 261.92 278.49 260.82 279.22 261.06 279.93 261.03 280.65 261.71 281.37 261.03 282.09 260.8 282.82 261.1 283.53 261.48 284.25 261.34 284.97 261.5 285.69 261.96 286.41 261.14 287.13 261.63 287.85 262.22 288.56 261.61 289.28 261.39 290 261.98 290.72 262.46 291.43 261.23 292.16 261.15 292.87 261.56 293.59 261.13 294.31 261.13 295.02 262.31 295.73 261.47 296.45 261.12 297.17 260.88 297.89 260.88 298.6 262.42 299.31 261.36 300.03 262.12 300.74 260.92 301.47 261.64 302.18 261.92 302.9 260.96 303.62 261.49 304.33 261.18 305.05 261.96 305.76 262.47 306.47 261.98 307.19 261.71 307.9 261.96 308.61 260.97 309.32 261.28 310.04 261.14 310.74 262.41 311.64 261.72 312.38 261.29 313.04 262.21 312.81 262.45 313.81 263.36 313.69 263.67 314.58 264.6 314.4 264.68 315.75 265.22 316.28 265.91 316.53 266.6 316.78 267.62 316.38 268.05 317.13 268.68 317.48 269.72 316.99 269.85 318.42 270.9 317.86 271.13 319.12 271.94 319.08 272.88 318.72 273.46 319.19 273.8 320.3 274.67 320.06 275.28 320.49 276.11 320.35 276.97 320.08 277.23 321.51 278.43 320.26 278.77 321.52 279.6 321.28 280.26 321.57 280.79 322.32 281.52 322.41 282.34 322.18 282.85 323.06 283.47 323.54 284.54 322.31 285.21 322.57 285.62 323.98 286.62 322.82 287.23 323.4 287.83 324.1 288.6 323.93 289.22 324.54 290.08 323.84 290.89 323.38 291.46 324.38 292.06 325.21 292.87 324.68 293.65 324.32 294.24 325.38 295.01 325.11 295.71 325.31 296.49 324.84 297.13 325.8 297.92 324.98 298.69 324.29 299.35 325.26 300.1 324.82 300.82 324.64 301.53 324.82 302.22 325.98 302.97 324.79 303.68 325.97 304.4 324.77 305.12 324.66 305.86 325.76 306.57 325.27 307.31 325.79 307.99 324.74 308.79 326.14 309.51 325.97 310.21 325.59 310.86 324.59 311.64 325.27 312.29 324.52 312.99 324.33 313.7 324.21 314.45 324.39 315.31 325.38 316.01 325.16 316.58 324.05 317.23 323.58 318 323.82 318.8 324.2 319.54 324.25 320.16 323.66 320.76 323.01 321.62 323.59 322.45 323.98 323.11 323.58 323.56 322.41 324.63 323.66 324.93 321.96 325.75 322.23 326.55 322.41 327.3 322.42 327.73 321.34 328.72 322.09 329.38 321.77 329.93 321.12 330.53 320.64 331.45 321.09 331.93 320.28 332.52 319.82 333.56 320.52 334.01 319.67 334.66 319.36 335.4 319.26 336.13 319.13 336.87 319.01 337.03 317.59 338.28 318.58 339 318.41 339 316.75 340.21 317.57 340.3 316.13 341.49 316.86 341.48 315.31 342.76 316.17 343.51 316.01 343.95 315.31 344 313.94 344.8 313.9 345.64 313.91 346.2 313.44 346.62 312.74 347.32 312.5 348.48 312.97 348.48 311.64 349.22 311.46 349.57 310.69 350.04 310.11 351.48 310.9 351.67 309.92 351.78 308.86 352.46 308.58 352.89 307.96 353.56 307.67 355.03 308.36 354.8 306.93 355.7 306.89 355.8 305.89 357.11 306.32 356.83 304.9 357.65 304.75 358 304.07 358.95 304.04 359.84 303.92 359.67 302.7 360.65 302.68 360.91 301.92 361.67 301.66 361.86 300.84 362.44 300.39 362.61 299.57 363.67 299.57 364.02 298.92 363.82 297.78 364.93 297.8 364.82 296.75 366.27 297.04 366.59 296.36 367.4 296.09 367.4 295.15 367.79 294.54 368.5 294.18 368.7 293.43 368.85 292.63 368.93 291.8 369.26 291.16 370.78 291.35 370.31 290.15 370.74 289.57 371.97 289.53 372.21 288.82 372.87 288.38 372.61 287.36 372.52 286.46 373.3 286.09 373.71 285.5 373.49 284.54 374.18 284.11 374.75 283.61 374.71 282.77 375.35 282.3 376.46 282.06 376.43 281.23 376.87 280.64 377.19 279.99 376.8 279 378.19 278.86 377.92 277.94 377.81 277.1 378.02 276.41 379.39 276.2 379.19 275.34 379.49 274.68 378.88 273.66 378.86 272.89 380.62 272.78 380.48 271.96 380.68 271.26 380.14 270.32 380.21 269.59 381.74 269.32 381.03 268.34 381.95 267.87 381.71 267.05 381.71 266.3 382.19 265.68 381.9 264.86 381.96 264.14 383.05 263.66 382.2 262.73 382.68 262.1 383.75 261.58 382.43 260.59 383.89 260.13 384.12 259.43 383.31 258.57 383.98 257.94 383.8 257.18 384.13 256.5 384.13 255.77 383.9 255.02 384.17 254.33 384.77 253.65 383.46 252.82 385.07 252.22 384.12 251.44 384.25 250.72 384.17 250 385.13 249.31 384.53 248.57 384.64 247.85 384.55 247.13 384.91 246.4 383.93 245.7 385.19 244.94 385.1 244.21 383.44 243.59 384.03 242.83 384.26 242.09 384.25 241.37 383.44 240.73 383.9 239.95 384.65 239.13 384.35 238.44 384.05 237.75 383.24 237.15 384.08 236.27 383.24 235.69 383.23 234.96 382.66 234.35 383.27 233.47 383.53 232.67 382.37 232.2 381.78 231.62 382.7 230.62 382.65 229.88 381.63 229.43 380.91 228.9 380.85 228.17 380.81 227.43 380.22 226.88 380.04 226.18 380.26 225.34 380.49 224.48 380.42 223.72 379.01 223.52 379.47 222.55 378.24 222.31 378.38 221.47 378.04 220.84 377.84 220.15 377.51 219.51 377.78 218.57 377.06 218.13 376.22 217.77 377.16 216.44 376.31 216.08 375.06 215.98 375.12 215.12 374.76 214.5 375.32 213.3 374.02 213.28 374.04 212.41 373.51 211.89 373.39 211.1 372.89 210.57 372.86 209.7 372.04 209.41 371.75 208.72 370.59 208.71 371.08 207.4 369.44 207.8"/>
    <polygon class="cls-1" points="251.08 206.36 249.74 206.57 249.74 205.31 248.36 205.88 248.35 204.76 247.31 204.76 247.85 203.26 246.47 203.48 245.98 202.91 246.11 201.93 245.18 201.64 244.77 201 244.86 200.61 244.33 200.34 243.64 200.59 243 200.93 242.61 201.95 241.52 201.08 241.07 202.14 240.17 201.48 239.46 201.58 238.82 202.22 238.09 202.43 237.35 202.54 236.64 201.68 235.86 202.35 235.18 201.89 234.38 202.17 233.79 201.45 232.8 202.2 232.16 201.7 231.56 201.18 231.19 200.26 230.5 200.04 230 199.5 229.16 199.46 228.59 199.06 227.43 199.34 227.37 198.33 227.06 197.66 226.14 197.52 225.54 197.08 226.02 195.85 225.54 195.36 225.25 194.73 224.61 194.29 224.47 193.59 224.39 192.88 223.41 192.48 222.77 191.9 223.23 191.05 223.9 190.22 223.41 189.49 222.27 188.73 222.38 188.4 222.24 188.27 221.9 186.93 221.07 187.12 220.31 187.05 219.56 186.9 219.5 185.55 218.38 185.99 217.76 185.6 217.52 184.73 217.05 184.2 216.14 184.11 215.43 183.77 215.31 182.9 214.16 182.85 213.95 182.07 214.67 180.78 213.97 180.37 213.47 179.82 213.08 179.2 212.54 178.66 211.91 178.11 212.7 177.19 212.36 176.57 212.71 175.24 211.42 175.26 210.82 176.35 210.14 176.62 209.36 176.05 208.7 176.51 207.88 175.64 207.15 175.57 206.56 176.64 205.92 177.22 205.07 176.15 204.34 176.1 203.69 176.59 203.05 177.17 202.43 177.85 201.61 177.14 200.87 177.02 200.32 178.08 199.52 177.6 198.94 178.46 198.14 177.97 197.44 178.1 196.76 178.34 196.14 178.9 195.35 178.49 194.55 178.08 193.98 178.91 193.25 178.85 192.56 179.05 191.98 179.75 190.97 178.35 190.26 178.43 189.84 179.88 189.11 179.86 188.4 179.93 187.51 179.18 187.05 180.39 186.05 179.26 185.35 179.43 184.9 180.62 184.13 180.48 183.53 181.03 182.73 180.79 182.14 181.36 181.46 181.57 180.47 180.77 180.03 181.79 179.14 181.33 178.4 181.41 178.1 182.82 177.48 183.19 176.47 182.46 175.91 183.03 175.08 182.83 174.54 183.46 174.18 184.53 173.32 184.29 172.69 184.62 171.74 184.19 170.95 184.17 170.7 185.43 170.01 185.62 169.39 185.99 168.92 186.68 167.98 186.36 167.09 186.14 166.51 186.6 165.75 186.7 165.11 187.03 164.73 187.87 164.52 188.99 163.72 189.02 162.55 188.37 162.26 189.32 161.78 189.92 161 190.01 160.23 190.13 159.75 190.72 159.2 191.18 158.28 191.08 157.69 191.51 157.47 192.46 156.77 192.71 156.45 193.5 155.81 193.83 154.69 193.51 155 195.12 153.57 194.42 153.58 195.61 152.94 195.95 151.75 195.63 151.18 196.08 151.66 197.73 150.68 197.7 149.78 197.76 149.6 198.64 148.79 198.82 148.91 199.98 148.21 200.27 147.16 200.24 147.59 201.66 146.93 202.01 146.44 202.52 145.5 202.63 145.17 203.29 145.2 204.26 144.08 204.24 144.04 205.14 142.77 205.03 142.17 205.48 142.73 206.82 141.62 206.88 141.84 207.93 140.87 208.12 140.68 208.87 139.78 209.13 140.05 210.17 139.17 210.46 138.9 211.15 138.41 211.7 137.65 212.09 138.68 213.52 136.96 213.38 137.22 214.35 137.29 215.2 136.62 215.66 136.07 216.19 136.33 217.12 136.21 217.86 134.98 218.07 135.42 219.06 134.88 219.61 134.59 220.27 134.76 221.11 134.36 221.72 134.25 222.44 132.85 222.68 133.73 223.77 132.08 223.96 132 224.7 133.15 225.83 132.97 226.52 131.8 226.92 131.32 227.53 130.8 228.14 131.31 229.03 131.62 229.85 130.27 230.26 131.21 231.22 130.37 231.77 131.29 232.7 131.21 233.41 129.94 233.9 130.45 234.73 130.64 235.48 130.34 236.16 129.39 236.75 130.5 237.63 129.98 238.28 129.1 238.9 129.02 239.62 129.46 240.39 128.6 241.04 129.91 241.87 128.84 242.52 128.4 243.22 128.46 243.95 128.32 244.67 129.47 245.43 128.77 246.13 128.46 246.86 129.36 247.58 128.44 248.31 129.75 249 129.13 249.74 129.43 250.45 129.7 251.15 128.91 251.92 129.12 252.63 128.74 253.38 130.24 253.98 129.36 254.78 130.13 255.42 129.84 256.18 129.38 256.96 130.55 257.53 129.72 258.37 130.29 259.01 130.08 259.78 131.03 260.34 131.08 261.06 130.94 261.81 131.26 262.48 131.16 263.23 131.54 263.88 130.49 264.86 130.67 265.57 131.72 266.05 131.14 266.94 131.15 267.69 131.63 268.31 132.6 268.78 132.11 269.68 133.56 269.98 132.52 271.07 132.9 271.71 133.28 272.35 133.33 273.1 133.2 273.92 134.64 274.15 134.52 274.97 135.39 275.39 135.05 276.31 135.84 276.76 135.74 277.58 136.6 277.99 136.03 279.03 135.99 279.85 136.81 280.26 137.29 280.82 137.05 281.75 137.63 282.27 138.61 282.57 139.11 283.11 138.63 284.19 138.62 285.02 139.84 285.16 139.13 286.41 139.65 286.95 140.69 287.16 141.06 287.78 140.76 288.83 141.52 289.2 142.3 289.56 142.58 290.23 142.71 291.02 143.66 291.24 144.19 291.74 144.44 292.44 143.93 293.72 145.08 293.76 144.79 294.9 146.48 294.49 146.13 295.69 146.82 296.06 147.35 296.56 147.11 297.71 148.54 297.43 148.74 298.21 149.17 298.8 150.1 298.92 150.49 299.54 150.86 300.17 150.92 301.12 151.98 301.08 152.56 301.52 152.54 302.56 153.72 302.39 153.7 303.44 153.6 304.61 154.67 304.52 155.73 304.42 155.4 305.88 156.34 305.9 156.52 306.8 157.1 307.25 158.39 306.81 158.62 307.67 159.59 307.61 159.64 308.71 159.73 309.78 161.07 309.21 161.04 310.46 161.97 310.42 162.91 310.34 163.62 310.58 164.05 311.21 164.16 312.35 165.39 311.8 165.76 312.55 166.5 312.71 167.14 313.05 167.36 314.08 168.07 314.29 168.59 314.84 168.99 315.61 170.26 314.81 170.3 316.24 171.13 316.23 172.2 315.74 172.27 317.18 173.26 316.82 174.02 316.9 174.1 318.41 175.27 317.63 175.62 318.59 176.75 317.83 177.11 318.8 177.77 319.1 178.59 319 179.4 318.91 179.51 320.59 180.19 320.85 180.87 321.13 181.59 321.25 182.59 320.6 182.97 321.74 183.91 321.2 184.29 322.37 185.17 321.99 185.71 322.7 186.55 322.43 187.41 322.02 188 322.59 188.89 322.06 189.53 322.44 189.89 324 190.62 324.09 191.48 323.59 192.32 323.11 192.87 323.98 193.58 324.13 194.37 323.83 194.97 324.63 195.88 323.53 196.46 324.5 197.14 324.84 197.98 324.01 198.61 324.71 199.26 325.36 200.09 324.5 200.81 324.49 201.4 325.89 202.21 325.01 202.85 326.04 203.6 325.85 204.36 325.35 205.1 324.84 205.82 324.97 206.5 326.2 207.23 325.94 207.96 325.7 208.69 324.73 209.41 324.93 210.13 325.55 210.86 325.76 211.55 324.57 212.31 325.65 213.04 325.82 213.76 325.61 214.51 325.89 215.15 324.84 215.83 324.34 216.53 324.12 217.38 325.36 218.02 324.59 218.74 324.59 219.53 325.05 220.27 325.12 220.94 324.65 221.75 325.19 222.2 323.45 223.14 324.67 223.62 323.24 224.6 324.55 225.27 324.2 225.77 323.05 226.49 323.01 227.44 323.94 227.85 322.52 228.62 322.66 229.53 323.28 229.99 322.19 231.02 323.21 231.53 322.35 232.16 321.93 233.05 322.37 233.82 322.39 234.27 321.45 235.18 321.87 235.68 321.08 236.18 320.33 236.93 320.31 237.52 319.83 238.11 319.34 238.9 319.4 239.83 319.78 240.53 319.57 241.09 319.03 241.64 318.47 242.15 317.85 243.11 318.23 243.88 318.17 243.95 316.63 245.02 317.18 245.89 317.29 246.47 316.83 246.9 316.1 247.23 315.18 247.8 314.74 248.5 314.52 249.38 314.61 250.42 314.96 250.37 313.45 251.47 313.88 252.07 313.15 252.06 312.25 251.27 311.7 250.76 310.95 250.5 310.24 251.81 309.51 251 308.8 250.46 308.08 250.6 307.37 251.06 306.65 250.7 305.93 251.46 305.21 251.38 304.49 251.56 303.78 250.81 303.06 250.94 302.35 250.65 301.63 251.47 300.91 250.57 300.2 250.61 299.48 251.41 298.76 251.58 298.04 250.98 297.32 252.04 296.6 251.77 295.88 251.4 295.17 251.28 294.45 251.4 293.73 251.19 293.01 251.37 292.29 250.55 291.57 251.8 290.85 250.32 290.14 250.56 289.41 250.8 288.69 251.01 287.97 250.99 287.25 250.85 286.53 251.51 285.8 251.62 285.08 251.41 284.37 251.41 283.65 251.88 282.93 251.42 282.21 250.46 281.5 252.03 280.77 250.7 280.06 250.26 279.34 250.61 278.62 250.43 277.9 251.08 277.18 251.01 276.46 251.84 275.74 250.67 275.03 251.13 274.3 251.13 273.58 251.33 272.86 251.57 272.14 250.93 271.42 251.3 270.7 250.2 269.98 251.84 269.25 251.67 268.53 250.43 267.82 251.47 267.09 251.76 266.37 250.36 265.66 251.73 264.93 250.6 264.22 250.36 263.5 250.76 262.78 251.16 262.06 251.35 261.33 250.29 260.62 251 259.9 250.56 259.18 250.7 258.46 251.3 257.73 251.72 257.01 250.89 256.29 250.73 255.57 251.77 254.84 250.73 254.13 251.71 253.4 250.27 252.69 251.75 251.97 251.73 251.25 251.64 250.53 250.87 249.82 251.81 249.09 251.39 248.37 250.91 247.65 251.33 246.93 250.14 246.22 250.26 245.49 250.82 244.77 251.08 244.05 250.23 243.34 250.02 242.62 251.09 241.9 251.01 241.18 250.87 240.46 250.15 239.75 250.7 239.02 250.42 238.31 250.69 237.59 251.52 236.86 251.56 236.14 250.29 235.42 251.62 234.69 251.25 233.97 250.64 233.25 250.87 232.53 250.14 231.81 250.52 231.09 250.52 230.37 249.94 229.65 251.18 228.92 251.03 228.2 250.77 227.48 251.46 226.75 250.48 226.03 250.71 225.31 251.67 224.58 251.61 223.86 250.62 223.14 250.39 222.41 250.9 221.69 251.03 220.96 251.23 220.24 251.64 219.52 250.09 218.81 251.62 218.08 249.91 217.36 250.15 216.64 250.22 215.91 250.78 215.19 249.96 214.47 251.5 213.73 251.02 213.01 250.51 212.29 250.46 211.56 251.06 210.83 251.12 210.1 251.29 209.38 250.64 208.65 251.4 207.92 249.92 207 251.08 206.36"/>
    <polygon class="cls-1" points="215.97 164.36 216.05 163.63 216.46 162.79 215.97 162.28 215.45 161.79 214.68 161.5 214.42 160.79 214.31 160 212.92 159.99 212.82 159.19 212.96 158.3 212.34 157.76 212.68 156.88 212.18 156.27 211.79 155.62 212.3 154.79 210.82 154.24 210.95 153.45 211.22 152.69 210.76 151.91 211.12 151.16 211.55 150.46 211.92 149.79 212.04 149.06 212.85 148.55 212.95 147.84 212.36 146.8 213.71 146.65 213.19 145.55 213.22 144.68 214.63 144.76 214.64 143.87 215.17 143.36 215.49 142.64 215.68 141.75 216.59 141.65 217.44 141.56 218.28 141.54 218.17 139.96 219.19 140.26 219.7 139.62 220.71 140.15 220.99 138.77 221.31 138.71 221.94 138.28 221.07 137.44 221.47 136.63 222.82 136.11 221.91 135.25 222 134.53 222.03 133.79 222.83 133.32 223.18 132.71 223.49 132.1 223.54 131.34 223.29 130.36 224.69 130.43 225.07 129.86 225.34 129.21 225.84 128.73 226.06 127.98 227.08 128.06 227.19 127.13 227.42 126.22 228.56 126.61 228.65 125.37 229.96 126.28 230.32 125.25 229.66 124.75 229.74 123.78 229.03 123.42 227.93 123.37 228.11 122.3 228.08 121.39 227.56 120.87 227.01 120.39 225.68 120.57 225.62 119.67 224.68 119.54 225.17 118.14 224.02 118.19 224.04 117.2 223 117.18 222.72 116.45 222.12 116.03 221.42 115.7 221.33 114.78 221 114.1 220.48 113.59 220.17 112.88 218.93 113.09 218.94 112.06 218.75 111.21 217.54 111.41 217.79 110.12 216.86 110.03 215.94 109.95 215.53 109.33 215.4 108.41 214.5 108.31 213.93 107.86 213.05 107.76 213.28 106.42 212.38 106.34 212.07 105.6 211.72 104.9 210.83 104.82 210.01 104.66 210.09 103.46 208.71 103.96 208.61 102.95 208.33 102.16 207.93 101.5 207.22 101.22 206.24 101.29 205.79 100.68 204.97 100.55 205.21 99.09 204.29 99.09 203.75 98.6 202.95 98.45 201.98 98.52 201.98 97.34 201.33 96.99 201.12 96.06 200.56 95.6 199.43 95.92 199.43 94.69 198.64 94.54 197.98 94.23 197.37 93.83 196.5 93.81 196.36 92.75 195.63 92.53 195.11 92.02 193.95 92.42 193.72 91.48 192.93 91.36 192.69 90.42 191.58 90.78 191.46 89.66 191.03 89 189.97 89.3 189.52 88.67 188.72 88.58 187.95 88.46 187.48 87.86 187.13 87.07 186.77 86.29 185.39 87.12 185.05 86.29 184.21 86.28 183.9 85.4 182.95 85.58 182.92 84.23 181.99 84.38 181.48 83.82 180.74 83.68 180.28 83.05 179.24 83.41 178.77 82.81 178.07 82.58 177.58 82 176.81 81.9 176.91 80.31 176.08 80.32 175.31 80.22 174.93 79.51 174.72 79.38 174.27 78.67 173.46 79.29 172.71 78.97 171.98 78.99 171.38 80.22 170.6 79.67 169.97 80.42 169.18 79.94 168.5 80.23 167.8 80.41 167.11 80.65 166.19 79.45 165.68 80.74 164.82 80.03 164.14 80.36 163.56 81.14 162.67 80.38 162.09 81.1 161.45 81.56 160.65 81.3 160.13 82.19 159.14 81.18 158.65 82.16 157.71 81.45 157.35 82.85 156.7 83.17 155.87 82.89 155.07 82.73 154.23 82.49 153.85 83.64 153.24 84.08 152.56 84.3 151.41 83.25 150.91 83.98 150.6 85.17 149.55 84.47 149 85.04 148.2 84.99 147.69 85.65 146.75 85.29 146.2 85.84 145.99 87.12 145.09 86.88 144.27 86.84 143.81 87.53 143.12 87.78 142.33 87.81 141.67 88.11 141.04 88.45 140.43 88.86 139.92 89.42 139.2 89.62 138.63 90.07 138.39 91.07 137 90.17 136.93 91.43 136.08 91.43 135.52 91.9 135.3 92.88 134.38 92.79 134.17 93.76 133.59 94.17 132.91 94.46 131.87 94.25 130.98 94.26 131.09 95.61 130.09 95.49 130.08 96.64 129.46 97.01 129.13 97.74 127.54 96.94 127.79 98.37 126.67 98.17 126.86 99.48 126.22 99.83 125.54 100.16 124.83 100.44 123.88 100.48 123.86 101.51 123.63 102.31 122.44 102.12 122.22 102.92 121.41 103.14 121.37 104.1 120.96 104.7 120.81 105.53 120.24 105.98 118.93 105.78 119.21 106.98 118.08 106.96 117.39 107.32 117.48 108.33 117.26 109.08 116.41 109.32 116.17 110.05 115.2 110.21 115.17 111.1 114.79 111.71 114.55 112.42 113.73 112.72 113.94 113.75 112.86 113.88 112.83 114.72 112.9 115.63 112.55 116.25 111.48 116.42 111.5 117.28 110.18 117.33 110.8 118.53 109.7 118.72 109.39 119.38 109.72 120.39 109.24 120.94 109.2 121.74 107.9 121.87 108.48 122.97 107.31 123.19 107.03 123.86 107.4 124.84 106.98 125.43 106.38 125.95 106.73 126.89 105.28 127.05 105.2 127.8 105.95 128.89 104.56 129.11 104.03 129.68 104.73 130.72 104 131.23 104.17 132.05 103.27 132.51 103.77 133.44 103.74 134.18 102.94 134.68 103.36 135.56 102.93 136.18 102.25 136.73 101.95 137.4 101.82 138.11 102.22 138.95 101.95 139.63 101.47 140.25 102.09 141.13 100.71 141.56 101.48 142.45 100.57 143.01 100.73 143.77 101.24 144.59 101.06 145.28 99.89 145.83 99.81 146.55 99.87 147.28 100.83 148.13 99.67 148.71 99.38 149.41 99.5 150.15 100.13 150.93 99.68 151.61 99.17 152.3 99.79 153.06 100.35 153.81 99.77 154.5 99.9 155.22 99.54 155.93 99.86 156.65 99.75 157.36 99.26 158.08 99.62 158.8 100.04 159.51 100.18 160.22 99.08 160.98 99.96 161.66 99.27 162.42 99.82 163.1 99.08 163.88 100.09 164.52 100.74 165.18 99.49 166.03 100.2 166.67 100.07 167.41 100.78 168.04 99.76 168.91 101.26 169.41 101.28 170.12 100.26 171.03 100.53 171.71 100.36 172.48 100.77 173.13 100.71 173.89 101.72 174.4 101.18 175.26 101.55 175.91 101.29 176.72 101.38 177.45 102.73 177.83 103.02 178.49 102.96 179.25 103.39 179.87 102.56 180.87 103.85 181.22 102.95 182.27 103.91 182.71 104.38 183.3 104.22 184.12 105.1 184.55 105.4 185.2 105.35 185.99 105.35 186.76 105.81 187.34 105.46 188.27 105.63 188.98 106.83 189.24 107.5 189.71 106.74 190.86 107.14 191.47 107.36 192.16 107.46 192.92 109.04 192.91 109.39 193.53 108.86 194.62 109.65 195.01 109.03 196.18 110.68 196.06 110.12 197.22 110.59 197.78 111.15 198.27 112.1 198.53 112.46 199.14 112.92 199.69 112.41 200.88 113.3 201.15 113.57 201.83 114.42 202.11 114.82 202.69 114.48 203.83 115.41 204.03 116.13 204.38 115.82 205.52 116.01 206.29 117.45 206.06 117.35 207.06 118.36 207.15 118.42 208.03 118.26 209.12 118.76 209.64 119.36 210.08 120.58 209.93 120.95 210.56 121.71 210.83 121.26 212.25 122.14 212.4 123.06 212.49 123.45 213.12 123.15 214.46 123.88 214.74 124.43 215.21 125.57 215.03 125.72 215.93 126.18 216.49 126.38 217.37 127.71 216.92 127.84 217.27 128.24 217 128.49 216.31 129.07 215.7 129.33 215.03 127.97 213.99 129.58 213.64 128.8 212.69 128.47 211.84 128.77 211.17 129.8 210.73 129.52 209.88 130.02 209.29 129.64 208.38 130.13 207.78 130.35 207.09 130.85 206.51 132.13 206.29 132.32 205.6 132.3 204.79 132.42 204.05 132.12 203.08 132.63 202.52 133.43 202.15 133.91 201.6 134.67 201.22 134.44 200.23 134.58 199.47 135.93 199.5 136.34 198.92 135.92 197.75 136.85 197.53 137.26 196.95 137.65 196.35 137.93 195.65 138.7 195.36 139.27 194.91 139.36 194.04 139.82 193.48 140.25 192.91 140.86 192.49 140.82 191.46 141.92 191.52 142.64 191.23 142.82 190.39 143.69 190.27 143.83 189.37 143.83 188.3 145.32 188.9 145.84 188.41 146.36 187.93 146.34 186.77 146.96 186.4 147.59 186.04 147.87 185.22 148.84 185.31 149.34 184.77 150.17 184.71 150.51 183.94 151.21 183.69 151.54 182.9 152.02 182.31 152.93 182.4 153.19 181.46 154.2 181.72 154.69 181.14 155.04 180.33 156.07 180.65 156.71 180.33 157.28 179.88 157.47 178.75 158.2 178.56 159.05 178.62 160.09 179.07 160.22 177.75 161.3 178.29 161.45 176.99 162.07 176.6 162.73 176.31 163.78 176.84 164.55 176.81 165.06 176.2 165.91 176.34 166.06 174.91 167.15 175.63 167.62 174.9 168.19 174.38 169.2 174.97 169.83 174.63 170.34 173.96 170.67 172.8 171.67 173.44 172.28 173.02 173.07 173.11 173.74 172.83 174.12 171.76 174.69 171.19 175.62 171.7 176.51 172.11 177.18 171.85 177.62 170.86 178.49 171.26 178.93 170.24 179.92 171.02 180.26 169.64 180.96 169.44 181.99 170.46 182.54 169.75 183.16 169.27 183.93 169.36 184.53 168.83 185.28 168.86 185.9 168.36 186.84 169.15 187.35 168.2 187.95 167.58 188.87 168.37 189.62 168.46 190.14 167.45 190.89 167.51 191.78 168.29 192.39 167.7 193.16 167.88 193.72 166.97 194.51 167.28 195.14 166.72 195.76 166.07 196.62 166.84 197.34 166.75 197.88 165.63 198.72 166.28 199.39 165.92 200.05 165.43 200.95 166.61 201.64 166.29 202.21 165.15 203.09 166.3 203.81 166.32 204.36 164.85 205.15 165.35 205.77 164.5 206.63 165.6 207.38 165.8 207.99 164.74 208.72 164.75 209.45 164.78 210.16 164.61 210.97 165.48 211.6 164.38 212.35 164.65 213.1 164.96 213.77 164.18 214.47 163.73 215.24 164.39 215.97 164.36"/>
    <polygon class="cls-1" points="240.71 124.03 240.96 124.92 241.52 125.46 242.24 125.59 243.26 126.54 243.1 125.01 243.59 124.45 243.28 123.45 243.88 122.94 244.68 122.62 245.39 122.27 245.82 121.73 245.66 120.6 246.8 120.75 246.88 119.76 247.53 119.41 248.19 119.09 248.84 118.78 249.46 118.45 250.04 118.01 250.42 117.07 251.29 117.25 252.23 117.84 252.85 117.54 253.47 117.11 254.12 116.67 254.77 115.98 255.54 116.23 256.27 117.52 256.96 117.12 257.6 117.64 258.33 117.25 259.21 116.36 259.59 117.87 260.27 117.95 261.15 117.5 261.87 117.62 262.64 117.66 263.46 117.68 263.5 119.06 264.43 118.92 264.79 119.63 265.78 119.54 265.73 120.69 266.12 121.28 266.28 122.05 267.03 122.3 267.91 122.5 268.06 123.73 268.92 122.93 269.73 123.11 270.39 122.84 270.89 121.77 271.66 121.86 272.85 122.79 272.42 121.19 273.14 120.81 273.59 120.24 274.56 120.04 274.76 119.3 274.39 118.15 275.18 117.83 275.99 117.52 275.76 116.45 276.8 116.32 276.56 115.24 277.58 115.1 278.43 114.85 278.87 114.28 278.56 113.12 278.79 112.39 279.39 111.94 279.61 111.18 281.23 111.57 281.34 110.73 281.25 109.72 282.39 109.74 282.57 108.94 282.33 107.78 282.96 107.36 284.49 107.75 284.02 106.37 285.35 106.6 285.47 105.73 286.23 105.45 286.75 104.95 287.41 104.59 286.66 102.88 288.33 103.48 288.44 102.59 288.22 101.36 288.98 101.09 289.63 100.72 289.97 100.04 290.74 99.78 291.08 99.09 291.79 98.79 291.95 97.91 292.86 97.82 292.94 96.85 293.86 96.78 294.85 96.79 294.78 95.64 295.05 94.85 296.2 95.05 296.29 94.06 297.54 94.41 297.63 93.41 298.15 92.89 298.88 92.65 299.2 91.89 300.2 91.98 300.87 91.66 301.1 90.8 302.23 91.07 301.92 89.49 303.12 89.87 303.57 89.28 303.91 88.53 304.97 88.75 305.37 88.08 306.02 87.76 305.98 86.46 307.43 87.27 308.01 86.85 308.01 85.57 308.27 84.67 308.88 84.28 310.03 84.7 310.59 84.24 310.72 83.12 312.17 84.05 312.52 83.25 313.42 83.34 313.22 81.64 313.96 81.47 315.2 82.15 315.42 81.1 316.35 81.26 316.48 80.05 316.99 79.49 317.62 79.11 318.97 80.08 318.88 78.4 319.81 78.61 320.75 78.85 320.8 77.38 321.4 76.97 322.45 77.44 323.28 77.5 323.55 76.4 324.42 76.56 325.09 76.29 325.75 76 326.38 75.64 327.04 75.37 327.36 74.32 328.27 74.58 329.2 74.92 329.82 74.54 330.27 73.76 330.07 73.3 329.81 73.15 329.45 72.53 329.44 71.76 330.15 70.66 328.62 70.57 328.81 69.7 329.23 68.7 327.88 68.56 327.9 67.75 327.07 67.38 327.84 66.17 326.76 65.93 326.31 65.36 326.97 64.17 326.12 63.83 326.32 62.87 325.19 62.71 325.14 61.9 324.75 61.3 324.72 60.46 323.44 60.43 323.02 59.86 323.6 58.6 323.19 58.01 322.75 57.43 321.76 57.25 321.78 56.35 320.94 56.07 320.79 55.29 320.67 54.46 319.91 54.15 318.62 54.26 319.35 52.74 318.03 52.9 317.21 52.66 317.11 51.81 317.25 50.73 316.79 50.17 316.35 49.6 314.96 49.9 315.27 48.63 314.12 48.73 313.72 48.13 314.04 46.79 312.86 46.97 312.08 46.75 311.97 45.82 310.75 46.08 311.23 44.5 310.49 44.24 310.18 43.51 309.27 43.46 308.31 43.48 308.39 42.27 307.87 41.76 307.49 41.09 306.26 41.48 305.8 40.9 305.2 40.51 304.87 39.75 304.38 39.21 303.88 38.67 303.4 38.09 302.81 37.68 301.56 38.23 301.27 37.38 300.32 37.52 299.59 37.35 299.49 36.17 298.53 36.36 298.64 34.79 297.44 35.41 296.88 34.94 296 35.05 296.01 33.56 295.28 33.39 294.61 33.11 294.03 32.68 293.15 32.8 292.4 32.7 291.82 32.26 291.38 31.53 290.27 32.21 289.61 31.95 289.35 30.79 288.46 31.03 288.19 29.85 286.99 30.86 286.53 30.1 286.27 28.81 285.18 29.65 284.63 29.06 284.03 28.62 283.54 27.84 282.37 29.04 281.98 27.95 281.21 28.01 280.79 26.93 279.71 28.04 279.33 26.79 278.32 27.71 277.68 27.35 277.08 26.83 276.4 26.6 275.8 26.06 274.98 26.37 274.5 25.27 273.55 26.26 272.88 25.95 272.4 24.72 271.46 25.79 270.96 24.53 270 25.89 269.46 24.72 268.75 24.65 268.07 24.26 267.24 25.02 266.68 23.76 265.91 24.12 265.11 24.83 264.38 24.98 263.65 25.06 262.99 24.39 262.35 23.31 261.58 24.1 260.9 23.36 260.13 24.27 259.4 24.77 258.72 23.36 257.98 24.41 257.26 24.49 256.55 23.8 255.82 24 255.1 23.89 254.39 24.17 253.63 23.26 252.92 23.64 252.23 24.31 251.46 23.45 250.76 23.9 250.09 24.6 249.34 24.26 248.66 24.73 247.88 24.19 247.14 24.05 246.52 24.92 245.69 24.15 245 24.45 244.24 24.28 243.69 25.42 242.9 25.02 242.14 24.88 241.6 25.95 240.77 25.45 240.05 25.52 239.38 25.82 238.8 26.53 237.95 26.04 237.35 26.62 236.67 26.86 236.06 27.36 235.37 27.53 234.49 27.03 233.97 27.84 233.13 27.54 232.58 28.18 231.63 27.58 231.15 28.43 230.62 29.08 229.87 29.12 228.76 28.13 228.34 29.1 227.35 28.52 227.15 30.01 226.59 30.52 225.8 30.5 225.04 30.53 224.04 30.03 223.7 31.05 222.7 30.61 222.69 32.3 221.68 31.83 221.04 32.17 220.7 33.09 219.64 32.6 219.04 33 218.73 33.95 217.74 33.64 217.1 33.97 216.5 34.37 216.01 34.97 215.1 34.84 214.79 35.73 214.19 36.14 213.31 36.08 213.19 37.24 212.77 37.89 212.18 38.3 210.64 37.3 210.27 38.04 209.62 38.38 209.58 39.56 208.5 39.3 208.21 40.12 207.95 40.96 206.57 40.36 206.63 41.6 206.1 42.08 204.94 41.8 205.15 43.19 204.65 43.7 203.22 43.14 203.51 44.56 202.94 45 201.54 44.53 201.97 46.06 200.7 45.76 201.03 47.14 200.07 47.18 199.7 47.83 199.01 48.16 197.87 48.07 197.8 48.99 198.06 50.22 197.34 50.53 196.06 50.35 196.32 51.54 194.98 51.33 194.74 52.08 195.24 53.44 194.48 53.73 194 54.27 193.75 54.98 192.4 54.85 191.84 55.33 191.57 56.04 191.96 57.22 191.1 57.48 191.38 58.55 190.69 58.94 189.26 58.84 189.31 59.75 189.5 60.73 188.58 61 188.9 62.04 188.74 62.78 187.52 62.88 187.5 63.71 186.45 63.93 186.58 64.83 186.67 65.7 185.1 65.67 185.11 66.5 184.92 67.21 184.1 67.61 184.52 68.63 183.61 68.99 183.68 69.82 183.64 70.6 182.59 70.92 182.58 71.71 182.71 72.55 181.74 72.93 181.49 74.34 183.07 74.06 183.55 74.69 184.13 75.14 184.52 75.92 185.19 76.17 186.49 75.28 186.9 76.04 187.6 76.26 188.06 76.9 188.87 76.93 189.02 78.1 190.19 77.52 190.86 77.81 191.13 78.76 192.06 78.6 191.93 80.2 192.66 80.38 193.32 80.68 194.65 79.91 195.1 80.55 194.96 82.09 195.77 82.16 196.41 82.49 197.45 82.22 197.72 83.11 198.31 83.52 199.35 83.28 200.03 83.56 200.17 84.62 200.66 85.18 201.51 85.22 201.99 85.8 202.37 86.49 202.65 87.33 203.17 87.82 203.94 87.99 204.89 87.93 205.08 88.87 205.76 89.16 206.48 89.39 207.41 89.37 207.46 90.47 208.19 90.71 209.14 90.67 208.91 92.1 209.86 92.06 210.08 92.93 211.3 92.58 212.06 92.8 211.93 94.07 212.94 93.99 213.8 94.1 214.26 94.68 214.42 95.58 215.04 95.97 215.59 96.44 215.78 97.31 216.93 97.11 216.48 98.67 217.51 98.61 217.52 99.66 218.42 99.75 219.48 99.67 219.77 100.42 220.77 100.42 220.35 101.89 221.17 102.08 221.7 102.57 222.1 103.2 222.3 104.01 223.03 104.3 224.37 103.99 223.65 105.7 225.2 105.21 225.87 105.57 225.66 106.76 225.98 107.44 227.36 107.15 226.66 108.77 228 108.53 227.98 109.52 228.81 109.74 229.8 109.83 229.22 111.3 229.95 111.62 229.96 112.57 230.85 112.75 231.3 113.31 232.28 113.44 232.78 113.96 233.33 114.44 232.79 115.81 233.73 115.98 234.86 116.01 234.82 116.96 235.52 117.33 235.45 118.3 235.87 118.89 236.22 119.53 236.76 120.02 237.31 120.51 237.72 121.11 238.81 121.21 238.76 122.15 239.23 122.7 239.6 123.32 240.07 123.88 240.71 124.03"/>
    <polygon class="cls-1" points="409.5 133.39 409.02 132.79 408.82 132.1 408.98 131.28 408.32 130.75 407.96 130.12 407.94 129.36 407.05 128.94 407.48 128 406.71 127.54 407.71 126.33 406.63 126.01 406.08 125.47 406.58 124.44 406.43 123.71 404.9 123.65 405.14 122.73 404.41 122.3 404.52 121.43 404.21 120.78 403.44 120.38 403.46 119.55 402.98 118.99 402.88 118.22 401.65 118.11 402.44 116.79 402.03 116.19 400.96 116.02 400.21 115.65 400.06 114.89 400.36 113.82 399.03 113.86 399.04 112.98 398.29 112.64 398.79 111.39 397.63 111.35 398.07 110.11 397.45 109.67 396.23 109.71 396.49 108.58 396.2 107.88 395.07 107.88 394.35 107.56 393.8 107.09 393.31 106.56 393.81 105.16 392.48 105.39 391.91 104.95 392.48 103.42 391.58 103.28 391.2 102.64 390.6 102.22 390.09 101.71 389.73 101.04 388.29 101.51 388.05 100.72 388.32 99.36 387.69 98.97 386.22 99.55 385.7 99.07 385.36 98.36 385.12 97.53 384.41 97.25 383.85 96.81 382.96 96.78 382.75 95.88 382.19 95.43 381.34 95.37 380.95 94.69 380.05 94.71 379.47 94.31 379.72 92.68 379.01 92.43 378.2 92.35 377.29 92.43 376.89 91.73 376.49 91 375.99 90.43 375.22 90.32 374.49 90.13 374.04 89.47 372.85 90.12 372.87 88.6 371.92 88.83 371.44 88.2 370.69 88.09 370.11 87.64 369.22 87.81 368.95 86.72 367.97 87.11 367.44 86.55 366.58 86.7 365.84 86.62 365.66 85.22 364.82 85.36 363.99 85.5 363.55 84.67 362.98 84.15 361.93 84.87 361.42 84.19 360.78 83.85 360.25 83.17 359.5 83.14 358.73 83.17 358.13 82.68 357.5 82.27 356.92 81.7 356.14 81.77 355.45 81.55 354.77 81.31 353.84 81.99 353.17 81.75 352.46 81.63 351.84 81.11 350.99 81.64 350.59 80.09 349.66 81.02 349.07 80.28 348.16 81.23 347.52 80.73 346.97 79.69 346.08 80.72 345.52 79.59 344.72 80.09 344.11 79.21 343.39 79.14 342.63 79.43 341.93 79.18 341.25 78.69 340.51 78.83 339.76 79.19 338.98 80.06 338.31 78.95 338.46 79.27 337.37 78.85 336.89 79.51 336.18 79.67 335.96 81.11 334.77 80.02 334.48 81.27 333.62 81.05 332.91 81.22 332.41 81.9 331.4 81.34 331.13 82.57 330.37 82.6 329.57 82.57 329.23 83.54 328.49 83.65 327.97 84.22 327.09 84.03 326.56 84.59 325.75 84.56 325.13 84.92 324.71 85.68 324.09 86.05 323.17 85.84 322.75 86.57 321.89 86.49 321.42 87.13 320.86 87.61 320.02 87.59 319.6 88.3 319.26 89.13 317.83 88.14 317.86 89.58 316.94 89.45 316.27 89.76 315.43 89.78 314.87 90.25 314.62 91.19 314.4 92.17 313.07 91.47 312.51 91.94 312.18 92.73 311.93 93.64 311.04 93.63 310.48 94.09 309.74 94.3 309.44 95.11 309.02 95.74 307.99 95.59 307.34 95.93 307.27 97.01 306.15 96.76 306.17 97.93 305.33 98.03 304.76 98.47 303.66 98.28 303.4 99.09 302.65 99.34 302.51 100.27 301.42 100.13 301.72 101.56 300.47 101.25 300.44 102.29 300.37 103.28 299.74 103.66 299.24 104.18 298.27 104.21 297.65 104.6 296.93 104.91 296.29 105.3 296.6 106.62 295.2 106.27 295.26 107.33 294.57 107.68 294.45 108.56 293.65 108.81 293.61 109.76 292.58 109.79 292.74 110.9 291.68 110.93 291.69 111.9 290.97 112.23 289.96 112.32 289.33 112.74 289.24 113.61 289.09 114.43 288.38 114.79 288.58 115.88 286.99 115.55 286.56 116.14 286.72 117.18 286.55 117.96 286.31 118.69 285.53 119.01 285.4 119.81 283.87 119.6 283.84 120.48 283.54 121.17 283.86 122.28 282.76 122.4 282.35 123 282.47 123.97 281.23 124.33 281.89 125.05 282.68 125.13 282.81 126.05 284.2 125.56 284.38 126.4 284.55 127.18 285.29 127.47 285.54 128.16 286.59 128.32 285.78 129.61 286.17 130.16 286.66 130.69 286.52 131.47 286.89 132.05 288.26 132.38 288.36 133.1 287.61 133.94 287.37 134.63 287.65 135.26 288.37 135.9 287.96 136.58 287.49 137.21 287.25 137.83 288.36 138.21 288.61 138.9 289.42 138.43 290.07 138.91 290.73 139.27 291.39 139.59 292.28 139.27 292.94 139.62 293.27 140.59 294.49 139.9 294.49 141.31 295.69 140.86 295.42 142.39 296.89 141.8 297.41 142.35 297.42 143.36 297.85 143.95 298.02 144.72 298.87 145 298.95 145.8 298.96 146.6 299.56 147.09 300.93 147.32 300.42 148.3 300.23 149.12 301.27 149.63 301.65 150.35 300.74 151.23 300.88 151.95 301.11 152.68 301.48 153.44 300.95 154.15 301.32 154.96 300.96 155.66 301.43 156.56 300.31 157.02 299.58 157.53 299.33 158.19 299.94 159.3 299.75 160.02 299.13 160.48 297.99 160.55 298.06 161.48 298.9 161.75 298.97 162.62 299.09 163.42 300.4 163.47 300.29 164.45 300.96 164.01 301.63 164.6 302.36 164.54 303 165.42 303.71 165.56 304.55 164.47 305.22 164.98 305.98 164.68 306.59 165.76 307.35 165.45 308.04 165.72 308.83 165.2 309.56 165.24 310.19 165.93 310.96 165.65 311.54 166.66 312.38 165.89 313.14 165.75 313.75 166.46 314.38 167.08 315.33 165.81 316.01 166.09 316.52 167.34 317.43 166.39 318.1 166.73 318.92 166.29 319.37 167.78 320.18 167.37 320.73 168.26 321.63 167.51 322.45 167.12 323.15 167.32 323.55 168.83 324.51 167.88 325.04 168.76 325.78 168.8 326.49 168.93 327.24 168.9 327.81 169.58 328.48 169.86 329.17 170.1 330.08 169.51 330.61 170.28 331.32 170.42 331.99 170.71 332.68 170.91 333.46 170.83 334.02 171.45 334.9 171.08 335.39 171.91 336.13 171.95 337.16 171.18 337.37 172.77 338.14 172.74 338.74 173.2 339.92 172.08 340.14 173.56 340.83 173.77 341.64 173.68 342.29 174 342.73 174.82 343.74 174.26 344.66 173.93 344.86 175.32 345.43 175.81 346.6 174.94 347.12 175.55 347.6 176.24 348.4 176.23 348.84 176.97 349.43 177.41 350.12 177.65 351.08 177.34 351.39 178.3 351.92 178.84 353.14 178.08 353.15 179.58 354.02 179.48 355 179.22 355.3 180.15 356.31 179.85 356.84 180.38 357.29 181.02 357.63 181.85 358.43 181.92 358.8 182.69 359.93 182.27 359.91 183.59 360.73 183.66 361.74 183.48 362.28 183.97 362.55 184.82 363.03 185.38 364.12 185.13 363.8 186.73 365.18 186.13 365.21 187.25 366 187.41 366.17 188.32 366.86 188.62 368.03 188.37 368.64 188.77 368.81 189.66 369.75 189.71 369.81 190.7 370.49 191.03 370.89 191.65 371.63 191.94 372.31 192.3 372.79 192.84 372.26 194.31 373.26 194.37 374.17 194.54 374.6 195.12 374.44 196.19 374.43 197.11 375.69 197.03 375.97 197.73 375.92 198.65 376.38 199.19 377.08 199.57 377.39 200.23 378.66 200.26 378.18 201.42 378.65 201.97 378.47 202.9 379.76 202.98 380.26 203.53 380.61 204.16 380.6 204.98 380.74 205.71 381.4 206.19 381.88 206.76 382.45 207.3 381.3 208.58 381.62 209.21 382.13 209.77 382.77 210.29 383.01 210.96 383.99 211.39 384.12 212.11 384.17 212.85 383.57 213.77 383.68 214.48 384.6 214.98 385.15 215.59 385.2 216.33 384.9 217.13 384.82 218.14 385.35 217.25 385.78 216.64 387.07 217.02 387.31 216.2 387.58 215.42 387.64 214.43 388.9 214.73 389.7 214.53 389.78 213.57 390.28 213.05 390.63 212.38 390.79 211.54 391.95 211.66 392.3 210.99 392.28 210 393.19 209.86 393.15 208.87 394.77 209.33 394.47 208.11 395.29 207.87 395.39 207.02 395.52 206.2 395.9 205.59 396.8 205.39 396.94 204.59 398.2 204.65 398.19 203.74 398.49 203.07 399.67 203.02 399.22 201.83 400.38 201.75 400.94 201.25 401.29 200.62 400.42 199.19 400.91 198.66 402.08 198.54 401.81 197.54 403.09 197.46 403.1 196.63 402.78 195.62 403.59 195.26 403.78 194.54 403.77 193.73 404.02 193.05 404.78 192.64 405.27 192.08 404.95 191.13 405.37 190.54 406.42 190.24 407.32 189.85 407.59 189.18 406.79 188.04 407.01 187.36 407.87 186.94 408.5 186.41 408.43 185.61 407.8 184.6 408.63 184.15 408.76 183.43 409.93 183.07 409.04 182.01 409.17 181.3 409.75 180.74 409.66 179.96 410.65 179.5 411.11 178.88 411.39 178.21 410.61 177.25 410.73 176.55 411.91 176.1 411.95 175.36 411.16 174.44 411.64 173.81 412.27 173.21 412.27 172.47 412.51 171.78 412.04 170.97 412.89 170.38 412.39 169.57 413.29 168.98 412.46 168.13 413.61 167.56 412.82 166.73 413.76 166.11 412.74 165.28 412.85 164.57 413.2 163.88 412.51 163.11 412.77 162.42 412.85 161.7 412.8 160.99 413.71 160.31 412.81 159.56 413.61 158.86 413.63 158.14 414.16 157.42 413.28 156.7 413.97 155.97 414.17 155.24 413.28 154.55 413.5 153.82 413.05 153.12 412.56 152.44 413.59 151.64 412.91 150.98 413.76 150.18 412.41 149.59 413.33 148.77 412.23 148.18 413.16 147.33 413.43 146.56 411.86 146.07 413.25 145.12 411.53 144.68 411.69 143.93 412.85 142.98 411.55 142.5 411.36 141.81 411.49 141.04 411.29 140.35 411.98 139.45 411.81 138.74 410.75 138.27 410.28 137.65 410.35 136.89 409.76 136.31 409.89 135.53 409.25 134.98 410.2 133.92 409.5 133.39"/>
    <polygon class="cls-1" points="263.94 199.51 264.51 199.09 264.84 198.49 265.29 197.95 265.71 197.37 265.89 196.68 266.14 196.02 266.2 195.31 266.48 194.62 265.77 193.93 265.89 193.92 266.14 193.16 266.22 192.37 265.15 191.93 264.96 191.26 265.03 190.42 264.58 189.84 263.95 189.41 263.87 188.48 262.93 188.44 262.44 187.9 261.67 187.81 261.13 187.31 260.43 187.33 259.77 186.76 259.61 186.02 259.61 185.31 259.69 184.59 259.59 183.89 259.76 183.17 259.58 182.47 259.7 181.75 259.7 181.04 259.74 180.32 259.7 179.61 259.81 178.89 259.74 178.18 259.22 177.5 259.86 176.75 259.74 176.05 258.93 175.37 259.24 174.64 258.83 173.82 260 173.91 260.6 173.43 261.19 173.32 261.73 173.75 262.24 174.27 262.55 174.94 262.78 175.67 263.54 175.97 263.98 176.51 264.42 177.06 264.62 177.78 265.27 178.17 265.2 179.09 266.26 179.18 266.57 179.82 266.4 180.81 267.11 181.16 267.26 181.92 268.22 182.09 268.35 182.87 269.17 183.26 268.56 184.09 268.06 184.69 267.42 185.28 267.32 186.09 267.41 186.92 267.55 187.61 267 188.28 267.38 188.96 267.15 189.7 267.68 190.28 267.56 191.06 268.22 191.52 268.68 192.03 268.45 193.03 269.28 193.33 269.88 193.78 270.41 194.29 271.09 194.6 271.44 195.53 272.19 195.77 273.06 195.53 273.76 195.79 274.46 196.29 275.23 196.21 275.98 196.36 276.68 195.99 277.3 195.5 278.06 195.56 278.81 195.44 279.35 194.9 280.03 194.61 280.69 194.3 280.73 193.33 281.37 192.99 281.96 192.56 282.22 191.9 282.15 191.11 282.65 190.59 283.4 190.07 282.62 189.21 283.5 188.62 282.92 187.91 283.39 187.19 282.83 186.58 282.5 185.98 282.57 185.25 281.97 184.79 282.15 183.92 281.29 183.68 281.2 182.84 280.64 182.37 280.34 181.57 279.76 181.07 278.97 180.93 278.36 180.46 277.62 180.3 276.85 180.28 276.13 180.12 275.38 180.55 274.68 180.41 273.96 180.44 273.2 180.36 272.81 180.34 272.36 179.97 271.52 179.73 271.42 178.95 271.22 178.24 270.8 177.69 269.79 177.57 269.89 176.63 269.04 176.39 268.7 175.78 268.58 175 268.29 174.32 267.66 173.9 267.28 173.29 266.56 172.94 266.47 172.11 266.1 171.49 265.23 171.23 265.26 170.42 265.04 169.74 266.08 169.77 266.38 169.17 266.3 169.11 266.51 168.43 266.86 168.15 267.63 167.72 268.3 167.98 269.06 167.93 269.57 168.87 270.43 168.44 271.09 168.77 271.68 169.38 272.45 169.31 273.05 169.87 273.91 169.45 274.44 170.28 275.17 170.38 275.84 170.68 276.75 170.05 277.29 170.87 278.18 170.35 278.88 170.59 279.55 171.05 279.95 171.86 279.88 172.62 280.17 173.31 279.78 174.29 280.17 175 280.6 174.82 281.15 175.27 281.19 176.11 281.59 176.72 282.31 176.98 283.01 177.19 283.3 178.04 284.25 177.69 284.86 177.93 285.51 178.04 286.04 178.76 286.77 178.39 287.43 179.1 288.19 179.12 288.83 178.43 289.59 178.53 290.2 178.08 290.82 177.73 291.57 177.63 292.39 177.52 292.44 176.43 293.15 176.15 293.79 175.75 294.37 175.26 294.66 174.48 295.17 173.81 295.01 172.9 294.85 172.19 295.83 171.63 295.72 170.9 295.15 170.24 294.89 169.61 294.9 168.94 294.91 168.23 294.56 167.64 293.95 167.21 293.78 166.54 293.77 165.67 292.98 165.45 292.39 165.1 292.25 164.14 291.38 164.19 290.66 164.1 290.09 163.67 289.41 163.57 288.81 162.75 287.97 163.42 287.24 162.79 286.52 163.32 285.7 162.97 284.89 163 284.21 163.43 283.7 164.11 283.28 164.69 282.62 164.9 281.95 165.17 281.65 165.82 281.28 166.37 280.66 166.36 280.09 166.16 279.26 166.53 278.54 166.48 277.95 165.93 277.26 165.74 276.55 165.65 275.74 165.92 275.04 165.76 274.39 165.45 273.68 165.35 273 165.1 272.46 164.32 271.73 164.3 270.95 164.29 270.22 164.08 269.56 163.62 268.76 163.67 267.87 163.72 268.51 162.68 268.19 161.91 267.88 161.06 268.77 161.36 269.29 160.63 269.87 160.09 270.71 160.34 271.25 159.68 272.11 159.98 272.89 160.08 273.56 159.79 274.25 159.57 274.89 159.18 275.59 159.01 276.22 158.59 276.85 158.19 277.52 157.93 278.25 157.82 278.86 157.34 279.61 157.3 280.36 157.49 280.83 157.69 281.17 158.32 281.82 158.65 282.28 159.18 283.1 159.16 283.57 159.72 284.15 160.11 284.9 160 285.58 160.01 286.21 160.31 286.88 160.45 287.68 160.37 288.61 160.84 289.35 160.3 290.14 160.38 290.41 159.31 291.4 159.63 292.05 159.28 292.47 158.66 292.51 157.72 293.31 157.5 293.33 156.68 293.93 156.24 294.66 155.8 294.33 154.95 294.57 154.32 294.59 153.64 294.97 152.98 294.6 152.31 294.75 151.61 294.8 150.9 294.58 150.24 294.54 149.44 293.76 148.99 293.85 148.06 293.19 147.6 292.23 147.5 292.09 146.58 291.64 145.92 290.81 145.83 289.98 145.89 289.3 145.74 288.8 144.86 288.05 144.78 287.28 145.31 286.56 144.5 285.83 144.8 285.1 144.92 284.52 145.56 283.79 145.54 283.19 145.89 282.33 145.81 282.21 146.85 281.43 146.98 280.92 147.45 280.6 148.09 280.1 148.58 279.58 149.1 279.16 149.78 279.5 150.7 278.8 151.32 278.73 152.1 279.02 153.03 278.23 153.12 277.51 153.24 276.89 153.66 276.02 153.33 275.34 153.6 274.68 153.9 274.21 154.83 273.43 154.76 272.66 154.74 271.92 154.8 271.2 154.97 270.57 155.37 269.99 155.97 269.34 156.32 268.43 155.86 267.94 156.73 267.01 156.22 266.45 157.2 265.68 156.42 265.29 155.78 265.39 154.7 264.53 154.44 265.02 153.92 265.49 153.38 265.65 152.62 266.41 152.27 266.43 151.43 267.2 151.08 267.12 150.18 267.72 149.72 267.69 148.85 268.71 148.66 268.52 147.68 269.6 147.53 269.24 146.43 270.27 146.26 270.66 145.65 270.83 144.91 270.97 144.14 271.46 143.51 272.37 143.73 273.09 143.95 273.84 144.17 274.59 144.27 275.31 144.11 275.96 143.69 276.64 143.48 277.35 143.32 278.12 143.21 278.67 142.69 279.31 142.3 279.81 141.75 280.26 141.16 280.15 140.21 280.7 139.77 281.09 139.21 281.47 138.62 281.7 137.97 281.47 137.23 282.15 136.6 282.23 135.88 281.8 135.21 282.05 134.45 281.66 133.82 281.05 133.31 280.69 132.75 280.64 132 280.04 131.6 279.76 130.96 279.18 130.59 279.07 129.65 278.43 129.32 278.2 129.5 277.75 128.77 277.01 128.55 276.07 128.99 275.41 128.74 274.74 128.46 274.02 128.11 273.27 128.02 272.62 128.77 271.88 128.67 271.25 129.04 270.61 129.34 270.06 129.79 268.97 129.43 268.61 130.2 267.9 130.53 267.87 131.48 267.27 131.92 267.2 131.88 266.9 132.49 266.57 133.09 266.19 133.68 266.42 134.45 266.18 135.08 265.6 135.72 266.32 136.41 265.58 137.15 266.1 137.78 266.24 138.55 266.56 139.26 266.86 139.99 267.41 140.56 268.04 141.32 267.04 141.6 266.78 142.28 266.24 142.78 266.4 143.74 265.91 144.27 265.1 144.59 264.97 145.36 264.68 146.03 264.54 146.79 263.83 147.18 263.36 147.73 263.31 148.55 262.61 148.94 262.22 149.54 261.5 149.93 261.4 150.72 261.02 151.34 260.8 152.11 260.02 151.68 259.32 151.37 258.78 151.3 258.63 150.61 258.74 149.84 258.52 149.07 258.97 148.3 258.81 147.52 258.96 146.82 258.17 146.12 258.54 145.42 258.31 144.72 258.81 144.02 258.2 143.31 258.51 142.61 258.41 141.91 258.12 141.21 258.1 140.5 258.09 139.8 258.69 139.09 258.52 138.37 259.27 138.26 259.96 138 260.7 137.79 261.31 137.35 261.41 136.34 262.1 136.05 262.94 135.79 263.36 135.16 263.2 134.23 263.39 133.56 264.02 133.02 264.25 132.32 264.58 131.61 263.83 130.85 264.06 130.13 264.52 129.32 264.29 128.58 263.92 127.9 263.41 127.31 262.99 126.71 262.76 125.98 262.35 125.34 261.71 124.92 261.27 124.26 260.26 124.45 259.7 124.02 259.05 123.72 258.41 123.37 257.81 122.66 257.04 122.64 256.27 122.87 255.51 122.66 254.85 123.3 254.17 123.52 253.28 123.15 252.61 123.54 251.87 123.77 251.25 124.24 251.15 125.27 250.6 125.71 250.02 126.16 249.46 126.66 248.88 127.19 248.92 128.02 248.24 128.58 248.19 129.35 248.02 130.09 247.92 130.85 248.03 130.85 248.74 131.54 248.65 132.25 248.85 132.92 248.98 133.63 249.54 134.14 249.46 134.99 249.95 135.53 250.7 135.81 250.79 136.73 251.19 137.41 252.07 137.43 252.8 137.57 253.22 138.4 253.7 138.47 254.37 139.11 254.32 139.84 253.84 140.56 254.35 141.29 253.67 142.02 253.92 142.75 253.69 143.48 254.23 144.21 253.86 144.94 254.19 145.67 253.54 146.4 254.21 147.13 253.6 147.86 253.57 148.6 254.35 149.34 253.89 150.03 254.24 150.72 253.7 151.32 253.46 151.97 252.61 151.43 252 151.73 251.47 152.19 251.06 152.25 250.75 151.71 250.28 151.17 249.57 150.82 249.11 150.28 248.59 149.78 248.38 149.03 247.37 148.93 247.25 148.1 246.73 147.6 246.15 147.15 246.1 146.25 245.35 145.95 245.13 145.2 244.62 144.7 243.78 144.45 243.81 143.49 242.98 143.23 242.74 142.52 242.84 141.76 243.06 141.04 244.08 140.58 243.9 139.72 244.2 138.96 244.04 138.26 243.97 137.57 243.93 136.89 243.86 136.2 243.5 135.59 243.57 134.82 243.37 134.11 242.43 133.89 242.61 132.88 241.46 132.97 241.39 132.05 240.71 131.77 240.13 131.39 239.61 130.85 238.91 130.68 238.22 130.52 237.61 129.98 236.86 130.03 236.14 130.53 235.42 129.99 234.75 130.43 234.05 130.48 233.51 130.98 232.88 131.14 232.13 131.14 231.58 131.54 231.22 132.17 230.68 132.58 230.33 133.17 229.67 133.51 228.89 133.85 229.04 134.74 228.78 135.36 228.57 136.01 228.74 136.73 228.09 137.32 228.24 138.02 228.38 138.69 227.91 139.44 228.15 140.12 228.69 140.68 229.04 141.26 228.77 142.18 229.56 142.52 229.91 143.12 230.56 143.47 231.05 143.95 231.69 144.23 232.2 144.67 232.64 145.35 233.21 145.87 233.93 146.03 234.7 145.86 235.41 145.78 236.1 146.45 236.86 145.75 237.62 145.71 238.47 145.89 238.89 145.76 239.33 146.2 240.33 146.34 240.63 147.05 241.13 147.61 241.42 148.33 242.11 148.74 242.37 149.48 243.26 149.72 243.4 150.57 244.21 150.87 244.45 151.65 245.08 152.1 245.6 152.65 245.49 153.78 246.45 154.01 246.61 154.92 247.65 155.21 247.01 155.94 246.64 156.49 246.41 156.54 246.26 156.83 245.5 156.85 244.91 156.29 244.26 155.91 243.4 156.19 242.81 155.63 241.98 155.81 241.39 155.25 240.7 154.98 240.07 154.55 239.26 154.68 238.56 154.44 237.99 153.81 237.16 153.99 236.53 153.55 235.63 153.92 235.04 153.34 234.48 152.67 233.68 152.81 233.74 152.11 233.75 151.32 233.62 150.54 233.3 149.81 232.95 149.11 232.51 148.54 232.25 147.86 231.29 147.75 230.86 147.25 230.41 146.75 229.93 146.26 229.2 146.18 228.79 145.46 228.08 145.38 227.43 145.02 226.65 145.31 225.98 144.74 225.23 144.6 224.46 144.61 223.81 145.14 223.19 145.58 222.4 145.53 221.83 146.01 220.96 146.01 220.36 146.48 219.86 147.05 219.63 147.83 219.12 148.35 218.3 148.73 218.25 149.55 218.45 150.4 218.37 151.05 217.61 151.59 217.39 152.28 217.43 152.99 217.51 153.69 217.7 154.37 218.46 154.87 217.86 155.81 218.49 156.3 218.82 156.93 219.5 157.3 219.9 157.84 219.94 158.8 220.68 159.04 221.49 159.09 222.1 159.37 222.72 159.61 223.22 160.22 223.16 160.41 224.04 160.36 224.82 160.74 225.67 160.21 226.36 160.54 227.13 160.9 227.85 160.74 228.4 160.12 228.94 159.63 229.58 159.39 230 158.81 230.55 158.44 231.03 157.98 231.85 157.81 232.19 157.46 233.04 156.96 233.64 157.45 234.2 158.1 234.93 158.24 235.59 158.55 236.28 158.79 236.96 159.08 237.83 158.74 238.33 159.59 239.05 159.73 239.8 159.82 240.51 159.99 241.19 160.28 241.96 160.26 242.64 160.56 243.44 160.47 243.99 161.16 244.72 161.25 244.78 161.87 244.66 162.53 245.05 163.17 244.71 163.85 244.34 164.58 244.9 164.82 244.28 165.25 243.44 165.08 242.72 165.21 241.99 165.34 241.3 165.55 240.81 166.31 240.15 166.6 239.27 166.32 238.87 167.31 238.08 167.27 237.23 167.08 236.79 167.98 235.92 167.73 235.33 168.2 234.59 168.32 233.98 168.75 233.31 169.04 232.61 169.27 232.23 168.66 231.42 168.47 231.24 167.53 230.61 167.12 229.69 167.31 229.01 167.13 228.38 166.83 227.79 166.18 227.03 166.42 226.32 166.69 225.62 166.48 224.95 166.71 224.09 166.22 223.48 166.73 222.65 166.62 222.1 167.12 221.69 167.78 220.85 167.86 220.76 168.79 220.17 169.18 219.83 169.78 219.06 170.14 219.06 170.93 218.57 171.56 218.8 172.41 218.89 173.16 218.82 173.87 218.33 174.62 218.04 175.45 218.94 176.08 218.9 176.93 218.98 177.71 219.38 178.35 220.02 178.81 220.48 179.38 220.95 179.95 221.45 180.51 222.06 180.95 222.67 181.4 223.47 181.44 224.19 181.61 224.93 181.56 225.65 181.5 226.34 181.75 227.11 182.36 227.77 181.79 228.43 181.46 229.28 181.71 229.96 181.48 230.62 181.17 230.87 180.26 231.76 180.26 232.28 179.76 232.2 178.77 232.86 178.42 233.3 177.88 233.32 177.13 233.77 176.44 233.76 175.61 234.29 174.87 233.98 174.18 234.11 173.31 234.82 172.97 235.48 172.66 236.22 172.58 236.82 172.13 237.63 172.22 238.26 171.85 239.06 171.92 239.58 171.24 240.29 171.08 240.98 170.85 241.7 170.71 242.46 170.66 242.97 169.96 243.72 169.89 244.57 170.09 245 169.16 245.64 168.79 246.47 169.02 247.13 169.2 247.34 169.82 247.72 170.46 247.26 171.06 246.42 171.35 246.45 172.29 245.5 172.5 245.75 173.6 244.78 173.8 244.77 174.71 243.73 174.87 243.57 175.6 242.95 176.01 242.64 176.63 242.55 177.42 241.71 177.66 241.91 178.66 241.35 179.11 240.46 179.32 240.53 180.24 240.27 181.07 239.21 180.94 238.57 180.57 237.89 180.21 237.15 179.9 236.39 179.89 235.64 180.03 235.02 180.62 234.34 180.87 233.87 181.53 233.17 181.7 232.64 182.17 231.73 182.21 231.54 183.05 230.96 183.5 230.51 184.02 229.81 184.45 229.85 185.25 230 186.01 229.3 186.55 229.23 187.26 229.54 187.97 229.01 188.68 229.44 189.35 229.19 190.13 229.95 190.64 230.51 191.14 230.2 192.06 230.55 192.68 231.31 192.98 231.64 193.61 232.34 193.86 232.7 194.5 233.22 195.02 234.11 194.82 234.61 195.4 235.24 195.75 235.87 196.27 236.63 196.05 237.35 196.28 238.08 195.76 238.84 195.89 239.57 195.72 240.22 195.32 240.8 194.83 241.73 194.97 242.34 194.51 242.59 193.65 243.26 193.29 243.49 192.54 244.46 192.37 244.81 191.74 244.62 190.89 244.74 190.23 245.27 189.66 245.12 188.95 244.95 188.27 245.34 187.59 245.38 186.88 245.39 186.06 244.54 185.51 244.72 184.59 244.48 183.8 243.26 183.22 243.81 182.58 244.89 182.52 245.2 181.88 245.05 180.91 245.44 180.33 246.18 180.02 246.26 179.21 246.8 178.75 247.24 178.21 247.75 177.72 248.25 177.21 248.31 176.39 248.71 175.81 249.32 175.39 250.03 174.99 250.47 174.39 251 173.86 251.13 172.96 251.87 173.54 252.58 173.72 253.32 173.77 253.9 174.45 254.28 174.32 254.68 174.87 255.04 175.56 255.16 176.26 254.51 177.01 254.76 177.71 254.48 178.43 255.4 179.09 255.13 179.82 255.2 180.52 254.75 181.26 254.67 181.97 254.9 182.67 254.8 183.39 255.14 184.08 255.58 184.77 255.34 185.5 255.74 186.2 255.54 186.97 254.74 187.11 254.15 187.43 253.84 188.16 252.87 187.94 252.76 188.84 252.42 189.39 251.54 189.6 251.22 190.28 250.69 190.85 251.04 191.78 250.75 192.48 250.33 193.18 250.2 193.96 250.27 194.75 250.42 195.53 250.55 196.31 250.86 197.04 250.59 197.97 251.36 198.4 251.78 199 252.22 199.57 252.75 200.07 253.44 200.37 253.67 201.34 254.35 201.71 255.1 201.88 256.01 201.45 256.53 202.42 257.35 201.87 258.06 202.02 258.47 201.83 259.21 202.15 259.86 201.75 260.74 202.19 261.17 201.29 261.96 201.36 262.52 200.97 262.87 200.3 263.56 200.08 263.94 199.51"/>
  </g>
</svg>