<svg xmlns="http://www.w3.org/2000/svg" id="_レイヤー_1" data-name="レイヤー 1" viewBox="0 0 500 500"><defs><style>.cls-1{fill:#fff;stroke-width:0}</style></defs><path d="M176.86 349.21c-.42-.53-.94-1.2-1.71-1.84-.66-.59-1.75-1.44-2.43-1.84l-.16-.1c-.81-.52-2.15-1.39-3.39-.58-1.38.9-2.25 1.81-2.66 2.77-.42.26-1.38.64-1.71.65-.52 0-1.07-.03-1.62-.05-1.18-.05-2.39-.1-3.44.03-.53.1-1 .06-1.6 0-.52-.05-1.1-.09-1.81-.06-.57.03-1.04 0-1.55-.04-.66-.04-1.34-.09-2.14 0-.88.1-1.71.04-2.44 0-.34-.02-.65-.04-.94-.04-.48-.04-1.03-.02-1.61 0-.61.03-1.3.05-1.78-.01-1.16-.3-2.43-.21-3.91-.06-1.02.07-2.53.05-3.33-.03-.22-.03-.53-.12-1.01-.61-.71-.72-1.96-1.23-2.64-1.46-.21-.07-.46-.18-.73-.28-1.52-.62-4.06-1.65-5.22.34-.59.96-.38 2.39 0 4.47.07.38.16.9.17 1.04 0 .32-.03.62-.05.92-.06.82-.14 1.74.12 2.97.12.62.08 1.12.02 1.8-.04.43-.07.9-.08 1.45 0 .47.02.92.05 1.37.04.69.08 1.29-.04 1.73-.01.06-.03.11-.03.17-.19 1.4-.3 2.51-.03 3.92.14.94.08 1.63.01 2.3-.03.36-.06.68-.06 1.01 0 .08 0 .16.02.23.13.85.08 1.48.02 2.14-.03.38-.07.76-.07 1.15l-.08 7.81c0 .36 0 .75.02 1.15.02.98.05 2-.13 2.94-.12.84-.17 1.94-.22 2.92-.03.56-.05 1.07-.08 1.44-.03.37-.1.8-.16 1.26-.14.93-.29 1.98-.3 3.04 0 .69-.19 1.46-.35 2.15-.11.47-.22.92-.26 1.3-.18 1.46-.24 2.01-.69 2.89-.53.9-.72 1.6-.93 2.33-.1.36-.21.76-.39 1.24-.02.05-.03.1-.05.15-.23.94-.8 2.01-1.29 2.39-.04.03-.08.07-.12.1-.71.69-1.01 1.19-1.25 1.59-.08.14-.16.27-.25.39a8.4 8.4 0 0 0-.3.41c-.33.45-.51.7-.9.98-.57.33-1.69 1.38-2.12 2.18-.39.64-.44.71-1.09.98-.68.28-1.46.93-2.41 1.76l-.45.39c-.86.77-1.18 1.06-1.96 1.3-1.68.58-2.4 1.53-2.89 2.4-.79 1.44-.64 2.74.46 3.86.94.96 2.12 1.32 3.23.98.63-.16 1.07-.39 1.45-.59.34-.18.64-.34 1.13-.47.04-.01.08-.02.12-.04.59-.21 1.12-.55 1.62-.88.48-.31.94-.61 1.38-.76.94-.3 2.31-1.46 3.05-2.12.05-.05.11-.11.15-.16.63-.77.8-.98 1.39-1.24.61-.25 1.06-.79 1.5-1.3.12-.14.3-.35.4-.45 1.2-.42 1.69-1.33 2.21-2.29l.1-.18c.4-.57.98-1.06 1.57-1.57.53-.44.9-1.08 1.27-1.7.17-.28.35-.6.48-.76.81-.82 1.3-1.9 1.74-2.97.17-.46.39-.92.61-1.38.2-.41.37-.79.5-1.12l.06-.18c.09-.39.21-.68.35-1.02.19-.47.41-1 .52-1.67.05-.21.11-.45.18-.7.18-.66.4-1.47.54-2.45.09-.65.26-1.68.61-3.02.13-.66.7-1.79 1.29-2.52.32-.44.92-.95 1.19-1.07.98.06 1.85.05 2.77.04h1.53c.56.02 1.03-.03 1.44-.07.69-.06 1.23-.11 2.09.07 1.06.31 1.95.21 2.74.12.5-.06.93-.1 1.33-.06.87.14 1.9.11 2.9.08.44-.01.87-.02 1.26-.02.29 0 .63.02.99.04.89.05 2 .11 3.12-.02 1.25-.21 2.89-.11 3.55.02.33.14 1.24.84 1.48 1.13.23.28.65.97.85 2.5.1.48.05.87 0 1.32-.04.38-.09.81-.05 1.33.07.57.05 1.57-.02 2.31-.12.79-.06 1.43-.02 1.9.02.2.04.48.04.5-.22.71-.14 1.33-.07 1.83.05.38.09.65.03.89-.22.78-.16 1.37-.11 1.88.03.33.06.61.03.99v.1c0 .16-.01.36-.02.57-.03.59-.06 1.33 0 2.08.12 1.44-.05 1.71-.47 2.36-.13.01-.32.02-.48.03-.43.02-1.02.04-1.68.15-.13.02-.25 0-.57-.07-.4-.08-.96-.2-1.79-.21-.84 0-2.48-.25-3.29-.48-1.43-.44-2.71-.36-3.61.22-.68.44-1.12 1.15-1.24 2-.36 2.49 2.46 3.33 3.73 3.7.63.16 1.21.24 1.72.31.69.1 1.24.17 1.73.41 1.14.5 1.29.58 1.53 1.06.09.21.16.46.24.73.21.75.5 1.77 1.47 2.46.72.51 1.57.67 2.41.67s1.74-.17 2.47-.32l.39-.08c1.34-.26 2.74-1.35 3.44-1.97.57-.49 1.97-1.77 2.57-3.06.02-.03.03-.07.04-.1.05-.13.11-.27.17-.42.38-.92.94-2.3.71-4.06-.03-.66-.02-1.25-.02-1.89 0-.7.01-1.46-.02-2.41-.02-.55 0-1.08.04-1.65.06-.93.12-1.88-.08-2.9l-.04-4.36c0-.49 0-1.09-.02-1.75-.02-.81-.03-1.73-.02-2.7 0-.6 0-1.27-.02-1.99-.01-.8-.03-1.66-.02-2.55l.04-4.45c0-.55.03-1.02.04-1.46.05-1.07.08-1.99-.09-3.22-.09-1-.05-1.77 0-2.66.03-.51.05-1.04.06-1.64 0-.46.02-.93.03-1.41.03-1.05.06-2.13.01-3.2 0-.06 0-.12-.02-.17-.18-1.03-.11-1.73-.04-2.61.04-.49.09-1.04.1-1.67 0-.5.03-.94.05-1.34.05-.81.09-1.51-.04-2.19-.05-.26-.01-.62.02-1.07.05-.6.12-1.36.03-2.24-.02-.29.01-.77.05-1.27.07-.93.15-2.1 0-3.18 0-.35.56-1.32.97-1.67.13-.11.35-.23.58-.36.67-.36 1.92-1.04 1.94-2.61 0-.82-.71-2.44-1.25-3.05-.11-.13-.21-.26-.32-.4Zm-11.21 27.36c.05.52.1 1.06.06 1.47-.24.87-.17 1.83-.11 2.77.04.51.07 1.04.05 1.49-.15.56-.46 1.14-.78 1.46-.63.62-1.01.73-1.31.75-.83.06-2.4.14-3.74-.02-.83-.21-1.71-.12-2.49-.03-.39.04-.98.11-1.22.04-1.31-.42-2.71-.27-4.19-.12l-.29.03c-.67.09-1.58.04-2.45 0-.43-.02-.84-.04-1.22-.05l-.34-.04c-1.04-.12-2.6-.29-3.86.02-1.19.12-2.84.04-3.7-.06-.77-.08-1.56-.17-1.99-.25a5.47 5.47 0 0 1-.09-1.35c.18-.85.14-1.37.11-1.75-.01-.19-.02-.31 0-.45.03-.26.07-.5.11-.72.16-.97.31-1.89 0-3.18-.01-.11.04-.44.07-.68.1-.73.25-1.71-.02-2.79.04-.09.17-.29.5-.49.17-.1.32-.19.47-.28.52-.32.77-.46 1.07-.51.43 0 .83.03 1.22.05.87.05 1.77.09 2.83-.01.37-.03.76 0 1.22.05.77.06 1.65.14 2.79-.03.57-.1 1.04-.05 1.63 0 .62.06 1.32.13 2.18.04 1.04-.08 2.1-.13 3.64.04.76.07 1.51.06 2.38.05H160.96c.93-.01 2.2-.02 2.7.04h.06c.24.06.89.38 1.37.8.34.36.6.78.67.99-.29.85-.2 1.79-.11 2.71Zm.24-16.11c.12.64.1 2.69 0 3.26-.24.6-.73 1.53-.84 1.68-.35.42-.39.43-1.14.54l-.18.03c-.18.02-.6-.02-.98-.06-.92-.09-2.06-.2-3.16.03-.69.08-1.43.04-2.21 0-.46-.02-.92-.05-1.4-.05l-3.86-.04c-.42 0-.88-.04-1.32-.07-.51-.04-1.03-.07-1.53-.07s-1.01.04-1.47.15c-.69.19-1.11.13-1.79.05-.44-.06-.99-.13-1.69-.13-.25 0-.64 0-1.08.02-.78.02-2.24.06-2.7-.03-.29-.06-.48-.17-.85-.39-.28-.17-.62-.38-1.05-.56-.1-.04-.28-.11-.28-.67l.2-3.69c.09-1.01.28-3.21.39-4.56 0-.45.28-.67.43-.75.47-.21.8-.42 1.1-.61.32-.2.55-.34.97-.49.27-.09 1.16.02 1.69.08.87.1 1.7.2 2.46.01.23-.06 1 0 1.46.05.74.06 1.51.13 2.13.03.61-.09 1.52-.04 2.34 0 .44.02.86.04 1.23.05.37 0 .73-.03 1.12-.06.72-.07 1.4-.13 2.23.05 1.06.28 2.33.2 3.55.12l.57-.04c.3 0 .72-.02 1.17-.06.6-.04 1.85-.13 2.21 0 .05.02.09.03.14.04l.37.09c.5.11.7.15.97.51.15.22.31.43.46.63.31.39.4.54.38.68-.17 2.28-.17 3.51-.02 4.23ZM245.81 383.03c.8 0 1.58-.2 2.35-.41.47-.13 1.26-.33 1.55-.28.54.16 1.09.11 1.61.07.37-.03.76-.06 1.12 0 .76.1 1.74.12 2.83.04.2 0 .38.04.59.08.55.11 1.3.25 2.35-.14.13-.03.53.01.79.04.44.05.93.1 1.46.06.04 0 .07 0 .1-.01.3-.05.53-.02.87.02.43.05.97.11 1.77 0 .02 0 .49-.09 2.23.05h.14l2.56-.06c.21 0 .41.02.63.04.58.05 1.3.1 2.18-.01.25-.02.51.01.82.05.55.07 1.23.14 2.03-.06.04-.01.09-.02.13-.04.4-.15 1.56-.03 2.06.02h.12c.19 0 .57 0 1.01-.02.53-.02 1.16-.04 1.63-.04.64.05 1.18-.01 1.62-.06.33-.04.65-.07.8-.03.1.02.21.04.31.04.38 0 1.58.17 2.52.47.05.02.1.03.16.04.61.12 1.12.31 1.61.49.47.18.96.36 1.44.45 1.82.42 3.06.38 3.88-.12 1.14-.65 1.71-1.34 2.38-2.15l.22-.26c.72-.88.79-2.36-.52-3.51-.26-.22-.55-.35-.8-.46-.41-.18-.7-.32-.99-.83-.33-.5-.84-.85-1.25-1.13-.09-.06-.19-.12-.26-.18-.37-.63-.93-1-1.31-1.26-.1-.07-.21-.13-.24-.15a6.21 6.21 0 0 1-.15-.24c-.44-.73-1.61-2.68-3.66-2.12-.88.29-1.27.83-1.5 1.16-.12.16-.16.22-.26.3-.03.02-.06.05-.09.07-.51.44-.78.78-.98 1.02-.13.16-.18.21-.25.28-.38.31-.62.59-.85.86-.14.16-.29.34-.52.56-.38.37-.62.66-.81.9-.08.1-.16.2-.27.32-.2-.02-.52-.09-.71-.14-.37-.09-.72-.17-1.08-.17h-1.07c-.57.01-1.1.02-1.49-.02-.34-.07-.68-.11-.99-.15-.81-.1-1.05-.16-1.2-.34-.35-.46-.8-.75-1.17-.98-.03-.02-.07-.04-.11-.07.22-.96.15-1.84.08-2.62-.03-.38-.06-.77-.06-1.18 0-.36-.03-.75-.06-1.16-.06-.7-.12-1.43.05-2.11.02-.07.03-.15.04-.23.02-.24.09-.34.77-.84l.17-.13c.49-.34 1.71-.81 2.12-.81.19 0 .39.03.6.05.6.07 1.43.16 2.33-.04.15-.02.36 0 .61.02.48.03 1.13.07 1.89.02.31-.03.63 0 1 .01.44.03.93.06 1.57 0 .26-.04.82-.01 1.31 0 .33.01.67.03 1.01.03.26 0 .49.03.71.06.55.06 1.24.15 2.11-.06.53-.11 1.28-.12 2.17-.04h.12c.44-.03 1.28-.14 1.87-.72.37-.36.58-.84.58-1.35.01-1.11-.5-2.2-1.66-3.55l-.25-.29c-.47-.57-.81-.96-1.93-1.57-.05-.03-.2-.18-.31-.29-.26-.26-.61-.62-1.18-1.04-.14-.1-.31-.33-.48-.55-.45-.59-1.2-1.57-2.58-1.59h-.03c-1.37 0-2.09 1.01-2.62 1.75-.2.28-.41.58-.65.83-.12.08-.23.14-.33.19-.44.25-1.17.65-1.46 1.71-.08.12-.3.31-.43.39-1 .19-2.45.17-3.9-.06-.17-.04-.38-.08-.61-.12-.35-.06-1.17-.21-1.35-.36-.05-.06-.1-.11-.16-.16-.49-.42-.75-.7-.87-.87.18-.76.07-1.5-.02-2.12-.06-.4-.12-.85-.05-1.09.16-.53.21-1.08.27-1.62.04-.37.1-.97.2-1.18.01 0 .02-.02.03-.02.85-.62 1.88-1.47 2.31-2.63.23-.68.36-1.91-1.38-2.6-.11-.04-.24-.09-.36-.16-.04-.02-.08-.05-.12-.07-.49-.25-1.17-.39-1.96-.56-.36-.08-.74-.16-1.15-.26-1.28-.27-1.85-.37-3.3-.48-.08 0-.25-.08-.41-.14-.44-.19-1.76-.77-2.77.54-1.13 1.56-.65 3.36-.33 4.54.09.32.18.66.19.79.02.69-.03 1.3-.08 1.89-.08.92-.16 1.79.07 2.64.15.73.23 1.13.02 1.68-.19.54-.58 1.19-.93 1.54-.34.34-1.16.66-1.52.66h-1.27c-1.01 0-2.26.02-2.91-.04-.84-.16-1.56-.17-2.19-.19-.71-.01-1.23-.02-1.67-.23-1.29-.61-4.48-.99-5.97.48-.26.25-.51.45-.73.62-.3.23-.82.64-1.1 1.2-.07-.09-.14-.19-.22-.31a3.89 3.89 0 0 0-1.23-1.18c-.17-.11-.24-.15-.34-.27l-.1-.12c-1.88-2.38-3.49-1.74-4.26-1.16-.54.4-.81.86-1 1.2-.17.3-.21.36-.41.47-.44.26-.66.63-.81.88-.11.19-.26.43-.69.77-.02-.16-.04-.32-.06-.45v-.04c-.04-.38-.01-.83.01-1.28.03-.48.05-.94.01-1.36l.05-5.38c0-.07 0-.13-.01-.2-.1-.73.34-1.8.71-2.09.17-.12.41-.25.65-.37.67-.34 1.5-.77 1.78-1.7.11-.38.17-.99-.21-1.65-.57-1.1-.94-1.43-1.48-1.85-.13-.1-.29-.22-.55-.46-1.29-1.05-2.26-1.02-3.54-.84-.43.04-.84.12-1.27.2-.44.08-.85.16-1.31.2-1.02.07-2.28.17-2.91 1.38-.75 1.37-.42 2.72-.2 3.62.04.15.07.3.11.47.06.27.03.99.02 1.47-.02.55-.03 1.03.02 1.46.05.37.02.67-.02 1.08-.05.5-.11 1.11-.02 1.86l.06.53c.07.6.16 1.35 0 1.77-.26.67-.19 1.36-.12 1.97.04.36.07.73.02 1 0 0-.16.93-.98.9-.69-.17-1.38-.1-1.99-.05-.42.04-.83.07-1.06.03-.6-.13-1.11-.16-1.55-.18-.56-.03-.94-.05-1.39-.25-1.13-.59-2.25-.33-3.25-.1-.3.07-.62.14-1.03.22-1.75.39-2.68 1.84-2.94 2.97-.15.64-.39 2.8 2.85 3.64.05.01.1.02.14.03l.7.11c1.02.17 2.07.35 3.04.26.67-.08 1.3-.24 1.85-.38.48-.12 1-.24 1.24-.25l1.99.02c.03.09.06.19.08.28l.08.24c.05.23.12.88.1 2.68 0 .67-.31 1.58-.55 2.32-.19.56-.35 1.04-.38 1.37-.15.79-.46 1.69-.61 2.07l-.06.18c-.28 1.08-.45 1.5-.51 1.64-.5.56-.63 1.22-.73 1.71-.06.28-.1.52-.23.76l-.21.44c-.3.62-.49 1.03-.73 1.95-.05.17-.13.28-.29.5-.27.37-.67.92-.71 1.78-.02.1-.06.17-.22.44-.19.3-.44.7-.66 1.35-.09.3-.2.48-.37.77-.17.29-.38.65-.61 1.18-.15.35-.27.56-.37.75-.18.33-.37.68-.6 1.4-.09.21-.38.78-1.26 2.12-.01.02-1.19 2.09-1.43 3.11-.03.1-.09.22-.15.35-.34.75-.84 1.88-.45 3.02.18.76.42 1.68 1.15 2.41.51.46 1.17.67 1.85.63 1.32-.1 2.44-1.15 3.13-1.99.18-.21.31-.4.45-.6.19-.28.36-.52.82-.97.67-.66 1.06-1.29 1.29-2.05.42-1.21.7-1.7 1.1-2.23.69-.96 1.01-1.6 1.49-3.01.06-.21.43-.95.66-1.38.25-.5.49-.96.63-1.32.15-.25.28-.49.41-.72 0 .25-.01.48-.02.71-.03.72-.05 1.41 0 2.24.02.21 0 .63-.04.99-.05.7-.1 1.37.04 1.88.26 1.09.13 2.34 0 3.45-.03.28-.06.54-.08.79-.43 1.9-.25 3.53-.14 4.18l-.26 9.58c-.14.88-.1 1.78-.07 2.58.03.72.06 1.39-.04 1.89 0 .04-.01.07-.02.11-.11.89-.11 1.51.16 2.46v.12c.05.76.16 3.08 2.2 3.74.43.14.81.19 1.16.19.79 0 1.4-.3 2.04-.61.18-.09.37-.18.63-.3.46-.22.78-.62 1.13-1.04.12-.14.32-.39.36-.43.45-.33.84-1.02 1.07-1.76.25.19.56.38.94.54 1.57.62 4.26.52 5.02.48.93-.04 1.62-.21 2.23-.36.61-.15 1.12-.29 1.91-.27.08 0 .16 0 .23-.02.47-.07.77-.05 1.32-.01.37.03.81.05 1.38.06.29 0 .57.01.86.03.64.03 1.3.05 2.13 0 .38-.04.95 0 1.46.02.61.03 1.14.05 1.58 0 .45-.05 1.83-.18 2.27-.03.04.01.09.03.13.04.86.21 1.6.14 2.19.09.35-.03.65-.06.95-.03h.12c.18 0 .46 0 .78-.02.45-.02 1.51-.07 1.88.02 1.48.31 2.52.21 3.41.05.64-.04 1.26-.01 1.86 0l.89.03c.52 0 .88 0 1.2-.01.51-.01.87-.02 1.61.03.54.06 1.03.04 1.5.02s.95-.03 1.56.01c.7.06 1.14.04 1.56.02.36-.02.71-.03 1.29 0 1.08.23 1.83.16 2.62.09.19-.02.39-.04.61-.05.08 0 .16-.02.24-.04.23-.05.48-.02.9.04.54.08 1.22.17 1.97 0 .59-.11 1.82-.05 2.49.04.56.08 1.4.06 2.21.05h.91c.41.02.87-.03 1.31-.06.55-.04 1.11-.09 1.43-.02.09.02.19.03.28.03 1.11 0 2.01-.86 2.02-1.99v-.12c-.11-1.43-.55-2.27-1.71-3.88-.45-.69-1.05-1.05-1.49-1.31-.1-.06-.21-.12-.29-.18-.51-.79-1.21-1.29-1.78-1.7l-.22-.16c-.33-.23-.55-.47-.81-.75-.45-.48-1-1.08-2.02-1.41-1.47-.44-2.35.89-2.77 1.53-.07.11-.14.22-.24.36-.06.09-.11.13-.31.3-.22.19-.53.44-.96.92-.38.46-.58.64-.76.81-.19.17-.36.33-.57.58-.23.26-.44.46-.63.66-.19.19-.38.37-.57.58-.04-.01-.08-.03-.12-.04-.38-.12-.91-.29-1.55-.29-.44-.01-.85.01-1.23.03-.55.03-.99.05-1.32-.02-.99-.23-2.42-.78-2.78-1.1l-.15-.12q-.98-.78-.97-1.29c0-.32.01-.74.03-1.19.03-1.11.07-2.49 0-3.53-.05-.44 0-1.05.04-1.69.07-.88.15-1.87 0-2.82-.01-.07-.03-.06-.05-.12.09-.25.86-.82 1.14-1.02 1.07-.83 1.76-.98 2.27-1.02.43-.03.89 0 1.33.02.5.03.96.05 1.41 0 .03 0 .07 0 .1-.02.32-.06.77-.05 1.24-.03.44.01.9.03 1.34 0 .57-.03.81.04 1.33.19.36.1.77.22 1.37.33.71.12 1.36.32 2.12.56.28.09.58.18.9.28.88.25 2.86.55 4.1-.15.13-.08.26-.16.4-.24.73-.42 1.84-1.05 2.47-2.68.4-1.26.58-2.22-.81-3.16-.36-.32-.68-.54-1.01-.78-.29-.21-.62-.45-1-.76-.24-.21-.41-.38-.56-.53-.28-.27-.54-.53-1.02-.9-.19-.15-.37-.28-.54-.39-.34-.24-.54-.39-.6-.47-.43-.74-1.56-2.7-3.6-2.57-1.15.1-2 .82-2.54 2.12-.08.2-.12.27-.12.27-.08.07-.19.12-.33.2l-.27.16c-.83.42-1.53 1.16-1.89 1.99l-.2.4s-.04.09-.06.13c-.61.02-1.76 0-2.71-.03-.56-.01-1.1-.03-1.54-.03-1.17-.01-1.68-.27-1.76-.36-.04-.04-.08-.08-.13-.12-.25-.2-.48-.35-.68-.47 0-.05.01-.11.02-.16.11-.79.25-1.86-.17-2.83-.07-.14-.14-.29.41-.67.76-.42 2.46-1.74 2.55-3.19.12-1.19-.55-2.03-2-2.51h-.04c-.51-.22-.97-.33-1.41-.43-.4-.09-.81-.19-1.35-.39-.79-.27-1.64-.31-2.33-.34-.28-.01-.67-.03-.77-.05-.19-.05-.37-.12-.54-.18-.69-.25-2.14-.78-3.1.53-.77 1.07-.5 2.27-.32 3.06.05.22.11.49.11.6v.04l.05 2.69c-.08.88-.21 1.08-.25 1.14-.23.32-.4.62-.59.94-.17.31-.34.6-.61.99l-.06.09c-.49.68-.66.91-.94 1.01-.3.12-.52.27-.69.38-.05.04-.1.08-.15.1h-.15c-1.24-.18-2.01-.29-3.27-.03-.59.03-1.1 0-1.54-.03-.49-.03-.91-.05-1.34 0-.87.13-1.51-.01-2.56-.26-.37-.09-.77-.18-1.25-.28-1.47-.26-3.38-.46-5.17.3-.07.03-.13.06-.19.1-.32.2-.59.35-.81.48-.95.54-1.85 1.06-1.72 2.8.15 1.35 1.32 2.91 3.01 3.19.85.14 2.58.38 4.58.4.85 0 1.65-.2 2.36-.38.63-.16 1.23-.31 1.67-.28.84.23 1.55.14 2.08.07.33-.04.58-.08.84-.03.21.03.39.07.57.1.87.16 1.77.32 2.98-.11.31-.03 1.12.54 1.47.78.23.17.45.32.62.42.49.32.96 1.13 1.01 1.33l-.04 4.45c0 .48 0 1.05.02 1.63.02.97.05 2.18-.04 2.66 0 .04-.01.07-.02.11-.04.35-.44 1.06-1.04 1.65-.03.03-.05.05-.07.08-.31.35-1.06.8-1.69.83-1.01.04-2.06.02-3.17-.01-.57-.01-1.14-.03-1.71-.04-.35 0-.78-.02-1.24-.03-1.1-.03-2.36-.06-3.5-.01-1.98.15-3.04.2-4.24-.02l-.69-.13c-1.52-.3-2.62-.51-3.84-.52-.23 0-.49-.01-.78-.02-1.28-.04-2.88-.1-4.06.31-.43.15-.81.33-1.12.54-.03-.32-.07-.62-.14-.9-.11-.48-.09-1-.07-1.62.03-.75.06-1.6-.14-2.64-.16-.73-.13-2.37-.1-3.35v-.7c.01-.07 0-.15 0-.22-.17-1.14-.09-2.11 0-3.22l.06-.84v-.25c-.08-.71-.03-1.32.03-2.1.05-.59.1-1.26.11-2.1 0-.35-.03-.75-.07-1.18-.08-.87-.16-1.77.12-2.66.24-.7.36-2.64.19-3.64.02-.2.16-.57.29-.77.08 0 .16-.01.24-.02.12-.01.31-.03.48-.04.34 1.11 1.11 2.05 1.52 2.55.16.18.32.52.46.82.27.56.54 1.14 1.11 1.49l.11.07c.49.3 1.4.87 2.48.99h.16c1.11 0 2.45-.96 3.04-1.42 1.1-.96 1.16-1.9 1.23-2.81l.03-.4c.21-2.44-.47-4.18-1.98-4.96-.03-.02-.1-.14-.16-.22-.17-.27-.43-.66-.9-.98l-.12-.12c-.2-.21-.42-.41-.7-.6 1.12.21 2.38.21 3.35.21h.5Zm8.2-17.01c.59-.14 1.15-.27 1.6-.27h.02c.34 0 .7.03 1.1.06.97.07 2.17.15 3.51-.04.18.02.66.34.95.54.2.13.4.27.56.37.6.39.6.57.6.9.04.93.02 1.54 0 2.25-.01.39-.03.8-.03 1.28 0 .33 0 .76.02 1.22.02.64.05 1.83-.03 2.2l-.04.19c-.08.41-.16.77-.38.92l-.18.12c-.41.27-.87.58-1.34.67-.05 0-.09.02-.14.03-.44.13-.98.08-1.67 0-.45-.04-.96-.1-1.53-.1-.26 0-.64 0-1.04.02-.61.02-1.75.06-2.08-.02-.91-.22-1.75-.17-2.55-.12-.38.02-.78.05-1.21.05h-.6c-1.35 0-2.03-.01-3.19-.45-.06-.02-.13-.04-.2-.06-1.71-.38-3.58-.29-5.14.26-1.35.47-2.38 1.82-2.6 2.83-.16.61-.22 1.88 1.5 3.09-.08-.04-.15-.07-.22-.11-.42-.2-.79-.37-1.13-.44l-.23-.05c-.94-.21-1.15-.27-1.34-.42h-.01l-1.68-1.4c-.25-.29-.38-.79-.38-.98.07-.97.06-1.81.05-2.78 0-.51-.01-1.05 0-1.67l.04-3.95c0-.23.03-.29.03-.29.09-.14.73-.52.99-.67.46-.28 1.55-.95 2.53-.94l2.77.03c.36 0 .67.02.96.04.73.04 1.42.08 2.32-.13.75-.18 1.99-.91 2.38-2.16 1.12.26 2.08.28 3 .29.4 0 .82.01 1.26.04.96.06 1.92-.16 2.75-.35ZM401.52 360.82c-.07-.09-.14-.2-.21-.32-.37-.6-.98-1.6-2.31-1.94-.19-.05-.38-.22-.66-.5-.37-.37-.88-.87-1.7-.98-.25-.03-.43-.11-.67-.24-.32-.16-.75-.37-1.3-.38-1.24.02-2.03 1.03-2.6 1.79-.13.17-.24.34-.35.45-.35.34-1.08.74-2 .74h-.03l-2.69-.03c-.36-.01-.75.01-1.12.03-.45.02-1 .05-1.26 0-1.61-.56-3.22-.29-4.29-.12l-.33.05c-.94.15-2.1.33-3.3-.01-.55-.15-.97-.45-1.41-.77-.58-.42-1.25-.9-2.26-.98-.08-.03-.14-.08-.21-.12-.32-.19-.79-.49-1.55-.57-.23-.02-.49-.15-.74-.28-.44-.23-1.36-.7-2.17-.1-1.29.84-.97 2.33-.77 3.21.09.42.19.85.18 1.23l-.06 6.21c0 .44-.02.81-.03 1.16-.02.66-.05 1.28 0 2.06s.06 1.51.02 2.32c-.15-.52-.4-1.02-.8-1.42-.09-.09-.19-.2-.29-.31-.47-.51-1.12-1.21-2.24-1.95-.28-.17-.53-.34-.77-.51-.63-.43-1.33-.93-2.31-1.18-.14-.05-.27-.18-.45-.39-.28-.3-.75-.8-1.51-.82-.33 0-.81.08-1.27.53-.19.19-.32.34-.45.49-.17.2-.21.25-.5.39-.4.17-1.01.57-1.78 1.83a11.888 11.888 0 0 0-.48.78c-.93.27-1.33 1-1.53 1.38-.08-.01-.19-.04-.27-.05-.39-.08-.97-.21-1.66-.12-.11-.1-.29-.28-.58-.61a.752.752 0 0 0-.16-.15c-.18-.14-.27-.23-.32-.29 0-.05.02-.12.04-.22.39-1.24.22-3.22.09-4.29-.05-.39 0-.96.06-1.56.09-.98.19-2.08-.01-3.16-.02-.13-.05-.3-.1-.49-.05-.2-.16-.65-.13-.76 0 0 .04-.03.21-.09.95-.37 1.52-1.15 1.86-1.61.03-.04.06-.08.08-.12.65-.23 1.93-.32 2.66-.37l.38-.03c.67-.04 1.35-.29 2.01-.53.42-.15 1.12-.4 1.4-.37.44.06.71.18 1.01.31.4.17.9.39 1.6.4h.09c2.81 0 3.51-1.32 3.67-2.11l.04-.16c.17-.63.53-1.95-.2-3.3-.07-.12-.14-.24-.2-.35-.34-.61-.77-1.38-1.7-1.94-.25-.17-.54-.3-.82-.43-.22-.1-.62-.28-.71-.39-.67-1.36-1.88-1.64-2.35-1.75-1.12-.35-1.93.24-2.32.51-.08.06-.21.15-.19.16h-.02c-.67 0-1.33.31-1.91.58-.17.08-.31.15-.4.18-1.54.33-2.19.7-2.58.99-.05 0-.1 0-.15.01-.4.04-1.08.1-1.8.64q-.24.18-.64.24c-.24.03-.53.08-.96.17-.2.05-.37.09-.54.13-.72.17-1.34.33-1.94.79-.41.33-1.31.47-2.11.6-.46.07-.94.15-1.41.27-.5.14-1.22.23-1.91.32-.77.1-1.56.2-2.25.38-.26.06-.47.12-.66.17-.46.13-.56.16-1.03.11-1.04-.13-1.94.02-2.83.45h-.16c-.5 0-1.33.02-2.13.49-.42.22-.62.25-.91.29-.29.04-.69.1-1.24.34-.17.08-.39.15-.6.22-.73.24-1.63.54-2.04 1.36-.07.08-.34.23-.5.31-.52.28-1.61.87-1.44 2.14v.12c.02.5.05 1.54.92 2.33.66.61 1.63.89 2.8.82 1.21.03 2.23-.17 2.99-.54.05-.02.25-.01.39-.01.42 0 1 .01 1.58-.24.25-.09.79-.14 1.28-.18.4-.04.82-.08 1.3-.15.3-.06.56-.12.79-.17.65-.14 1.04-.23 1.87-.28.92-.05 1.72.12 2.72.33l.32.07c.67.26.86.44.89.43 0 .84-.03 2.76-.28 3.44-.03.07-.04.14-.06.21-.17.81-.09 1.62-.02 2.34.06.62.12 1.2 0 1.62q-.2.79-1.07 1.31c-.98.6-1.53.71-2.43.88l-.4.08-.19.05c-.02 0-.49.13-2.26-.11-1.25-.1-2.18-.11-3.13-.02-.56.06-1.45-.16-2.17-.34-.64-.16-1.19-.3-1.76-.3-.44.02-.86 0-1.32-.04-1.02-.07-2.17-.15-3.34.35-2.28.91-2.9 2.43-2.73 3.49.16.83 1.04 2.39 2.73 3.01 1.05.38 2.24.4 3.38.42.41 0 .82.01 1.16.04 1.13.11 3.05-.14 4.58-.6.49-.14 1.41-.06 2.16 0 .47.04.91.08 1.28.09.26.01 1.16.39 1.81 1.07.35.6.36 1.29.36 1.96-.07.28-.45.96-.67 1.37-.45.81-.84 1.52-.94 2.18-.03.08-.14.29-.23.46-.17.32-.41.77-.66 1.42-.11.32-.38.8-.75 1.47l-.2.35c-.16.31-.31.52-.48.74-.3.41-.68.92-.78 1.78-.03.4-.27.64-.62.97l-.21.2c-.85.93-1.15 1.35-1.48 2.3-.07.19-.15.28-.33.48-.29.32-.67.76-.9 1.55-.02.08-.03.11-.03.18-.04.11-.3.37-.44.51-.28.28-.58.57-.73.93-.14.29-.28.45-.49.68-.25.28-.57.63-.85 1.19-.28.55-.69 1.14-1.24 1.79-.47.52-.84 1.24-1.17 1.87-.16.31-.35.67-.46.82l-.06.09c-.54.88-.83 1.67-1.14 2.5l-.09.25s-.03.09-.04.14c-.4 1.55-.13 2.65.83 3.31.98.64 2.64.9 4.88-1.49.14-.14.29-.26.43-.38.45-.39 1.02-.88 1.46-1.73.02-.04.04-.07.05-.11.19-.46.6-.85.96-1.19l.1-.1c.44-.38.68-.77.84-1.04.73-.18 1.15-.85 1.47-1.36.08-.13.16-.26.22-.33.39-.38.63-.87.89-1.39.25-.5.55-1.12.87-1.27.94-.46 1.23-1.16 1.53-1.91l.1-.24c.3-.72.46-.96.71-1.2.78-.76.99-1.18 1.39-2.05l.06-.13c.09-.15.19-.26.33-.42.26-.3.6-.7.9-1.32.06.22.11.47.15.74.14.95.04 2.05-.01 2.36-.15.72-.12 1.3-.08 1.86.02.25.03.53.03.85v.14c.06.69 0 1.38-.05 2.05-.07.8-.13 1.57.01 2.31.05.7 0 1.18-.07 1.74-.07.62-.15 1.32-.06 2.36.12.94.06 1.56-.02 2.29-.05.47-.11 1-.11 1.63v1.2c0 1.03 0 1.93-.11 2.82-.19 1.43-.21 3.29-.22 4.21-.05.76-.02 1.4 0 1.92.02.4.04.78 0 1-.29.94-.05 1.62.21 2.03.69 1.08 2.1 1.21 2.86 1.28h.21c1.23 0 2.33-.26 3.37-.81 1.34-.71 2.04-1.34 2.42-3 .26-1.09.28-2.27.06-3.61l-.29-4.04c-.02-.36-.02-.79-.01-1.23.01-1.03.02-2.2-.25-3.18-.17-.59-.1-1.34-.03-2.06.06-.64.12-1.3.03-1.94-.14-1.01-.29-2.49-.05-3.68.17-.97.11-1.8.06-2.53-.04-.58-.08-1.13-.02-1.68.3-1.8.49-3.19.08-4.78-.13-.41 0-1.25.14-2.08v-.07c.25-1.24.49-1.67.53-1.74l.04-.03c.06-.03.11-.07.15-.1.03.01.06.03.1.05.19.11.76.68 1.14 1.33.59.94.98 1.54 1.67 1.96.59.39.71.78.86 1.31.08.28.17.59.33.88.23.43.53.87.79 1.26.15.22.36.53.44.66.28.92 1.14 1.94 3.58 1.96 1.1 0 1.73-.45 2.21-.81.21-.16.44-.33.7-.49 1.38-.68 2.02-3.06 1.7-4.05-.32-1.25-.36-1.69-.35-1.91v-.16c-.09-.87-.55-1.43-.88-1.84-.17-.21-.31-.38-.41-.58l-.09-.19c-.4-.84-.96-1.99-2.55-2.27-.12-.03-.32-.2-.55-.4-.3-.26-.67-.58-1.14-.82a17.52 17.52 0 0 0-2.98-1.3c-.15-.05-.45-.23-.71-.38-.71-.42-1.51-.89-2.41-.89h-.12c-.09 0-.24-.09-.58-.38-.25-.21-.52-.44-.81-.6-.26-.17-.45-.51-.44-.66.07-.36.59-1.65.87-1.98.61-.68.81-.84 1.27-.78.06 0 .12.01.19.01.57.02 1.12-.04 1.64-.08.87-.07 1.69-.13 2.6.02.07.01.14.02.21.02.17 0 .51.07.83.13.41.08.92.18 1.47.23.21.02.45.1.73.2.57.2 1.36.47 2.29.32.22-.03.35 0 .6.05.48.1 1.2.24 2.19-.17 1.34-.39 2.04-1.1 2.4-1.82.01.33.04.67.09 1 .2 1.25.06 2.85-.04 3.91v.13c-.23 1.26-.15 2.3-.08 3.14.04.54.08 1 .03 1.38 0 .06-.01.12-.01.19l-.04 4.45c0 .66.02 1.19.04 1.67.04.89.07 1.49-.12 2.51-.29.91-.2 1.95-.1 2.95.05.58.12 1.24.05 1.55 0 .04-.02.09-.02.13-.1.82-.09 1.72-.08 2.58.01.71.02 1.45-.06 1.99-.14 1.47-.14 2.27-.13 3.29v1.28c0 .63-.06 1.26-.11 1.87-.09 1.08-.18 2.1.01 2.96 0 .08-.03.35-.05.56-.09.74-.22 1.86-.01 3.52.11.9.3 1.92 1.18 2.52.9.63 1.96.37 2.27.3.17-.04.38-.06.61-.09.92-.11 2.06-.25 2.87-.94.08-.07.17-.13.25-.2.6-.46 1.6-1.22 1.85-2.87.25-1.08.17-2.37.1-3.51-.03-.55-.07-1.11-.04-1.42v-.11c0-.14.18-.4.48-.84.2-.29.43-.62.64-.97.58-.85.85-.8 1.07-.75 1.25.34 3.04.25 4.77.12l.37-.03c.79-.03 1.55 0 2.28.02.76.03 1.54.06 2.38.02.51-.03 1.33.34 1.68.63.71.58.78.68.92 1.23.1.45.23.81.36 1.17.14.36.26.71.37 1.2.02.08.04.15.07.23.14.35.22.71.3 1.06.13.59.27 1.2.73 1.67 1.31 1.34 3.08.44 4.13-.1l.61-.3c.76-.34 2.54-1.15 2.41-3.1-.02-.24.03-.75.08-1.25.09-.99.21-2.23.04-3.37 0-.04-.01-.08-.02-.12-.26-1.1-.18-2.48-.12-3.39.02-.32.04-.59.04-.8 0-.33-.03-.74-.08-1.17-.05-.47-.12-1.25-.04-1.53.02-.07.04-.15.05-.22.14-1.01.06-1.95 0-2.64-.02-.22-.04-.41-.04-.58.12-.92.09-1.65.06-2.31-.01-.31-.03-.62-.03-.96 0-.47-.01-.99-.03-1.53-.02-.53-.03-1.07-.03-1.58v-1.02c-.01-.68-.02-1.46.02-1.87.19-1.17.14-2.35.05-3.46 0-.17.02-.4.03-.65.06-1.07.1-1.95-.02-2.61-.04-.44 0-1.26.02-1.92.01-.36.02-.7.03-.98 0-.36.02-.76.03-1.18.03-.97.06-2.06.01-3.1 0-.06 0-.11-.02-.17-.16-.94-.09-1.61-.02-2.32.05-.53.11-1.08.08-1.72-.03-.44.08-.83.19-1.29.12-.45.25-.96.26-1.54v-.11c.04-.17.25-.58.43-.82.07-.07.17-.15.29-.25.7-.58 1.66-1.36 1.67-2.49.01-1.19-.5-2-.97-2.59Zm-10.83 15.43.03.34c.04.67.02 1.19 0 1.7-.01.25-.02.49-.02.71 0 .12-.02.28-.03.47-.05.65-.12 1.54.04 2.36.01.07-.03.31-.06.47-.09.54-.22 1.29.05 2.12.05.23 0 1-.03 1.37-.02.3-.04.57-.04.77 0 .54.03.95.06 1.31.04.47.05.6 0 .76l-.03.1c-.16.59-.12 1.27-.08 1.92.02.31.04.69.02.85 0 .06-.01.12-.01.18 0 .27-.01.58-.03.9-.03.91-.05 1.49.03 1.9.01.06.03.11.04.17.06.19.03.38-.04.75-.08.44-.2 1.04-.02 1.73.03.2 0 .45-.03.76-.05.45-.11 1-.03 1.66-.12.39-.67 1.32-.91 1.73l-.27.47c-.31.56-.92.86-1.04.88-.48-.12-.95-.16-1.41-.16s-.9.04-1.34.08c-.69.06-1.34.12-1.99.01-1.26-.19-3.26-.31-5.01-.06-.21-.03-.76-.5-1.08-.79-.17-.15-.34-.3-.45-.39-.17-.16-.46-.65-.85-2.11l-.05-.19c-.15-.53-.11-.85.06-1.9.13-.78.08-1.39.05-1.88-.02-.31-.04-.56-.01-.81.09-.93.03-1.73-.03-2.43-.06-.81-.12-1.46.08-2.15.51-1.11.33-2.32.07-3.39-.12-.44-.09-.62.03-1.3.03-.19.07-.4.12-.72l.04-.33c.08-.74.14-1.32 0-2.43-.04-.55.01-1.15.06-1.63.03-.31.05-.57.05-.77 0-.47.03-.97.06-1.42.02-.44.05-.85.05-1.18.01-1.16.04-1.95.09-2.28.12-.7.21-1.85.22-3.09v-.59c0-.6-.02-1.28.1-2.06.14-.95.46-1.6.99-2.07l.35-.31c.34-.31.92-.83 1.15-.83l8.96.09c.25.03.96.44 1.29.92.45.66.86 1.77 1 2.38 0 .17-.02.42-.04.7-.07.94-.1 1.6.06 2.18.07.27.08 1.26-.04 1.82-.28.97-.18 1.94-.1 2.72ZM172.38 454.26l-.69-.3c-.12-.05-.26-.07-.38-.05l-.6.09c-.07 0-.14.03-.21.06l-.53.26-.34.09-1.02-.26a.691.691 0 0 0-.47.06l-.23.12-.24-.13a.74.74 0 0 0-.44-.08l-.43.06-.34-.09-.53-.31a.728.728 0 0 0-.41-.09l-.45.03c-.05 0-.1.01-.15.03l-.87.26-.72.03a.64.64 0 0 0-.41.16l-.43.34-.17-.05a.708.708 0 0 0-.88.42l-.19.49c-.11.3-.01.64.25.83l.68.49c.12.08.25.13.4.13l.81.02c.06 0 .11 0 .17-.02l.48-.1.27.28s.06.06.09.08l.67.49.38.52-.09.28c-.05.15-.04.31.01.46l.21.57.06.43-.24.35c-.07.1-.11.21-.12.32l-.11.89-.29.66-.37.69-.41.46-.72.25a.77.77 0 0 0-.27.17l-.55.56-.43.15-.81-.48a.83.83 0 0 0-.41-.1l-.83.06-.79-.03-1.17-.77a.671.671 0 0 0-.23-.1l-.54-.13-.09-.48a.7.7 0 0 0-.41-.52l-.67-.3.03-.3a.742.742 0 0 0-.2-.58l-.6-.6-.27-.49.28-.62c.12-.26.06-.57-.14-.78l-.45-.47.18-.32a.65.65 0 0 0 .09-.43l-.1-1.25c0-.05-.01-.1-.02-.15l-.15-.54a.734.734 0 0 0-.19-.33l-.09-.09.15-.14c.21-.2.27-.52.16-.78l-.21-.49.24-.5c.07-.14.09-.29.06-.44l-.31-1.62.6-.72c.11-.14.17-.31.16-.49l-.04-.84.16-.63.68-.58c.07-.06.13-.13.17-.21l.35-.69c.06-.13.09-.27.07-.41l-.12-.95.22-.55.45-.42.68.11c.27.05.54-.07.69-.29l.47-.65.51-.09.86.28c.1.03.2.04.3.03l.51-.06.57.06c.12.01.23 0 .34-.05l.44-.17.14.51c.05.18.16.33.32.43l.53.32c.17.1.38.13.56.07l.2-.06.03.08c.06.13.15.24.27.32l.49.31c.08.05.17.09.26.1l.48.08.18.68c.04.17.15.31.29.41l.42.28.25.42s.04.07.07.1l.44.51c.15.18.39.27.62.24h.08l.53.47c.25.22.62.25.89.06l.72-.51c.32-.22.4-.66.18-.98l-.63-.92-.32-.57.05-.58a.747.747 0 0 0-.09-.41l-.35-.63v-.66a.69.69 0 0 0-.38-.63l-.41-.21.14-.44c.1-.32-.04-.67-.34-.84l-1.27-.74a.744.744 0 0 0-.46-.1l-.63.08c-.23.03-.43.17-.54.37l-.29.55-.21.09-.61-.12-.74-.42a.732.732 0 0 0-.54-.07l-.27.08-.23-.21a.708.708 0 0 0-.56-.18l-.39.04-1.06-.56a.714.714 0 0 0-.89.22.67.67 0 0 0-.64-.25.72.72 0 0 0-.55.42l-.27.61-.05.04-.3-.13a.709.709 0 0 0-.88.26s-.13-.06-.13-.06c-.2-.09-.43-.09-.62.01s-.33.29-.37.5l-.12.64-1.09.33c-.31.08-.53.36-.53.68v.32l-.08.03c-.04.01-.08.03-.12.06l-.98.58c-.16.09-.28.25-.33.44l-.17.66s-.01.07-.02.1l-.05.45-.24.26-1.07.65a.71.71 0 0 0-.32.83l.18.55-.49.5c-.2.18-.29.46-.21.72l.17.6-.58.35c-.27.15-.42.46-.36.76l.15.76c.02.11.07.22.15.31l.22.27-.56.66c-.22.25-.24.63-.03.9l.42.55.08.18-.13.26c-.08.16-.1.35-.05.53l.06.19-.25.29c-.17.19-.22.46-.14.7l.37 1.05-.03.47c-.01.19.05.38.19.53l.58.64-.06.38c-.03.22.04.44.2.6l.2.2.03.45c.01.19.1.37.25.49l.66.55.23.91a.7.7 0 0 0 .22.38l.43.38c.16.14.37.2.58.17l.38-.06c.06.17.18.31.34.39l.34.18.24.27.27.52c.12.24.37.38.63.38v.03c.03.24.18.45.4.55l.7.34c.17.08.36.09.54.03l.48-.16h.5s.07-.01.1-.02l.24-.04.15.19c.23.3.66.37.97.15l.1-.07.17.17c.08.08.17.13.27.17l.63.21c.19.06.39.05.56-.04l.21-.11.29.18c.12.07.25.11.38.11.12 0 .25-.03.36-.1l.5-.29.76-.25.81-.1c.15-.02.29-.08.4-.19l.43-.41.33-.13.47-.02.66.06.4.11c.27.07.57-.02.74-.25l.03-.04a.703.703 0 0 0 1.02-.04l.41-.46.66-.51c.21-.16.31-.42.27-.67l-.09-.56-.05-.76c0-.06-.02-.13-.04-.19l-.25-.71s-.03-.07-.04-.1l-.15-.29.27-.34c.21-.26.21-.64 0-.9l-.34-.41.05-.18.46-.48c.27-.28.26-.72-.01-.99l-.34-.34.05-.14h.72l.49-.06c.07 0 .14-.03.21-.06l.62-.29c.28-.13.44-.42.41-.72v-.09l.47-1.28a.707.707 0 0 0-.38-.89ZM199.36 461.63l-.73-.29a.695.695 0 0 0-.53 0l-.65.26c-.06.02-.11.06-.16.09l-.61.46s-.07.06-.1.09l-.44.49-.53.31s-.06.04-.09.07l-.39.32-.53-.07h-.14l-.73.06c-.07 0-.14.02-.21.05l-.55.22-.47-.11c-.06-.01-.13-.02-.18-.02h-.54l-.82-.58a.706.706 0 0 0-.42-.14h-.38l-.08-.54a.71.71 0 0 0-.28-.5l-.45-.33-.09-.06-.33-.17-.03-.17.14-.58a.71.71 0 0 0-.2-.68l-.44-.42-.19-.37.08-.43.19-.46 1.83-.17.58.12c.1.02.21.02.31 0l.76-.19.45-.15.45.21c.12.05.26.08.39.06l.63-.08.64.12a.7.7 0 0 0 .38-.03l.5-.19 1.22.27c.07.02.13.02.2.02l.72-.03c.12 0 .25-.04.35-.11l.54-.35.38.05a.707.707 0 0 0 .79-.79l-.09-.67-.18-.67.07-.58a.711.711 0 0 0-.14-.51l-.27-.36.06-.51c.01-.12 0-.24-.05-.35l-.26-.61a.776.776 0 0 0-.16-.24l-1.15-1.06-.12-.09-.43-.25-.2-.43c-.1-.2-.28-.35-.5-.39l-.43-.09-.22-.38a.804.804 0 0 0-.22-.23l-.59-.38c-.1-.07-.22-.1-.34-.11l-.55-.04-.5-.3c-.15-.09-.32-.12-.49-.09l-.69.12-1.64.19a.71.71 0 0 0-.35.13l-.65.47-.72.3-1.54.77-.63.46c-.14.1-.23.24-.27.41l-.15.61-.55.4c-.16.11-.26.29-.29.48l-.08.57-.52.34c-.13.08-.23.21-.28.35l-.31.85-.22.79c-.02.06-.03.13-.02.2l.02.88s0 .09.02.14l.12.54-.31.54c-.12.21-.13.48-.01.69l.32.6-.02.53-.18.75c-.06.24.02.5.2.67l.59.57.23.34-.06.54c-.02.16.02.31.1.45l.45.74c.07.11.16.2.28.26l.76.39.58.23.32.32.44.62c.04.06.09.11.15.16l.63.48c.06.05.13.08.2.11l.72.24c.07.02.15.04.22.04l1.55-.03.71.14s.08.01.12.01l1.04.03h.02c.09 0 .18-.02.26-.05l.94-.37.91-.1c.09 0 .18-.04.26-.08l2.81-1.6c.07-.04.13-.09.18-.14l.69-.78a.72.72 0 0 0 .15-.27l.14-.47.23-.39c.1-.18.13-.39.06-.59a.725.725 0 0 0-.41-.43Zm-6.6-9.99 1.64 1.13.22.59c.03.08.07.15.12.21l.29.35-.1.23-.3.36-.39.38-.5.15-.45.07-.49-.21a.764.764 0 0 0-.27-.06h-.68c-.09 0-.19.02-.28.06l-.44.18-.45-.09a.593.593 0 0 0-.23 0l-.35.05-1.01-.99-.06-.21.19-.52.34-.53 1.06-1.05 1.47-.24.66.14ZM227.83 463.61a.69.69 0 0 0-.3-.17l-.5-.14-.49-.38a.794.794 0 0 0-.26-.13l-.17-.04.03-.36a.761.761 0 0 0-.11-.44l-.4-.62a.72.72 0 0 0-.19-.2l-.8-.57-.68-.66-.46-.38-.21-.88a.711.711 0 0 0-.47-.51l-.09-.03.03-.19c.01-.08 0-.15 0-.23l-.1-.56a.69.69 0 0 0-.29-.45c.08-.2.07-.42-.03-.61l-.25-.46v-.07l.13-.14c.1-.1.17-.23.19-.37l.07-.38.95-.75.55-.32.55-.22c.26-.1.44-.35.45-.63.27.02.51-.13.65-.37.14.1.31.14.49.13l.75-.08c.09 0 .17-.03.25-.07l.84-.43c.2-.1.34-.29.38-.5l.17-.89a.686.686 0 0 0-.26-.68l-.46-.36-.37-.58c-.11-.18-.3-.3-.51-.32a.708.708 0 0 0-.58.2l-.35.34-.14-.02-.74-.45a.7.7 0 0 0-.75.01l-.78.51-.44.05-.66-.43a.716.716 0 0 0-.47-.11l-.56.07c-.05 0-.1.02-.16.04l-.64.23c-.14.05-.27.15-.35.28l-.44.64c-.06.08-.1.16-.12.25l-.2.75c-.08.3.05.63.32.79l.69.42c.14.08.3.12.46.09l.42-.06-.66.47c-.1.07-.18.17-.23.28l-.27.56-.67.34c-.05.03-.1.06-.15.1l-.78.71-.46.21a.66.66 0 0 0-.2.14l-.42.41c-.05.05-.09.11-.13.17l-.05.09-.24-.12.11-.35c.02-.06.03-.12.03-.18l.03-.55c0-.08 0-.16-.03-.23l-.14-.48-.03-1.06c0-.05 0-.11-.02-.16l-.19-.71.35-.82c.03-.08.05-.16.06-.25l.02-.54c0-.12-.02-.24-.07-.34l-.18-.36.17-.74c.02-.1.02-.21 0-.31l-.18-.81.42-.77c.05-.09.08-.19.09-.29l.04-.66-.1-1.68a.692.692 0 0 0-.22-.46s.05-.05.05-.05c.26-.22.33-.6.16-.9l-.1-.18.09-.22c.07-.16.08-.33.02-.49l-.18-.56a.736.736 0 0 0-.28-.37l-.76-.61a.71.71 0 0 0-1 .06l-.39.44-.24.11-.6-.15a.698.698 0 0 0-.49.06l-.63.33c-.16.08-.29.23-.35.4l-.24.7-.41.24h-.07c-.07.03-.13.05-.19.08l-.74.4c-.28.15-.43.48-.35.79s.35.54.67.54l.76.02.38.14.33.33.29.4.04.34c.01.1.04.2.09.28l.26.45.02.14-.44.41c-.13.12-.21.29-.23.46l-.05.65c-.02.2.06.4.2.55l.29.29-.11.21c-.06.1-.08.22-.08.34v.66c0 .18.07.36.2.49l.35.37-.03.16-.37.51c-.12.17-.16.39-.11.59l.14.55-.08.53c-.01.09 0 .19.02.28l.17.66c.02.07.05.14.09.2l.08.12-.34.26a.71.71 0 0 0-.28.5l-.07.7c-.02.22.06.44.22.59l.43.41v.16l-.31.48c-.11.17-.14.38-.09.57l.11.42-.2.41c-.13.28-.07.62.16.83l.26.24-.11.18c-.15.24-.15.54 0 .78l.11.16-.21.2c-.07.07-.12.14-.16.23l-.26.6a.71.71 0 0 0 .11.74l.4.46-.38.19-.41-.15c-.29-.1-.61 0-.79.23l-.23.29-.32.19c-.16.1-.28.25-.33.44s-.02.38.08.54l.28.46c.03.06.08.11.13.15l.45.42c.05.05.11.09.17.12l.67.32c.3.15.67.06.87-.21l.07-.09.13.13c.26.26.67.28.96.04l.59-.5.23-.07.41.3c.2.14.46.17.69.08l.24-.1.22.23c.13.14.32.23.52.23s.38-.08.52-.23l.49-.52.13-.02c.11-.02.22-.06.32-.13l.56-.41s.01 0 .02-.02l.48.64c.15.2.4.31.66.27l.48-.06.44.25c.19.11.42.13.62.04l.32-.13.65.22c.16.05.34.05.49-.02l.69-.29.8.1.98.3c.07.02.14.03.21.03h.02l.96-.03c.33 0 .61-.24.67-.57l.15-.73.25-.53c.13-.28.07-.61-.15-.82l-.44-.42Zm-8.29.61s-.1-.07-.17-.1l-.49-.2-.07-.12a.754.754 0 0 0-.29-.27l-.59-.29a.492.492 0 0 0-.17-.06l-.47-.1-.32-.47.05-.47.21-.48.41-.54c.23-.3.18-.73-.11-.97l-.29-.25.33-.19c.16-.09.28-.24.33-.42l.14-.47.19-.05.23.41c.05.1.13.18.22.24l.58.39c.08.06.18.09.28.11l.35.06.07.24-.04.78a.7.7 0 0 0 .5.71l.62.19.3.28.11.6c.01.06.03.11.05.17v.02h-.17a.85.85 0 0 0-.22.04l-.8.3a.7.7 0 0 0-.34.27l-.43.65ZM260.43 463.61a.657.657 0 0 0-.29-.17l-.5-.14-.49-.38a.794.794 0 0 0-.26-.13l-.17-.04.03-.36a.761.761 0 0 0-.11-.44l-.39-.62a.72.72 0 0 0-.19-.2l-.8-.57-.68-.66-.46-.38-.21-.88a.711.711 0 0 0-.47-.51l-.09-.03.03-.19c.01-.08 0-.16 0-.23l-.1-.56a.69.69 0 0 0-.29-.45c.08-.2.07-.42-.03-.61l-.25-.46v-.07l.13-.14c.1-.1.17-.23.19-.37l.07-.39.95-.75.55-.32.55-.22c.26-.1.44-.35.45-.63.28.01.51-.13.65-.36.14.1.32.14.49.13l.75-.08c.09 0 .17-.03.25-.07l.84-.43c.2-.1.33-.29.38-.5l.17-.89a.686.686 0 0 0-.26-.68l-.46-.36-.37-.58c-.11-.18-.3-.3-.51-.32a.742.742 0 0 0-.58.2l-.35.34-.14-.02-.74-.45a.7.7 0 0 0-.75.01l-.78.51-.43.05-.66-.43a.765.765 0 0 0-.47-.11l-.56.07c-.05 0-.1.02-.16.04l-.64.23c-.14.05-.27.15-.35.28l-.44.64c-.06.08-.1.16-.12.25l-.2.75c-.08.3.05.63.32.79l.69.42c.14.08.3.11.46.09l.42-.06-.66.47c-.1.07-.18.17-.23.28l-.27.56-.67.34c-.05.03-.1.06-.15.1l-.78.71-.46.21a.66.66 0 0 0-.2.14l-.42.41c-.05.05-.09.11-.13.17l-.05.09-.24-.12.11-.35c.02-.06.03-.12.03-.18l.03-.55c0-.08 0-.16-.03-.23l-.14-.48-.03-1.06c0-.05 0-.11-.02-.16l-.19-.71.35-.82c.03-.08.05-.16.06-.25l.02-.54c0-.12-.02-.24-.07-.34l-.18-.36.17-.74c.02-.1.02-.21 0-.31l-.18-.81.42-.77c.05-.09.08-.19.09-.29l.04-.66-.1-1.68a.692.692 0 0 0-.22-.46s.05-.05.05-.05c.26-.22.33-.6.16-.9l-.1-.18.09-.22c.07-.16.08-.33.02-.49l-.18-.56a.736.736 0 0 0-.28-.37l-.76-.61a.71.71 0 0 0-1 .06l-.39.44-.24.11-.6-.15a.691.691 0 0 0-.49.06l-.63.33c-.16.08-.29.23-.35.4l-.24.7-.41.24h-.07c-.07.03-.13.05-.19.08l-.74.4c-.28.15-.43.48-.35.79s.35.54.67.54l.76.02.38.14.33.33.29.4.04.34c.01.1.04.2.09.28l.26.45.02.14-.44.41c-.13.12-.21.29-.23.46l-.05.65c-.02.2.06.4.2.55l.29.29-.11.21c-.06.1-.08.22-.08.34v.66c0 .18.07.36.2.49l.35.37-.03.16-.37.51c-.12.17-.16.39-.11.59l.14.55-.08.53c-.01.09 0 .19.02.28l.17.66c.02.07.05.14.09.2l.08.12-.34.26a.71.71 0 0 0-.28.5l-.07.7c-.02.22.06.44.22.59l.43.41v.16l-.31.48c-.11.17-.14.38-.09.57l.11.42-.2.41c-.13.28-.07.62.16.83l.26.24-.11.18c-.15.24-.15.54 0 .78l.11.16-.21.2c-.07.07-.12.14-.16.23l-.26.6a.71.71 0 0 0 .11.74l.4.46-.38.19-.41-.15c-.29-.1-.61 0-.79.23l-.23.29-.32.19c-.16.1-.28.25-.33.44s-.02.38.08.54l.28.46c.03.06.08.11.13.15l.45.42c.05.05.11.09.17.12l.67.32c.3.15.67.06.87-.21l.07-.09.13.13c.26.26.67.28.96.04l.59-.5.23-.07.41.3c.2.14.46.17.69.08l.24-.1.22.23c.13.14.32.23.52.23s.38-.08.52-.23l.48-.52.13-.02c.12-.02.22-.06.32-.13l.56-.41s.01 0 .02-.02l.48.64c.15.2.4.32.66.27l.48-.06.44.25c.19.11.42.12.62.04l.32-.13.66.22c.16.05.34.05.49-.02l.69-.29.8.1.98.3c.07.02.14.03.21.03h.02l.96-.03c.33 0 .61-.24.67-.57l.15-.73.25-.53c.13-.28.07-.61-.15-.82l-.44-.42Zm-8.29.61a.95.95 0 0 0-.17-.1l-.49-.2-.07-.12a.754.754 0 0 0-.29-.27l-.59-.29a.492.492 0 0 0-.17-.06l-.47-.1-.32-.47.05-.47.21-.48.41-.54c.23-.3.18-.73-.11-.97l-.29-.25.33-.19c.16-.09.28-.24.33-.42l.14-.47.19-.05.23.41c.05.1.13.18.22.24l.58.39c.08.06.18.09.28.11l.35.06.07.24-.04.78c-.01.32.19.62.5.71l.62.19.3.29.11.59c.01.06.03.11.05.17v.02h-.17a.85.85 0 0 0-.22.04l-.81.3a.7.7 0 0 0-.34.27l-.43.65ZM286.62 461.63l-.73-.29a.695.695 0 0 0-.53 0l-.65.26c-.06.02-.12.06-.17.09l-.6.46s-.07.06-.1.09l-.44.49-.53.31s-.06.04-.09.07l-.39.32-.53-.07h-.14l-.73.06c-.07 0-.14.02-.21.05l-.55.22-.47-.11c-.06-.01-.1-.02-.18-.02h-.54l-.82-.58a.706.706 0 0 0-.42-.14h-.38l-.08-.54a.687.687 0 0 0-.29-.5l-.45-.33-.09-.06-.33-.17-.03-.17.14-.57a.71.71 0 0 0-.2-.68l-.44-.42-.19-.37.08-.43.19-.46 1.83-.17.58.12c.1.02.21.02.31 0l.76-.19.45-.15.45.21c.12.05.25.08.39.06l.63-.08.64.12c.13.03.26.01.38-.04l.5-.19 1.22.27c.07.02.14.02.2.02l.72-.03c.12 0 .25-.04.35-.11l.54-.35.38.05c.22.04.44-.04.59-.2s.23-.38.2-.59l-.09-.67-.18-.67.07-.58a.75.75 0 0 0-.14-.52l-.27-.36.06-.51c.01-.12 0-.24-.05-.35l-.26-.61a.776.776 0 0 0-.16-.24l-1.15-1.06-.12-.09-.43-.24-.2-.43c-.1-.2-.28-.35-.5-.39l-.43-.09-.22-.38a.804.804 0 0 0-.22-.23l-.59-.38c-.1-.07-.22-.1-.34-.11l-.55-.04-.5-.3c-.15-.09-.32-.12-.49-.09l-.69.12-1.64.19a.71.71 0 0 0-.35.13l-.65.47-.72.3-1.46.72s-.06.03-.08.05l-.63.46c-.14.1-.23.24-.27.41l-.15.61-.55.4c-.16.11-.26.29-.29.48l-.08.57-.52.34c-.13.08-.23.21-.28.35l-.31.86-.21.79c-.02.06-.03.13-.03.2v.88l.03.14.12.54-.31.53c-.12.21-.13.48-.01.69l.32.6-.02.53-.18.75c-.06.24.02.5.2.67l.59.57.23.34-.06.54c-.02.16.02.31.1.45l.45.74c.07.11.16.2.28.26l.76.39.58.23.32.32.44.62c.04.06.09.11.15.16l.63.48c.06.05.13.08.2.11l.72.24c.07.02.15.04.22.04l1.55-.03.71.14s.08.01.12.01l1.04.03h.02c.09 0 .18-.02.26-.05l.94-.37.91-.1c.09 0 .18-.04.26-.08l2.81-1.6c.07-.04.12-.09.18-.14l.69-.78a.72.72 0 0 0 .15-.27l.14-.48.23-.39c.1-.18.13-.39.06-.59a.725.725 0 0 0-.41-.43Zm-6.6-9.99 1.64 1.13.22.59c.03.08.07.15.12.21l.29.35-.1.23-.3.36-.39.38-.49.16-.45.07-.49-.21a.764.764 0 0 0-.27-.06h-.68c-.09 0-.19.02-.28.06l-.44.18-.45-.09a.593.593 0 0 0-.23 0l-.35.05-1.01-.99-.06-.21.19-.52.34-.53 1.06-1.05 1.47-.24.66.14ZM308.08 464.29a.707.707 0 0 0-.84-.39h-.04l-.87-.59-.24-.22.06-.28c.03-.13.02-.27-.03-.4l-.17-.46.15-1.31.28-.7c.07-.17.07-.36 0-.53l-.17-.43.33-.46c.08-.11.12-.24.13-.37l.05-.8c0-.12-.02-.25-.07-.36l-.37-.73-.2-.8-.19-.51.26-.52c.11-.21.1-.47-.02-.67l-.23-.41.3-.45c.04-.05.07-.11.09-.17l.26-.8c.05-.15.05-.32 0-.46l-.18-.49.29-.45c.13-.2.15-.46.05-.68l-.44-.98a.707.707 0 0 0-.8-.4l-1.42.36c-.14.04-.26.12-.35.23l-.33.41-.33.08H301.68l-.95.12c-.35.05-.61.34-.62.69l-.02 1.13c0 .07 0 .13.02.2l.19.71c.05.2.19.36.37.45.18.09.39.1.58.02l.11-.04v.03c.04.12.1.23.19.32l.16.16v.43c0 .12.04.23.09.34l.44.77-.21.25c-.2.25-.21.6-.03.86l.27.38-.06.17-.44.59c-.21.29-.18.68.08.93l.48.46v.08l-.34.41c-.13.15-.19.35-.17.55l.07.61c0 .06.02.12.04.17l.27.67c.02.05.05.1.08.15l.28.4-.03.21-.35.51-.25.43s-.05.1-.07.15l-.15.49-.25.27-.92.09c-.25.01-.47.16-.59.38l-.32.6c-.13.25-.1.57.09.79l.81 1c.16.21.43.31.68.26l.59-.11.49-.04.74.25c.07.02.15.04.22.04h.04l.91-.05c.1 0 .2-.03.29-.08l.66-.35.64.04c.1 0 .21-.01.31-.05l.33-.14.19.16c.2.18.49.22.74.12l.55-.23c.25-.1.42-.34.43-.61l.04-.6c0-.12-.01-.23-.06-.34l-.2-.44ZM301.3 444.3c.05.16.16.29.29.38l1.37.87c.17.11.38.14.57.08l.55-.16.38.16a.706.706 0 0 0 .69-.07l.61-.43c.1-.07.18-.16.23-.27l.31-.64c.04-.08.06-.17.07-.26l.04-.7c0-.15-.03-.3-.11-.43l-.23-.36v-.58a.674.674 0 0 0-.24-.55l-.58-.49a.714.714 0 0 0-.58-.16l-.69.12-.52-.08a.73.73 0 0 0-.71.32l-.3.46-.58.24c-.15.06-.27.17-.35.31l-.46.8a.71.71 0 0 0-.06.57l.28.87ZM343.43 449.54c-.1-.3-.38-.51-.72-.48l-.93.06c-.13 0-.25.05-.35.12l-.56.39-.34-.06-.64-.37a.62.62 0 0 0-.24-.08l-.83-.13-.81-.03c-.09 0-.16 0-.23.03l-1.54.49c-.17.06-.3.17-.39.33l-.25.44a.71.71 0 0 0-.08.43l.09.72c.04.35.34.61.69.62h.64l.53.22.18.13v.06l-.29.53c-.04.06-.06.13-.08.2l-.14.63a.78.78 0 0 0 0 .34l.12.42-.12.3a.71.71 0 0 0-.04.43l.07.3-.08.05c-.12.08-.22.2-.28.34l-.22.57c-.03.07-.04.14-.05.22l-.03.53-.12.52s-.02.1-.02.15v.3l-.32.22c-.1.07-.18.17-.23.28l-.26.55s-.08-.08-.12-.11l-.44-.3.08-.19c.11-.27.04-.57-.17-.77l-.44-.42-.04-.07.23-.37c.1-.17.13-.37.08-.56a.688.688 0 0 0-.36-.44l-.2-.1.06-.17a.69.69 0 0 0 0-.49l-.14-.37-.14-.68a.66.66 0 0 0-.12-.27l-.31-.43a.912.912 0 0 0-.17-.17l-.12-.08.13-.18c.16-.23.17-.53.02-.77l-.04-.07.71-.47.3-.25.64-.31c.19-.09.33-.26.38-.47s0-.42-.12-.59l-.49-.65a.756.756 0 0 0-.34-.25l-.48-.16-.66-.34a.722.722 0 0 0-.41-.08l-.41.05a.69.69 0 0 0-.37.16l-.72.6-.62.16-.41-.04-.69-.56a.7.7 0 0 0-.77-.08l-.73.37-.58-.02a.62.62 0 0 0-.5.19l-.33.31v-.02c.07-.25 0-.51-.18-.69a.708.708 0 0 0-.69-.18l-1.19.34-.59.21-.54-.32a.729.729 0 0 0-.58-.06l-.51.17-.59-.37a.706.706 0 0 0-.85.07l-.62.55-.55-.07-.84-.27c-.26-.08-.55 0-.74.2-.19.2-.24.5-.13.75l.22.52-.04.39c-.02.21.05.42.21.57l.38.38c.18.18.44.25.68.18l.46-.12.47.08.27.45.06.82-.05 1.1c-.01.25.11.5.33.63l.52.33.1 1.34c.01.2.1.38.25.51l.57.47.08.33-.31.82c-.09.23-.05.49.1.68l.55.71s.08.09.13.13l.48.37.05.63-.18.79c-.05.24.02.49.2.66l.66.64.35.62-.03.54c0 .1.01.2.05.29l.25.64-.09.92c-.02.2.05.4.19.55.14.15.34.24.54.22l1.54-.04c.26 0 .5-.16.62-.4l.78-1.5c.07-.13.1-.27.08-.42l-.07-.61v-.41l.38-.31c.15-.12.25-.3.27-.5l.05-.61.32-.42c.1-.13.15-.29.15-.46l-.02-.61.79-1.15c.05-.07.09-.15.11-.23l.26-.94c.02-.06.02-.12.03-.18.01.02.03.03.04.04l.18.17-.15.67a.72.72 0 0 0 .03.41l.25.67c.03.09.08.17.14.23l.5.54.33.57.09.12.29.32-.08.51c-.03.23.05.46.22.62l.29.27-.13.42c-.03.09-.04.18-.03.27l.06.74c0 .08.03.17.07.25l.29.6.17.95a.721.721 0 0 0 .7.59c.05 0 .11 0 .16-.02l1.27-.3a.69.69 0 0 0 .51-.48l.26-.87.37-.69c.06-.11.08-.22.08-.34v-.79l.25-.6 1.42-2.25a.72.72 0 0 0 .07-.59l-.19-.58.42-.39c.17-.16.25-.38.22-.61l-.06-.46.42-.21c.18-.09.31-.25.36-.44l.27-1 .22-.65c.02-.06.03-.12.04-.19l.05-.93-.02-.52.56-.48c.17-.15.27-.38.24-.6l-.08-.8.15-.16.45.04c.24.02.47-.07.62-.26l.38-.46.08-.04c.06-.03.12-.07.18-.11l.68-.6c.22-.19.3-.49.2-.76l-.3-.87Zm-16.77 2.45c.05-.07.1-.15.12-.24.08.13.21.23.35.28l.68.25a.7.7 0 0 0 .55-.02l.34-.16.08.04-.1.64c-.02.14 0 .28.05.4l.2.45c.04.1.11.19.2.25l-.22.38a.71.71 0 0 0-.07.55l.14.49-.5.42c-.17.13-.28.33-.29.54l-.02.42-.2.37c-.05.08-.08.17-.08.27l-.06.59c0 .09 0 .18.02.27l-.25.05c-.2.04-.36.17-.46.34l-.09.15a.695.695 0 0 0-.36-.43l-.26-.13.05-.15c.09-.28 0-.58-.22-.77l-.14-.12.13-.29a.66.66 0 0 0 .06-.27l.02-.56c0-.27-.14-.52-.38-.65l-.68-.36-.22-.27-.06-.44.07-.51a.701.701 0 0 0-.22-.61l-.29-.28.08-.56.18-.24.04.02c.1.06.22.1.34.11l.88.04c.23 0 .45-.09.59-.27Zm4.08 5.99s-.01.09-.02.14l-.14-.16.21-.25-.06.27ZM367.38 463.57a.7.7 0 0 0-.52-.34l-.65-.08c-.11-.01-.22 0-.33.04l.09-.16c.08-.15.11-.32.08-.49l-.14-.75a.825.825 0 0 0-.1-.26l-.27-.4.44-1.38c.06-.19.04-.39-.05-.56l-.27-.51-.12-.35.18-.81c.01-.06.02-.11.02-.17l-.02-.91.31-.95c.03-.09.04-.18.03-.27l-.14-1.66.12-.72c.03-.16 0-.33-.08-.47l-.4-.7-.35-.46-.12-.55a.692.692 0 0 0-.31-.45l-.5-.32-.42-.45a.671.671 0 0 0-.46-.22l-.54-.05-1.11-.58a.594.594 0 0 0-.26-.07l-.66-.06a.669.669 0 0 0-.51.16l-.48.4h-.66l-1.01.11-.87.17-1.08.13c-.15.02-.29.08-.4.18l-.65.59-.88.31c-.15.05-.27.15-.36.28l-.58.88c-.09.13-.13.29-.12.45l.09 1c0 .06.02.12.04.18l.21.58c.06.16.17.3.33.38l.27.15.28.41c.17.25.5.37.79.28l.29-.09.59.13c.15.03.3.02.44-.04l.69-.31c.16-.07.29-.2.36-.36l.26-.59.49-.53c.08-.08.13-.19.16-.3l.16-.57.2-.39 1.21-.53.29.03.3.19.44.49.13.69c.03.15.1.28.21.39l.12.12-.06.11c-.08.16-.1.34-.06.51l.18.68-.33.3-.52.3-.6.19c-.05.02-.1.04-.15.07l-.62.37s-.08.05-.11.08l-.17.15-.29-.08a.7.7 0 0 0-.75.27l-.24.32-.18.04-.58-.05c-.3-.04-.57.12-.7.39l-.25.5-.17.13-.49.02c-.2 0-.39.1-.52.26l-.45.56-.31.5c-.03.06-.06.12-.08.18l-.12.42-.15.18-.46.34c-.06.05-.12.11-.16.17l-.36.53a.57.57 0 0 0-.11.28l-.09.52c-.02.09-.01.19 0 .28l.16.66.23.72.1.73c0 .07.03.13.06.2l.32.7c.05.12.14.22.25.3l.51.34.44.54a.6.6 0 0 0 .27.2l1.58.66.82.25c.07.02.13.03.2.03h.08l.74-.09c.11-.01.21-.05.3-.11l.58-.37.56-.18c.12-.04.23-.11.32-.21l.35-.41.83-.21.4-.15.33.05.39.19.47.3.18.34c.1.18.27.31.47.36l.64.15c.16.04.32.02.47-.05l.69-.34.74-.18c.13-.03.26-.1.35-.2l.53-.56s.04-.04.06-.07l.49-.67c.17-.23.18-.54.04-.78l-.27-.46Zm-9.31-.2-.51-.14-.28-.43-.25-.6.24-.63.46-.84.78-1.21.38-.26.6-.09c.06 0 .12-.03.18-.06l.83-.38s.07-.04.11-.06l.5-.35.35.08.21.29-.17.29c-.1.18-.12.39-.06.58l.2.6.07.57-.06.63-.14.58a.88.88 0 0 0-.02.17v.35l-.48.41-.71.4-.75.22-1.51-.14ZM369.44 207.8l.56-1.39-1.5.33.55-1.43-.67-.38-.44-.58-.9-.15-.35-.66-.15-.86-.6-.43-1.41.4.03-1.05-.91-.08.03-1.08-1.14.18.12-1.21-.24-.82-.72-.28-1.04.12-.81-.15.45-1.69-1.12.25-.46-.58h-.91l-.46-.58v-1.21l-1.22.46-.42-.65-.38-.71-.55-.49-.75-.17-1.09.35-.05-1.24-.27-.94-1.31.74-.31-.86-.25-.99-.62-.37-1.06.38-1.01.33-.67-.27-.53-.51-.28-.99-1 .35-.29-.99-.91.2-.6-.41-.18-1.26-1.03.49-.23-1.22-.81.04-1.03.53-.63-.34-.25-1.24-.79.01-.43-.83-1.14.86-.29-1.2-.91.34-.56-.55-.7-.18-.81.11-.43-.93-.62-.42-.89.34-.9.44-.44-.96-.77.03-.39-1.14-.83.24-.78.08-.87.38-.72-.1-.72-.06-.47-.99-.62-.45-.77.07-.89.57-.53-.83-.84.4-.67-.3-.69-.19-.37-1.55-.79.16-.96 1.01-.72-.08-.4-1.55-.81.34-.59-.75-.78.22-.76.16-.78.14-.72-.11-.59-.89-.69-.37-.82.43-.77.17-.69-.35-.65-.65-.92 1.23-.73-.03-.68-.46h-.74l-.78.34-.66-.61-.75.04-.77.31-.68-.53-1.16-1.15.18 1.42-.4.6-.06.77-1.18.13.09.88.02.89-.39.63-1.21-.12.23 1.22-.45.61-1.16-.28.16 1.42-1.24-.52-.5.53-.26 1.05-.73.21-.81-.03-.82-.15-.48.92-1.01-1.14-.43 1.49-1.18-.71-.06 1.08 1.12.6v.79l-.56.78.24.76-.4.72 1.1.92-1.61.43.59.84.29.84-1.15.36-.06.72.16.85-1.27.13.15.87-.04.81-.09.84-1.17-.03.29 1.22-.77.27-.62.38-1.07-.19-.61.32-.44.62-.01 1.44-.75.27-1.36-1.14-.63.31-.54.61-.77-.12-.62.5-.72.07-.62.97-.75.27-.78-.82-.73.8-.62-1.1-.69.02-.69-.02-.57-.57-.94.79-.42-.1-.62.16.07.95-1.32-.1-.61.4-.12.84.24 1.32-1.43-.53.28 1.56-.63.43-1.37-.81-.03 1.45-.81.07-1.16-.91-.57.45-.55.6-.81.27-.08.86.37.71.27.71-.03.72-.72.72.63.71-.56.72 1.16.7-.64.72-.56.72-.33.72.07.71 1.41.71-1.24.72.36.72-.65.72-.08.71 1.06.71-.74.72-.06.72-.28.71 1.76.71.03.71-1.34.72.29.71.11.72.45.71.17.72.24.71-.39.72-.33.71.02.72.69.71-.43.72-.03.72-.52.72-.31.72.95.71.13.71v.72l-.37.72-.8.72.83.71.32.72-.37.72-.08.72-.42.72-.41.72.57.72-.4.72.63.71-.8.73.07.72 1.22.71-.42.72-.61.73 1.4.71-.09.72-1.11.73 1.24.71-.68.72-.56.73 1.01.71-.56.72-.75.73.03.72-.2.72 1.53.71.17.72-1.25.73 1.09.71-.22.72-.21.72.16.72-.23.73-.36.72.7.72-.48.72.12.72.26.72.48.72-.61.72-.85.73.77.71.49.72-.06.72.3.72-.62.72-.17.73.65.71-1.28.73-.21.72.44.72.56.72-.08.72-.62.72.45.72.33.72-1.1.73.24.71-.03.72.68.72-.68.72-.23.73.3.71.38.72-.14.72.16.72.46.72-.82.72.49.72.59.71-.61.72-.22.72.59.72.48.71-1.23.73-.08.71.41.72-.43.72v.71l1.18.71-.84.72-.35.72-.24.72v.71l1.54.71-1.06.72.76.71-1.2.73.72.71.28.72-.96.72.53.71-.31.72.78.71.51.71-.49.72-.27.71.25.71-.99.71.31.72-.14.7 1.27.9-.69.74-.43.66.92-.23.24 1 .91-.12.31.89.93-.18.08 1.35.54.53.69.25.69.25 1.02-.4.43.75.63.35 1.04-.49.13 1.43 1.05-.56.23 1.26.81-.04.94-.36.58.47.34 1.11.87-.24.61.43.83-.14.86-.27.26 1.43 1.2-1.25.34 1.26.83-.24.66.29.53.75.73.09.82-.23.51.88.62.48 1.07-1.23.67.26.41 1.41 1-1.16.61.58.6.7.77-.17.62.61.86-.7.81-.46.57 1 .6.83.81-.53.78-.36.59 1.06.77-.27.7.2.78-.47.64.96.79-.82.77-.69.66.97.75-.44.72-.18.71.18.69 1.16.75-1.19.71 1.18.72-1.2.72-.11.74 1.1.71-.49.74.52.68-1.05.8 1.4.72-.17.7-.38.65-1 .78.68.65-.75.7-.19.71-.12.75.18.86.99.7-.22.57-1.11.65-.47.77.24.8.38.74.05.62-.59.6-.65.86.58.83.39.66-.4.45-1.17 1.07 1.25.3-1.7.82.27.8.18.75.01.43-1.08.99.75.66-.32.55-.65.6-.48.92.45.48-.81.59-.46 1.04.7.45-.85.65-.31.74-.1.73-.13.74-.12.16-1.42 1.25.99.72-.17v-1.66l1.21.82.09-1.44 1.19.73-.01-1.55 1.28.86.75-.16.44-.7.05-1.37.8-.04.84.01.56-.47.42-.7.7-.24 1.16.47v-1.33l.74-.18.35-.77.47-.58 1.44.79.19-.98.11-1.06.68-.28.43-.62.67-.29 1.47.69-.23-1.43.9-.04.1-1 1.31.43-.28-1.42.82-.15.35-.68.95-.03.89-.12-.17-1.22.98-.02.26-.76.76-.26.19-.82.58-.45.17-.82h1.06l.35-.65-.2-1.14 1.11.02-.11-1.05 1.45.29.32-.68.81-.27v-.94l.39-.61.71-.36.2-.75.15-.8.08-.83.33-.64 1.52.19-.47-1.2.43-.58 1.23-.04.24-.71.66-.44-.26-1.02-.09-.9.78-.37.41-.59-.22-.96.69-.43.57-.5-.04-.84.64-.47 1.11-.24-.03-.83.44-.59.32-.65-.39-.99 1.39-.14-.27-.92-.11-.84.21-.69 1.37-.21-.2-.86.3-.66-.61-1.02-.02-.77 1.76-.11-.14-.82.2-.7-.54-.94.07-.73 1.53-.27-.71-.98.92-.47-.24-.82v-.75l.48-.62-.29-.82.06-.72 1.09-.48-.85-.93.48-.63 1.07-.52-1.32-.99 1.46-.46.23-.7-.81-.86.67-.63-.18-.76.33-.68v-.73l-.23-.75.27-.69.6-.68-1.31-.83 1.61-.6-.95-.78.13-.72-.08-.72.96-.69-.6-.74.11-.72-.09-.72.36-.73-.98-.7 1.26-.76-.09-.73-1.66-.62.59-.76.23-.74-.01-.72-.81-.64.46-.78.75-.82-.3-.69-.3-.69-.81-.6.84-.88-.84-.58-.01-.73-.57-.61.61-.88.26-.8-1.16-.47-.59-.58.92-1-.05-.74-1.02-.45-.72-.53-.06-.73-.04-.74-.59-.55-.18-.7.22-.84.23-.86-.07-.76-1.41-.2.46-.97-1.23-.24.14-.84-.34-.63-.2-.69-.33-.64.27-.94-.72-.44-.84-.36.94-1.33-.85-.36-1.25-.1.06-.86-.36-.62.56-1.2-1.3-.02.02-.87-.53-.52-.12-.79-.5-.53-.03-.87-.82-.29-.29-.69-1.16-.01.49-1.31-1.64.4zM251.08 206.36l-1.34.21v-1.26l-1.38.57-.01-1.12h-1.04l.54-1.5-1.38.22-.49-.57.13-.98-.93-.29-.41-.64.09-.39-.53-.27-.69.25-.64.34-.39 1.02-1.09-.87-.45 1.06-.9-.66-.71.1-.64.64-.73.21-.74.11-.71-.86-.78.67-.68-.46-.8.28-.59-.72-.99.75-.64-.5-.6-.52-.37-.92-.69-.22-.5-.54-.84-.04-.57-.4-1.16.28-.06-1.01-.31-.67-.92-.14-.6-.44.48-1.23-.48-.49-.29-.63-.64-.44-.14-.7-.08-.71-.98-.4-.64-.58.46-.85.67-.83-.49-.73-1.14-.76.11-.33-.14-.13-.34-1.34-.83.19-.76-.07-.75-.15-.06-1.35-1.12.44-.62-.39-.24-.87-.47-.53-.91-.09-.71-.34-.12-.87-1.15-.05-.21-.78.72-1.29-.7-.41-.5-.55-.39-.62-.54-.54-.63-.55.79-.92-.34-.62.35-1.33-1.29.02-.6 1.09-.68.27-.78-.57-.66.46-.82-.87-.73-.07-.59 1.07-.64.58-.85-1.07-.73-.05-.65.49-.64.58-.62.68-.82-.71-.74-.12-.55 1.06-.8-.48-.58.86-.8-.49-.7.13-.68.24-.62.56-.79-.41-.8-.41-.57.83-.73-.06-.69.2-.58.7-1.01-1.4-.71.08-.42 1.45-.73-.02-.71.07-.89-.75-.46 1.21-1-1.13-.7.17-.45 1.19-.77-.14-.6.55-.8-.24-.59.57-.68.21-.99-.8-.44 1.02-.89-.46-.74.08-.3 1.41-.62.37-1.01-.73-.56.57-.83-.2-.54.63-.36 1.07-.86-.24-.63.33-.95-.43-.79-.02-.25 1.26-.69.19-.62.37-.47.69-.94-.32-.89-.22-.58.46-.76.1-.64.33-.38.84-.21 1.12-.8.03-1.17-.65-.29.95-.48.6-.78.09-.77.12-.48.59-.55.46-.92-.1-.59.43-.22.95-.7.25-.32.79-.64.33-1.12-.32.31 1.61-1.43-.7.01 1.19-.64.34-1.19-.32-.57.45.48 1.65-.98-.03-.9.06-.18.88-.81.18.12 1.16-.7.29-1.05-.03.43 1.42-.66.35-.49.51-.94.11-.33.66.03.97-1.12-.02-.04.9-1.27-.11-.6.45.56 1.34-1.11.06.22 1.05-.97.19-.19.75-.9.26.27 1.04-.88.29-.27.69-.49.55-.76.39 1.03 1.43-1.72-.14.26.97.07.85-.67.46-.55.53.26.93-.12.74-1.23.21.44.99-.54.55-.29.66.17.84-.4.61-.11.72-1.4.24.88 1.09-1.65.19-.08.74 1.15 1.13-.18.69-1.17.4-.48.61-.52.61.51.89.31.82-1.35.41.94.96-.84.55.92.93-.08.71-1.27.49.51.83.19.75-.3.68-.95.59 1.11.88-.52.65-.88.62-.08.72.44.77-.86.65 1.31.83-1.07.65-.44.7.06.73-.14.72 1.15.76-.7.7-.31.73.9.72-.92.73 1.31.69-.62.74.3.71.27.7-.79.77.21.71-.38.75 1.5.6-.88.8.77.64-.29.76-.46.78 1.17.57-.83.84.57.64-.21.77.95.56.05.72-.14.75.32.67-.1.75.38.65-1.05.98.18.71 1.05.48-.58.89.01.75.48.62.97.47-.49.9 1.45.3-1.04 1.09.38.64.38.64.05.75-.13.82 1.44.23-.12.82.87.42-.34.92.79.45-.1.82.86.41-.57 1.04-.04.82.82.41.48.56-.24.93.58.52.98.3.5.54-.48 1.08-.01.83 1.22.14-.71 1.25.52.54 1.04.21.37.62-.3 1.05.76.37.78.36.28.67.13.79.95.22.53.5.25.7-.51 1.28 1.15.04-.29 1.14 1.69-.41-.35 1.2.69.37.53.5-.24 1.15 1.43-.28.2.78.43.59.93.12.39.62.37.63.06.95 1.06-.04.58.44-.02 1.04 1.18-.17-.02 1.05-.1 1.17 1.07-.09 1.06-.1-.33 1.46.94.02.18.9.58.45 1.29-.44.23.86.97-.06.05 1.1.09 1.07 1.34-.57-.03 1.25.93-.04.94-.08.71.24.43.63.11 1.14 1.23-.55.37.75.74.16.64.34.22 1.03.71.21.52.55.4.77 1.27-.8.04 1.43.83-.01 1.07-.49.07 1.44.99-.36.76.08.08 1.51 1.17-.78.35.96 1.13-.76.36.97.66.3.82-.1.81-.09.11 1.68.68.26.68.28.72.12 1-.65.38 1.14.94-.54.38 1.17.88-.38.54.71.84-.27.86-.41.59.57.89-.53.64.38.36 1.56.73.09.86-.5.84-.48.55.87.71.15.79-.3.6.8.91-1.1.58.97.68.34.84-.83.63.7.65.65.83-.86.72-.01.59 1.4.81-.88.64 1.03.75-.19.76-.5.74-.51.72.13.68 1.23.73-.26.73-.24.73-.97.72.2.72.62.73.21.69-1.19.76 1.08.73.17.72-.21.75.28.64-1.05.68-.5.7-.22.85 1.24.64-.77h.72l.79.46.74.07.67-.47.81.54.45-1.74.94 1.22.48-1.43.98 1.31.67-.35.5-1.15.72-.04.95.93.41-1.42.77.14.91.62.46-1.09 1.03 1.02.51-.86.63-.42.89.44.77.02.45-.94.91.42.5-.79.5-.75.75-.02.59-.48.59-.49.79.06.93.38.7-.21.56-.54.55-.56.51-.62.96.38.77-.06.07-1.54 1.07.55.87.11.58-.46.43-.73.33-.92.57-.44.7-.22.88.09 1.04.35-.05-1.51 1.1.43.6-.73-.01-.9-.79-.55-.51-.75-.26-.71 1.31-.73-.81-.71-.54-.72.14-.71.46-.72-.36-.72.76-.72-.08-.72.18-.71-.75-.72.13-.71-.29-.72.82-.72-.9-.71.04-.72.8-.72.17-.72-.6-.72 1.06-.72-.27-.72-.37-.71-.12-.72.12-.72-.21-.72.18-.72-.82-.72 1.25-.72-1.48-.71.24-.73.24-.72.21-.72-.02-.72-.14-.72.66-.73.11-.72-.21-.71v-.72l.47-.72-.46-.72-.96-.71 1.57-.73-1.33-.71-.44-.72.35-.72-.18-.72.65-.72-.07-.72.83-.72-1.17-.71.46-.73v-.72l.2-.72.24-.72-.64-.72.37-.72-1.1-.72 1.64-.73-.17-.72-1.24-.71 1.04-.73.29-.72-1.4-.71 1.37-.73-1.13-.71-.24-.72.4-.72.4-.72.19-.73-1.06-.71.71-.72-.44-.72.14-.72.6-.73.42-.72-.83-.72-.16-.72 1.04-.73-1.04-.71.98-.73-1.44-.71 1.48-.72-.02-.72-.09-.72-.77-.71.94-.73-.42-.72-.48-.72.42-.72-1.19-.71.12-.73.56-.72.26-.72-.85-.71-.21-.72 1.07-.72-.08-.72-.14-.72-.72-.71.55-.73-.28-.71.27-.72.83-.73.04-.72-1.27-.72 1.33-.73-.37-.72-.61-.72.23-.72-.73-.72.38-.72v-.72l-.58-.72 1.24-.73-.15-.72-.26-.72.69-.73-.98-.72.23-.72.96-.73-.06-.72-.99-.72-.23-.73.51-.72.13-.73.2-.72.41-.72-1.55-.71 1.53-.73-1.71-.72.24-.72.07-.73.56-.72-.82-.72 1.54-.74-.48-.72-.51-.72-.05-.73.6-.73.06-.73.17-.72-.65-.73.76-.73-1.48-.92 1.16-.64z" class="cls-1"/><path d="m215.97 164.36.08-.73.41-.84-.49-.51-.52-.49-.77-.29-.26-.71-.11-.79-1.39-.01-.1-.8.14-.89-.62-.54.34-.88-.5-.61-.39-.65.51-.83-1.48-.55.13-.79.27-.76-.46-.78.36-.75.43-.7.37-.67.12-.73.81-.51.1-.71-.59-1.04 1.35-.15-.52-1.1.03-.87 1.41.08.01-.89.53-.51.32-.72.19-.89.91-.1.85-.09.84-.02-.11-1.58 1.02.3.51-.64 1.01.53.28-1.38.32-.06.63-.43-.87-.84.4-.81 1.35-.52-.91-.86.09-.72.03-.74.8-.47.35-.61.31-.61.05-.76-.25-.98 1.4.07.38-.57.27-.65.5-.48.22-.75 1.02.08.11-.93.23-.91 1.14.39.09-1.24 1.31.91.36-1.03-.66-.5.08-.97-.71-.36-1.1-.05.18-1.07-.03-.91-.52-.52-.55-.48-1.33.18-.06-.9-.94-.13.49-1.4-1.15.05.02-.99-1.04-.02-.28-.73-.6-.42-.7-.33-.09-.92-.33-.68-.52-.51-.31-.71-1.24.21.01-1.03-.19-.85-1.21.2.25-1.29-.93-.09-.92-.08-.41-.62-.13-.92-.9-.1-.57-.45-.88-.1.23-1.34-.9-.08-.31-.74-.35-.7-.89-.08-.82-.16.08-1.2-1.38.5-.1-1.01-.28-.79-.4-.66-.71-.28-.98.07-.45-.61-.82-.13.24-1.46h-.92l-.54-.49-.8-.15-.97.07v-1.18l-.65-.35-.21-.93-.56-.46-1.13.32v-1.23l-.79-.15-.66-.31-.61-.4-.87-.02-.14-1.06-.73-.22-.52-.51-1.16.4-.23-.94-.79-.12-.24-.94-1.11.36-.12-1.12-.43-.66-1.06.3-.45-.63-.8-.09-.77-.12-.47-.6-.35-.79-.36-.78-1.38.83-.34-.83-.84-.01-.31-.88-.95.18-.03-1.35-.93.15-.51-.56-.74-.14-.46-.63-1.04.36-.47-.6-.7-.23-.49-.58-.77-.1.1-1.59-.83.01-.77-.1-.38-.71-.21-.13-.45-.71-.81.62-.75-.32-.73.02-.6 1.23-.78-.55-.63.75-.79-.48-.68.29-.7.18-.69.24-.92-1.2-.51 1.29-.86-.71-.68.33-.58.78-.89-.76-.58.72-.64.46-.8-.26-.52.89-.99-1.01-.49.98-.94-.71-.36 1.4-.65.32-.83-.28-.8-.16-.84-.24-.38 1.15-.61.44-.68.22-1.15-1.05-.5.73-.31 1.19-1.05-.7-.55.57-.8-.05-.51.66-.94-.36-.55.55-.21 1.28-.9-.24-.82-.04-.46.69-.69.25-.79.03-.66.3-.63.34-.61.41-.51.56-.72.2-.57.45-.24 1-1.39-.9-.07 1.26h-.85l-.56.47-.22.98-.92-.09-.21.97-.58.41-.68.29-1.04-.21-.89.01.11 1.35-1-.12-.01 1.15-.62.37-.33.73-1.59-.8.25 1.43-1.12-.2.19 1.31-.64.35-.68.33-.71.28-.95.04-.02 1.03-.23.8-1.19-.19-.22.8-.81.22-.04.96-.41.6-.15.83-.57.45-1.31-.2.28 1.2-1.13-.02-.69.36.09 1.01-.22.75-.85.24-.24.73-.97.16-.03.89-.38.61-.24.71-.82.3.21 1.03-1.08.13-.03.84.07.91-.35.62-1.07.17.02.86-1.32.05.62 1.2-1.1.19-.31.66.33 1.01-.48.55-.04.8-1.3.13.58 1.1-1.17.22-.28.67.37.98-.42.59-.6.52.35.94-1.45.16-.08.75.75 1.09-1.39.22-.53.57.7 1.04-.73.51.17.82-.9.46.5.93-.03.74-.8.5.42.88-.43.62-.68.55-.3.67-.13.71.4.84-.27.68-.48.62.62.88-1.38.43.77.89-.91.56.16.76.51.82-.18.69-1.17.55-.08.72.06.73.96.85-1.16.58-.29.7.12.74.63.78-.45.68-.51.69.62.76.56.75-.58.69.13.72-.36.71.32.72-.11.71-.49.72.36.72.42.71.14.71-1.1.76.88.68-.69.76.55.68-.74.78 1.01.64.65.66-1.25.85.71.64-.13.74.71.63-1.02.87 1.5.5.02.71-1.02.91.27.68-.17.77.41.65-.06.76 1.01.51-.54.86.37.65-.26.81.09.73 1.35.38.29.66-.06.76.43.62-.83 1 1.29.35-.9 1.05.96.44.47.59-.16.82.88.43.3.65-.05.79v.77l.46.58-.35.93.17.71 1.2.26.67.47-.76 1.15.4.61.22.69.1.76 1.58-.01.35.62-.53 1.09.79.39-.62 1.17 1.65-.12-.56 1.16.47.56.56.49.95.26.36.61.46.55-.51 1.19.89.27.27.68.85.28.4.58-.34 1.14.93.2.72.35-.31 1.14.19.77 1.44-.23-.1 1 1.01.09.06.88-.16 1.09.5.52.6.44 1.22-.15.37.63.76.27-.45 1.42.88.15.92.09.39.63-.3 1.34.73.28.55.47 1.14-.18.15.9.46.56.2.88 1.33-.45.13.35.4-.27.25-.69.58-.61.26-.67-1.36-1.04 1.61-.35-.78-.95-.33-.85.3-.67 1.03-.44-.28-.85.5-.59-.38-.91.49-.6.22-.69.5-.58 1.28-.22.19-.69-.02-.81.12-.74-.3-.97.51-.56.8-.37.48-.55.76-.38-.23-.99.14-.76 1.35.03.41-.58-.42-1.17.93-.22.41-.58.39-.6.28-.7.77-.29.57-.45.09-.87.46-.56.43-.57.61-.42-.04-1.03 1.1.06.72-.29.18-.84.87-.12.14-.9v-1.07l1.49.6.52-.49.52-.48-.02-1.16.62-.37.63-.36.28-.82.97.09.5-.54.83-.06.34-.77.7-.25.33-.79.48-.59.91.09.26-.94 1.01.26.49-.58.35-.81 1.03.32.64-.32.57-.45.19-1.13.73-.19.85.06 1.04.45.13-1.32 1.08.54.15-1.3.62-.39.66-.29 1.05.53.77-.03.51-.61.85.14.15-1.43 1.09.72.47-.73.57-.52 1.01.59.63-.34.51-.67.33-1.16 1 .64.61-.42.79.09.67-.28.38-1.07.57-.57.93.51.89.41.67-.26.44-.99.87.4.44-1.02.99.78.34-1.38.7-.2 1.03 1.02.55-.71.62-.48.77.09.6-.53.75.03.62-.5.94.79.51-.95.6-.62.92.79.75.09.52-1.01.75.06.89.78.61-.59.77.18.56-.91.79.31.63-.56.62-.65.86.77.72-.09.54-1.12.84.65.67-.36.66-.49.9 1.18.69-.32.57-1.14.88 1.15.72.02.55-1.47.79.5.62-.85.86 1.1.75.2.61-1.06.73.01.73.03.71-.17.81.87.63-1.1.75.27.75.31.67-.78.7-.45.77.66.73-.03zM240.71 124.03l.25.89.56.54.72.13 1.02.95-.16-1.53.49-.56-.31-1 .6-.51.8-.32.71-.35.43-.54-.16-1.13 1.14.15.08-.99.65-.35.66-.32.65-.31.62-.33.58-.44.38-.94.87.18.94.59.62-.3.62-.43.65-.44.65-.69.77.25.73 1.29.69-.4.64.52.73-.39.88-.89.38 1.51.68.08.88-.45.72.12.77.04.82.02.04 1.38.93-.14.36.71.99-.09-.05 1.15.39.59.16.77.75.25.88.2.15 1.23.86-.8.81.18.66-.27.5-1.07.77.09 1.19.93-.43-1.6.72-.38.45-.57.97-.2.2-.74-.37-1.15.79-.32.81-.31-.23-1.07 1.04-.13-.24-1.08 1.02-.14.85-.25.44-.57-.31-1.16.23-.73.6-.45.22-.76 1.62.39.11-.84-.09-1.01 1.14.02.18-.8-.24-1.16.63-.42 1.53.39-.47-1.38 1.33.23.12-.87.76-.28.52-.5.66-.36-.75-1.71 1.67.6.11-.89-.22-1.23.76-.27.65-.37.34-.68.77-.26.34-.69.71-.3.16-.88.91-.09.08-.97.92-.07.99.01-.07-1.15.27-.79 1.15.2.09-.99 1.25.35.09-1 .52-.52.73-.24.32-.76 1 .09.67-.32.23-.86 1.13.27-.31-1.58 1.2.38.45-.59.34-.75 1.06.22.4-.67.65-.32-.04-1.3 1.45.81.58-.42v-1.28l.26-.9.61-.39 1.15.42.56-.46.13-1.12 1.45.93.35-.8.9.09-.2-1.7.74-.17 1.24.68.22-1.05.93.16.13-1.21.51-.56.63-.38 1.35.97-.09-1.68.93.21.94.24.05-1.47.6-.41 1.05.47.83.06.27-1.1.87.16.67-.27.66-.29.63-.36.66-.27.32-1.05.91.26.93.34.62-.38.45-.78-.2-.46-.26-.15-.36-.62-.01-.77.71-1.1-1.53-.09.19-.87.42-1-1.35-.14.02-.81-.83-.37.77-1.21-1.08-.24-.45-.57.66-1.19-.85-.34.2-.96-1.13-.16-.05-.81-.39-.6-.03-.84-1.28-.03-.42-.57.58-1.26-.41-.59-.44-.58-.99-.18.02-.9-.84-.28-.15-.78-.12-.83-.76-.31-1.29.11.73-1.52-1.32.16-.82-.24-.1-.85.14-1.08-.46-.56-.44-.57-1.39.3.31-1.27-1.15.1-.4-.6.32-1.34-1.18.18-.78-.22-.11-.93-1.22.26.48-1.58-.74-.26-.31-.73-.91-.05-.96.02.08-1.21-.52-.51-.38-.67-1.23.39-.46-.58-.6-.39-.33-.76-.49-.54-.5-.54-.48-.58-.59-.41-1.25.55-.29-.85-.95.14-.73-.17-.1-1.18-.96.19.11-1.57-1.2.62-.56-.47-.88.11.01-1.49-.73-.17-.67-.28-.58-.43-.88.12-.75-.1-.58-.44-.44-.73-1.11.68-.66-.26-.26-1.16-.89.24-.27-1.18-1.2 1.01-.46-.76-.26-1.29-1.09.84-.55-.59-.6-.44-.49-.78-1.17 1.2-.39-1.09-.77.06-.42-1.08-1.08 1.11-.38-1.25-1.01.92-.64-.36-.6-.52-.68-.23-.6-.54-.82.31-.48-1.1-.95.99-.67-.31-.48-1.23-.94 1.07-.5-1.26-.96 1.36-.54-1.17-.71-.07-.68-.39-.83.76-.56-1.26-.77.36-.8.71-.73.15-.73.08-.66-.67-.64-1.08-.77.79-.68-.74-.77.91-.73.5-.68-1.41-.74 1.05-.72.08-.71-.69-.73.2-.72-.11-.71.28-.76-.91-.71.38-.69.67-.77-.86-.7.45-.67.7-.75-.34-.68.47-.78-.54-.74-.14-.62.87-.83-.77-.69.3-.76-.17-.55 1.14-.79-.4-.76-.14-.54 1.07-.83-.5-.72.07-.67.3-.58.71-.85-.49-.6.58-.68.24-.61.5-.69.17-.88-.5-.52.81-.84-.3-.55.64-.95-.6-.48.85-.53.65-.75.04-1.11-.99-.42.97-.99-.58-.2 1.49-.56.51-.79-.02-.76.03-1-.5-.34 1.02-1-.44-.01 1.69-1.01-.47-.64.34-.34.92-1.06-.49-.6.4-.31.95-.99-.31-.64.33-.6.4-.49.6-.91-.13-.31.89-.6.41-.88-.06-.12 1.16-.42.65-.59.41-1.54-1-.37.74-.65.34-.04 1.18-1.08-.26-.29.82-.26.84-1.38-.6.06 1.24-.53.48-1.16-.28.21 1.39-.5.51-1.43-.56.29 1.42-.57.44-1.4-.47.43 1.53-1.27-.3.33 1.38-.96.04-.37.65-.69.33-1.14-.09-.07.92.26 1.23-.72.31-1.28-.18.26 1.19-1.34-.21-.24.75.5 1.36-.76.29-.48.54-.25.71-1.35-.13-.56.48-.27.71.39 1.18-.86.26.28 1.07-.69.39-1.43-.1.05.91.19.98-.92.27.32 1.04-.16.74-1.22.1-.02.83-1.05.22.13.9.09.87-1.57-.03.01.83-.19.71-.82.4.42 1.02-.91.36.07.83-.04.78-1.05.32-.01.79.13.84-.97.38-.25 1.41 1.58-.28.48.63.58.45.39.78.67.25 1.3-.89.41.76.7.22.46.64.81.03.15 1.17 1.17-.58.67.29.27.95.93-.16-.13 1.6.73.18.66.3 1.33-.77.45.64-.14 1.54.81.07.64.33 1.04-.27.27.89.59.41 1.04-.24.68.28.14 1.06.49.56.85.04.48.58.38.69.28.84.52.49.77.17.95-.06.19.94.68.29.72.23.93-.02.05 1.1.73.24.95-.04-.23 1.43.95-.04.22.87 1.22-.35.76.22-.13 1.27 1.01-.08.86.11.46.58.16.9.62.39.55.47.19.87 1.15-.2-.45 1.56 1.03-.06.01 1.05.9.09 1.06-.08.29.75h1l-.42 1.47.82.19.53.49.4.63.2.81.73.29 1.34-.31-.72 1.71 1.55-.49.67.36-.21 1.19.32.68 1.38-.29-.7 1.62 1.34-.24-.02.99.83.22.99.09-.58 1.47.73.32.01.95.89.18.45.56.98.13.5.52.55.48-.54 1.37.94.17 1.13.03-.04.95.7.37-.07.97.42.59.35.64.54.49.55.49.41.6 1.09.1-.05.94.47.55.37.62.47.56.64.15zM409.5 133.39l-.48-.6-.2-.69.16-.82-.66-.53-.36-.63-.02-.76-.89-.42.43-.94-.77-.46 1-1.21-1.08-.32-.55-.54.5-1.03-.15-.73-1.53-.06.24-.92-.73-.43.11-.87-.31-.65-.77-.4.02-.83-.48-.56-.1-.77-1.23-.11.79-1.32-.41-.6-1.07-.17-.75-.37-.15-.76.3-1.07-1.33.04.01-.88-.75-.34.5-1.25-1.16-.04.44-1.24-.62-.44-1.22.04.26-1.13-.29-.7h-1.13l-.72-.32-.55-.47-.49-.53.5-1.4-1.33.23-.57-.44.57-1.53-.9-.14-.38-.64-.6-.42-.51-.51-.36-.67-1.44.47-.24-.79.27-1.36-.63-.39-1.47.58-.52-.48-.34-.71-.24-.83-.71-.28-.56-.44-.89-.03-.21-.9-.56-.45-.85-.06-.39-.68-.9.02-.58-.4.25-1.63-.71-.25-.81-.08-.91.08-.4-.7-.4-.73-.5-.57-.77-.11-.73-.19-.45-.66-1.19.65.02-1.52-.95.23-.48-.63-.75-.11-.58-.45-.89.17-.27-1.09-.98.39-.53-.56-.86.15-.74-.08-.18-1.4-.84.14-.83.14-.44-.83-.57-.52-1.05.72-.51-.68-.64-.34-.53-.68-.75-.03-.77.03-.6-.49-.63-.41-.58-.57-.78.07-.69-.22-.68-.24-.93.68-.67-.24-.71-.12-.62-.52-.85.53-.4-1.55-.93.93-.59-.74-.91.95-.64-.5-.55-1.04-.89 1.03-.56-1.13-.8.5-.61-.88-.72-.07-.76.29-.7-.25-.68-.49-.74.14-.75.36-.78.87-.67-1.11.15.32-1.09-.42-.48.66-.71.16-.22 1.44-1.19-1.09-.29 1.25-.86-.22-.71.17-.5.68-1.01-.56-.27 1.23-.76.03-.8-.03-.34.97-.74.11-.52.57-.88-.19-.53.56-.81-.03-.62.36-.42.76-.62.37-.92-.21-.42.73-.86-.08-.47.64-.56.48-.84-.02-.42.71-.34.83-1.43-.99.03 1.44-.92-.13-.67.31-.84.02-.56.47-.25.94-.22.98-1.33-.7-.56.47-.33.79-.25.91-.89-.01-.56.46-.74.21-.3.81-.42.63-1.03-.15-.65.34-.07 1.08-1.12-.25.02 1.17-.84.1-.57.44-1.1-.19-.26.81-.75.25-.14.93-1.09-.14.3 1.43-1.25-.31-.03 1.04-.07.99-.63.38-.5.52-.97.03-.62.39-.72.31-.64.39.31 1.32-1.4-.35.06 1.06-.69.35-.12.88-.8.25-.04.95-1.03.03.16 1.11-1.06.03.01.97-.72.33-1.01.09-.63.42-.09.87-.15.82-.71.36.2 1.09-1.59-.33-.43.59.16 1.04-.17.78-.24.73-.78.32-.13.8-1.53-.21-.03.88-.3.69.32 1.11-1.1.12-.41.6.12.97-1.24.36.66.72.79.08.13.92 1.39-.49.18.84.17.78.74.29.25.69 1.05.16-.81 1.29.39.55.49.53-.14.78.37.58 1.37.33.1.72-.75.84-.24.69.28.63.72.64-.41.68-.47.63-.24.62 1.11.38.25.69.81-.47.65.48.66.36.66.32.89-.32.66.35.33.97 1.22-.69v1.41l1.2-.45-.27 1.53 1.47-.59.52.55.01 1.01.43.59.17.77.85.28.08.8.01.8.6.49 1.37.23-.51.98-.19.82 1.04.51.38.72-.91.88.14.72.23.73.37.76-.53.71.37.81-.36.7.47.9-1.12.46-.73.51-.25.66.61 1.11-.19.72-.62.46-1.14.07.07.93.84.27.07.87.12.8 1.31.05-.11.98.67-.44.67.59.73-.06.64.88.71.14.84-1.09.67.51.76-.3.61 1.08.76-.31.69.27.79-.52.73.04.63.69.77-.28.58 1.01.84-.77.76-.14.61.71.63.62.95-1.27.68.28.51 1.25.91-.95.67.34.82-.44.45 1.49.81-.41.55.89.9-.75.82-.39.7.2.4 1.51.96-.95.53.88.74.04.71.13.75-.03.57.68.67.28.69.24.91-.59.53.77.71.14.67.29.69.2.78-.08.56.62.88-.37.49.83.74.04 1.03-.77.21 1.59.77-.03.6.46 1.18-1.12.22 1.48.69.21.81-.09.65.32.44.82 1.01-.56.92-.33.2 1.39.57.49 1.17-.87.52.61.48.69.8-.01.44.74.59.44.69.24.96-.31.31.96.53.54 1.22-.76.01 1.5.87-.1.98-.26.3.93 1.01-.3.53.53.45.64.34.83.8.07.37.77 1.13-.42-.02 1.32.82.07 1.01-.18.54.49.27.85.48.56 1.09-.25-.32 1.6 1.38-.6.03 1.12.79.16.17.91.69.3 1.17-.25.61.4.17.89.94.05.06.99.68.33.4.62.74.29.68.36.48.54-.53 1.47 1 .06.91.17.43.58-.16 1.07-.01.92 1.26-.08.28.7-.05.92.46.54.7.38.31.66 1.27.03-.48 1.16.47.55-.18.93 1.29.08.5.55.35.63-.01.82.14.73.66.48.48.57.57.54-1.15 1.28.32.63.51.56.64.52.24.67.98.43.13.72.05.74-.6.92.11.71.92.5.55.61.05.74-.3.8-.08 1.01.53-.89.43-.61 1.29.38.24-.82.27-.78.06-.99 1.26.3.8-.2.08-.96.5-.52.35-.67.16-.84 1.16.12.35-.67-.02-.99.91-.14-.04-.99 1.62.46-.3-1.22.82-.24.1-.85.13-.82.38-.61.9-.2.14-.8 1.26.06-.01-.91.3-.67 1.18-.05-.45-1.19 1.16-.08.56-.5.35-.63-.87-1.43.49-.53 1.17-.12-.27-1 1.28-.08.01-.83-.32-1.01.81-.36.19-.72-.01-.81.25-.68.76-.41.49-.56-.32-.95.42-.59 1.05-.3.9-.39.27-.67-.8-1.14.22-.68.86-.42.63-.53-.07-.8-.63-1.01.83-.45.13-.72 1.17-.36-.89-1.06.13-.71.58-.56-.09-.78.99-.46.46-.62.28-.67-.78-.96.12-.7 1.18-.45.04-.74-.79-.92.48-.63.63-.6v-.74l.24-.69-.47-.81.85-.59-.5-.81.9-.59-.83-.85 1.15-.57-.79-.83.94-.62-1.02-.83.11-.71.35-.69-.69-.77.26-.69.08-.72-.05-.71.91-.68-.9-.75.8-.7.02-.72.53-.72-.88-.72.69-.73.2-.73-.89-.69.22-.73-.45-.7-.49-.68 1.03-.8-.68-.66.85-.8-1.35-.59.92-.82-1.1-.59.93-.85.27-.77-1.57-.49 1.39-.95-1.72-.44.16-.75 1.16-.95-1.3-.48-.19-.69.13-.77-.2-.69.69-.9-.17-.71-1.06-.47-.47-.62.07-.76-.59-.58.13-.78-.64-.55.95-1.06-.7-.53z" class="cls-1"/><path d="m263.94 199.51.57-.42.33-.6.45-.54.42-.58.18-.69.25-.66.06-.71.28-.69-.71-.69.12-.01.25-.76.08-.79-1.07-.44-.19-.67.07-.84-.45-.58-.63-.43-.08-.93-.94-.04-.49-.54-.77-.09-.54-.5-.7.02-.66-.57-.16-.74v-.71l.08-.72-.1-.7.17-.72-.18-.7.12-.72v-.71l.04-.72-.04-.71.11-.72-.07-.71-.52-.68.64-.75-.12-.7-.81-.68.31-.73-.41-.82 1.17.09.6-.48.59-.11.54.43.51.52.31.67.23.73.76.3.44.54.44.55.2.72.65.39-.07.92 1.06.09.31.64-.17.99.71.35.15.76.96.17.13.78.82.39-.61.83-.5.6-.64.59-.1.81.09.83.14.69-.55.67.38.68-.23.74.53.58-.12.78.66.46.46.51-.23 1 .83.3.6.45.53.51.68.31.35.93.75.24.87-.24.7.26.7.5.77-.08.75.15.7-.37.62-.49.76.06.75-.12.54-.54.68-.29.66-.31.04-.97.64-.34.59-.43.26-.66-.07-.79.5-.52.75-.52-.78-.86.88-.59-.58-.71.47-.72-.56-.61-.33-.6.07-.73-.6-.46.18-.87-.86-.24-.09-.84-.56-.47-.3-.8-.58-.5-.79-.14-.61-.47-.74-.16-.77-.02-.72-.16-.75.43-.7-.14-.72.03-.76-.08-.39-.02-.45-.37-.84-.24-.1-.78-.2-.71-.42-.55-1.01-.12.1-.94-.85-.24-.34-.61-.12-.78-.29-.68-.63-.42-.38-.61-.72-.35-.09-.83-.37-.62-.87-.26.03-.81-.22-.68 1.04.03.3-.6-.08-.06.21-.68.35-.28.77-.43.67.26.76-.05.51.94.86-.43.66.33.59.61.77-.07.6.56.86-.42.53.83.73.1.67.3.91-.63.54.82.89-.52.7.24.67.46.4.81-.07.76.29.69-.39.98.39.71.43-.18.55.45.04.84.4.61.72.26.7.21.29.85.95-.35.61.24.65.11.53.72.73-.37.66.71.76.02.64-.69.76.1.61-.45.62-.35.75-.1.82-.11.05-1.09.71-.28.64-.4.58-.49.29-.78.51-.67-.16-.91-.16-.71.98-.56-.11-.73-.57-.66-.26-.63.01-.67.01-.71-.35-.59-.61-.43-.17-.67-.01-.87-.79-.22-.59-.35-.14-.96-.87.05-.72-.09-.57-.43-.68-.1-.6-.82-.84.67-.73-.63-.72.53-.82-.35-.81.03-.68.43-.51.68-.42.58-.66.21-.67.27-.3.65-.37.55-.62-.01-.57-.2-.83.37-.72-.05-.59-.55-.69-.19-.71-.09-.81.27-.7-.16-.65-.31-.71-.1-.68-.25-.54-.78-.73-.02-.78-.01-.73-.21-.66-.46-.8.05-.89.05.64-1.04-.32-.77-.31-.85.89.3.52-.73.58-.54.84.25.54-.66.86.3.78.1.67-.29.69-.22.64-.39.7-.17.63-.42.63-.4.67-.26.73-.11.61-.48.75-.04.75.19.47.2.34.63.65.33.46.53.82-.02.47.56.58.39.75-.11.68.01.63.3.67.14.8-.08.93.47.74-.54.79.08.27-1.07.99.32.65-.35.42-.62.04-.94.8-.22.02-.82.6-.44.73-.44-.33-.85.24-.63.02-.68.38-.66-.37-.67.15-.7.05-.71-.22-.66-.04-.8-.78-.45.09-.93-.66-.46-.96-.1-.14-.92-.45-.66-.83-.09-.83.06-.68-.15-.5-.88-.75-.08-.77.53-.72-.81-.73.3-.73.12-.58.64-.73-.02-.6.35-.86-.08-.12 1.04-.78.13-.51.47-.32.64-.5.49-.52.52-.42.68.34.92-.7.62-.07.78.29.93-.79.09-.72.12-.62.42-.87-.33-.68.27-.66.3-.47.93-.78-.07-.77-.02-.74.06-.72.17-.63.4-.58.6-.65.35-.91-.46-.49.87-.93-.51-.56.98-.77-.78-.39-.64.1-1.08-.86-.26.49-.52.47-.54.16-.76.76-.35.02-.84.77-.35-.08-.9.6-.46-.03-.87 1.02-.19-.19-.98 1.08-.15-.36-1.1 1.03-.17.39-.61.17-.74.14-.77.49-.63.91.22.72.22.75.22.75.1.72-.16.65-.42.68-.21.71-.16.77-.11.55-.52.64-.39.5-.55.45-.59-.11-.95.55-.44.39-.56.38-.59.23-.65-.23-.74.68-.63.08-.72-.43-.67.25-.76-.39-.63-.61-.51-.36-.56-.05-.75-.6-.4-.28-.64-.58-.37-.11-.94-.64-.33-.23.18-.45-.73-.74-.22-.94.44-.66-.25-.67-.28-.72-.35-.75-.09-.65.75-.74-.1-.63.37-.64.3-.55.45-1.09-.36-.36.77-.71.33-.03.95-.6.44-.07-.04-.3.61-.33.6-.38.59.23.77-.24.63-.58.64.72.69-.74.74.52.63.14.77.32.71.3.73.55.57.63.76-1 .28-.26.68-.54.5.16.96-.49.53-.81.32-.13.77-.29.67-.14.76-.71.39-.47.55-.05.82-.7.39-.39.6-.72.39-.1.79-.38.62-.22.77-.78-.43-.7-.31-.54-.07-.15-.69.11-.77-.22-.77.45-.77-.16-.78.15-.7-.79-.7.37-.7-.23-.7.5-.7-.61-.71.31-.7-.1-.7-.29-.7-.02-.71-.01-.7.6-.71-.17-.72.75-.11.69-.26.74-.21.61-.44.1-1.01.69-.29.84-.26.42-.63-.16-.93.19-.67.63-.54.23-.7.33-.71-.75-.76.23-.72.46-.81-.23-.74-.37-.68-.51-.59-.42-.6-.23-.73-.41-.64-.64-.42-.44-.66-1.01.19-.56-.43-.65-.3-.64-.35-.6-.71-.77-.02-.77.23-.76-.21-.66.64-.68.22-.89-.37-.67.39-.74.23-.62.47-.1 1.03-.55.44-.58.45-.56.5-.58.53.04.83-.68.56-.05.77-.17.74-.1.76h.11l.71.69-.09.71.2.67.13.71.56.51-.08.85.49.54.75.28.09.92.4.68.88.02.73.14.42.83.48.07.67.64-.05.73-.48.72.51.73-.68.73.25.73-.23.73.54.73-.37.73.33.73-.65.73.67.73-.61.73-.03.74.78.74-.46.69.35.69-.54.6-.24.65-.85-.54-.61.3-.53.46-.41.06-.31-.54-.47-.54-.71-.35-.46-.54-.52-.5-.21-.75-1.01-.1-.12-.83-.52-.5-.58-.45-.05-.9-.75-.3-.22-.75-.51-.5-.84-.25.03-.96-.83-.26-.24-.71.1-.76.22-.72 1.02-.46-.18-.86.3-.76-.16-.7-.07-.69-.04-.68-.07-.69-.36-.61.07-.77-.2-.71-.94-.22.18-1.01-1.15.09-.07-.92-.68-.28-.58-.38-.52-.54-.7-.17-.69-.16-.61-.54-.75.05-.72.5-.72-.54-.67.44-.7.05-.54.5-.63.16h-.75l-.55.4-.36.63-.54.41-.35.59-.66.34-.78.34.15.89-.26.62-.21.65.17.72-.65.59.15.7.14.67-.47.75.24.68.54.56.35.58-.27.92.79.34.35.6.65.35.49.48.64.28.51.44.44.68.57.52.72.16.77-.17.71-.08.69.67.76-.7.76-.04.85.18.42-.13.44.44 1 .14.3.71.5.56.29.72.69.41.26.74.89.24.14.85.81.3.24.78.63.45.52.55-.11 1.13.96.23.16.91 1.04.29-.64.73-.37.55-.23.05-.15.29-.76.02-.59-.56-.65-.38-.86.28-.59-.56-.83.18-.59-.56-.69-.27-.63-.43-.81.13-.7-.24-.57-.63-.83.18-.63-.44-.9.37-.59-.58-.56-.67-.8.14.06-.7.01-.79-.13-.78-.32-.73-.35-.7-.44-.57-.26-.68-.96-.11-.43-.5-.45-.5-.48-.49-.73-.08-.41-.72-.71-.08-.65-.36-.78.29-.67-.57-.75-.14-.77.01-.65.53-.62.44-.79-.05-.57.48h-.87l-.6.47-.5.57-.23.78-.51.52-.82.38-.05.82.2.85-.08.65-.76.54-.22.69.04.71.08.7.19.68.76.5-.6.94.63.49.33.63.68.37.4.54.04.96.74.24.81.05.61.28.62.24.5.61-.06.19.88-.05.78.38.85-.53.69.33.77.36.72-.16.55-.62.54-.49.64-.24.42-.58.55-.37.48-.46.82-.17.34-.35.85-.5.6.49.56.65.73.14.66.31.69.24.68.29.87-.34.5.85.72.14.75.09.71.17.68.29.77-.02.68.3.8-.09.55.69.73.09.06.62-.12.66.39.64-.34.68-.37.73.56.24-.62.43-.84-.17-.72.13-.73.13-.69.21-.49.76-.66.29-.88-.28-.4.99-.79-.04-.85-.19-.44.9-.87-.25-.59.47-.74.12-.61.43-.67.29-.7.23-.38-.61-.81-.19-.18-.94-.63-.41-.92.19-.68-.18-.63-.3-.59-.65-.76.24-.71.27-.7-.21-.67.23-.86-.49-.61.51-.83-.11-.55.5-.41.66-.84.08-.09.93-.59.39-.34.6-.77.36v.79l-.49.63.23.85.09.75-.07.71-.49.75-.29.83.9.63-.04.85.08.78.4.64.64.46.46.57.47.57.5.56.61.44.61.45.8.04.72.17.74-.05.72-.06.69.25.77.61.66-.57.66-.33.85.25.68-.23.66-.31.25-.91h.89l.52-.5-.08-.99.66-.35.44-.54.02-.75.45-.69-.01-.83.53-.74-.31-.69.13-.87.71-.34.66-.31.74-.08.6-.45.81.09.63-.37.8.07.52-.68.71-.16.69-.23.72-.14.76-.05.51-.7.75-.07.85.2.43-.93.64-.37.83.23.66.18.21.62.38.64-.46.6-.84.29.03.94-.95.21.25 1.1-.97.2-.01.91-1.04.16-.16.73-.62.41-.31.62-.09.79-.84.24.2 1-.56.45-.89.21.07.92-.26.83-1.06-.13-.64-.37-.68-.36-.74-.31-.76-.01-.75.14-.62.59-.68.25-.47.66-.7.17-.53.47-.91.04-.19.84-.58.45-.45.52-.7.43.04.8.15.76-.7.54-.07.71.31.71-.53.71.43.67-.25.78.76.51.56.5-.31.92.35.62.76.3.33.63.7.25.36.64.52.52.89-.2.5.58.63.35.63.52.76-.22.72.23.73-.52.76.13.73-.17.65-.4.58-.49.93.14.61-.46.25-.86.67-.36.23-.75.97-.17.35-.63-.19-.85.12-.66.53-.57-.15-.71-.17-.68.39-.68.04-.71.01-.82-.85-.55.18-.92-.24-.79-1.22-.58.55-.64 1.08-.06.31-.64-.15-.97.39-.58.74-.31.08-.81.54-.46.44-.54.51-.49.5-.51.06-.82.4-.58.61-.42.71-.4.44-.6.53-.53.13-.9.74.58.71.18.74.05.58.68.38-.13.4.55.36.69.12.7-.65.75.25.7-.28.72.92.66-.27.73.07.7-.45.74-.08.71.23.7-.1.72.34.69.44.69-.24.73.4.7-.2.77-.8.14-.59.32-.31.73-.97-.22-.11.9-.34.55-.88.21-.32.68-.53.57.35.93-.29.7-.42.7-.13.78.07.79.15.78.13.78.31.73-.27.93.77.43.42.6.44.57.53.5.69.3.23.97.68.37.75.17.91-.43.52.97.82-.55.71.15.41-.19.74.32.65-.4.88.44.43-.9.79.07.56-.39.35-.67.69-.22.38-.57z" class="cls-1"/></svg>