<?xml version="1.0" encoding="UTF-8"?>
<svg id="_レイヤー_1" data-name="レイヤー 1" xmlns="http://www.w3.org/2000/svg" viewBox="0 0 586 151">
  <defs>
    <style>
      .cls-1 {
        fill: #572a0b;
      }

      .cls-1, .cls-2 {
        stroke-width: 0px;
      }

      .cls-2 {
        fill: #8c6239;
      }
    </style>
  </defs>
  <g>
    <path class="cls-2" d="m21.82,49.94c-.69,0-1.25.48-1.25,1.07v47.25c0,.59.56,1.07,1.25,1.07s1.25-.48,1.25-1.07v-47.25c0-.59-.56-1.07-1.25-1.07Z"/>
    <path class="cls-2" d="m530.76,126.36H55.27c-.69,0-1.25.48-1.25,1.07s.56,1.07,1.25,1.07h475.49c.69,0,1.25-.48,1.25-1.07s-.56-1.07-1.25-1.07Z"/>
    <path class="cls-2" d="m530.76,20.77H55.27c-.69,0-1.25.48-1.25,1.07s.56,1.07,1.25,1.07h475.49c.69,0,1.25-.48,1.25-1.07s-.56-1.07-1.25-1.07Z"/>
    <path class="cls-2" d="m33.03,126.47h-10.06v-9.31c0-.52-.52-.96-1.14-.96s-1.14.44-1.14.96v10.27c0,.52.52.96,1.14.96h11.21c.62,0,1.14-.44,1.14-.96s-.52-.96-1.14-.96Z"/>
    <path class="cls-2" d="m21.82,33.06c.62,0,1.14-.44,1.14-.96v-9.31h10.06c.62,0,1.14-.44,1.14-.96s-.52-.96-1.14-.96h-11.21c-.62,0-1.14.44-1.14.96v10.27c0,.52.52.96,1.14.96Z"/>
    <path class="cls-2" d="m564.21,49.94c-.69,0-1.25.48-1.25,1.07v47.25c0,.59.56,1.07,1.25,1.07s1.25-.48,1.25-1.07v-47.25c0-.59-.56-1.07-1.25-1.07Z"/>
    <path class="cls-2" d="m553,22.79h10.06v9.31c0,.52.52.96,1.15.96s1.14-.44,1.14-.96v-10.27c0-.52-.52-.96-1.14-.96h-11.21c-.62,0-1.15.44-1.15.96s.53.96,1.15.96Z"/>
    <path class="cls-2" d="m564.21,116.2c-.62,0-1.15.44-1.15.96v9.31h-10.06c-.62,0-1.15.44-1.15.96s.53.96,1.15.96h11.21c.62,0,1.14-.44,1.14-.96v-10.27c0-.52-.52-.96-1.14-.96Z"/>
    <path class="cls-2" d="m576.26,40.84c-18.23,0-33.06-13.59-33.06-30.28,0-1.13-1.01-2.05-2.24-2.05H45.07c-1.23,0-2.24.92-2.24,2.05,0,16.7-14.83,30.28-33.06,30.28-1.23,0-2.24.92-2.24,2.05v63.48c0,1.13,1,2.05,2.24,2.05,18.23,0,33.06,13.59,33.06,30.28,0,1.13,1,2.05,2.24,2.05h495.89c1.24,0,2.24-.92,2.24-2.05,0-16.7,14.83-30.28,33.06-30.28,1.24,0,2.24-.92,2.24-2.05v-63.48c0-1.13-1.01-2.05-2.24-2.05Zm-2.24,63.44l-.1.11h-.1c-18.69,1.11-33.74,14.89-35.02,32.17v.1H47.34l-.11-.1v-.1c-1.22-17.12-16.27-30.91-35.12-32.07h-.1v-59.4l.1-.11h.1c18.74-1.11,33.8-14.9,35.01-32.07v-.2h491.45l.11.1v.1c1.22,17.12,16.28,30.91,35.12,32.07h.1v59.4Z"/>
  </g>
  <g>
    <path class="cls-1" d="m161.09,48c-.44,0-.94.68-1.57,1.55-.16.22-.32.44-.5.67l-1.53,2.07h-15.59v-4.08l1.01-.65c.29-.18.61-.46.61-.71,0-.58-1.09-1.24-6.42-2.58-.2-.07-.37-.06-.49.03-.09.06-.2.2-.2.51.27,1.88.43,4.67.43,7.48h-17.01c-2.86-.07-5.25-.21-7.53-.44-.27,0-.47.09-.56.25-.08.13-.06.3.04.46l1.18,2.23c.14.34.36.45.73.37,3.24-.5,5.86-.75,8.51-.81h4.55s-.03.05-.04.08c-.03.14.04.35.2.56.59.88,2.52,3.98,2.91,7.06.07.26.14.48.41.62.05.05.1.09.15.13h-9.16l-5.27-2.35c-.26-.13-.42-.08-.51-.02-.12.09-.17.27-.13.5.62,4.24.68,9.84.68,12.06v11.32c-.13,8.17-.31,10.85-.68,16.18,0,.69.74,1.34,1.53,1.34,1.88,0,3.59-.93,4.31-1.85.14-.2.2-.41.2-.62-.24-4.32-.37-6.93-.5-14.31v-20.25h10.61c-1.01,6.01-3.75,9.79-9.13,12.63-.17.07-.29.18-.34.32-.05.13-.04.27.03.42v.04s0,.03.01.04c.15.29.44.44.74.36,7.92-2.68,12.12-6.94,13.61-13.81h5.67v5.31c0,4.38.76,5.2,4.77,5.2h5.79c3.25,0,4.77-.88,4.77-2.78,0-.76-.27-.97-1.5-1.56l-.12-2.92c0-.26-.05-.6-.47-.6-.27,0-.58.14-.66.51-.34,1.4-.66,2.7-.99,3.16-.15.36-.44.38-.97.38h-5.35c-.98,0-1.02,0-1.02-1.27v-5.44h12.06v29.77c0,.8-.2,1.21-1.27,1.21s-4.95-.29-6.64-.43c-.17-.03-.32,0-.44.09-.12.1-.18.25-.18.45,0,.43.31.54.58.6,2.02.31,3.49.87,4.49,1.72.7.65.96,1.56,1.15,2.93.04.21.13.36.26.45.12.08.26.1.41.07,6.08-.72,6.56-3.29,6.56-6.57v-29.35c.76-.11,1.52-.45,2.27-1.01.23-.23.28-.47.14-.74-.67-1.21-4.5-4.47-5.25-4.47-.45,0-.82.57-1.24,1.22-.11.16-.22.33-.33.5l-1.03,1.57h-10.65c1.51-1.48,3.16-3.36,5.04-5.73l1.03-.43c.19-.07.62-.28.62-.59,0-.39-.59-.89-4.76-1.7h16.36c.68,0,1.26-.28,1.52-.74.14-.28.14-.44,0-.71-.69-1.31-5.21-4.91-5.94-4.91Zm-26.53,12.42c0-.94-.46-4.08-6.25-6.06h18.85c-.59,2.73-1.67,6.13-2.5,8.45h-11.22c.7-.52,1.13-1.4,1.13-2.39Z"/>
    <path class="cls-1" d="m150.49,93.45c-.18-2.27-.25-3.83-.37-8.02v-4.33c.73-.14,1.4-.45,1.78-.82.29-.29.24-.54.14-.67-.54-1.13-3.61-3.79-4.38-3.79-.44,0-.81.48-1.23,1.03-.11.14-.22.29-.35.44l-.97,1.33h-11.56l-4.64-2.1c-.26-.13-.42-.09-.51-.02-.12.09-.17.27-.13.49.31,2.7.5,6.27.5,9.32v3.29c-.03.65-.05,1.19-.07,1.67-.06,1.45-.1,2.25-.24,3.56,0,.67.34,1.34,1.1,1.34,1.83,0,3.77-1,3.77-1.53v-2.64h12.25v1.07c-.02.14-.05.25-.07.35-.03.17-.06.29-.06.39-.02.06-.03.12-.05.17-.04.15-.08.28-.08.5.17.67.51,1.01,1.03,1.01,1.21,0,3.12-.66,3.87-1.34.19-.2.28-.4.28-.7Zm-17.17-3.51v-9.32h12.25v9.32h-12.25Z"/>
    <path class="cls-1" d="m190.55,62.71c-.13,3.7-.19,4.94-.37,7.35,0,.65.41,1.34,1.16,1.34,1.86,0,3.69-.98,4.25-1.66.11-.17.1-.33.09-.5,0-.06,0-.11,0-.19-.04-.23-.05-.48-.07-.83-.01-.22-.03-.47-.05-.77v-1.02h20.15v1.44c-.07.44-.1.76-.13,1.01-.02.18-.03.33-.06.47-.07.26-.07.4-.06.67.11.43.35,1.01,1.16,1.01,1.46,0,3.48-.89,4.24-1.65.19-.2.28-.4.28-.7-.25-3.54-.31-5.72-.44-11.57v-6.08c.96-.19,1.76-.56,2.21-1.01.29-.29.24-.54.14-.68-.67-1.27-4.36-4.53-5.13-4.53-.42,0-.76.49-1.19,1.11-.14.2-.28.41-.45.62l-1.09,1.64h-19.34l-5.34-2.3c-.23-.08-.41-.07-.52.03-.11.09-.14.24-.11.45.43,2.99.68,7.38.68,12.06v4.29Zm4.99,1.65v-14.17h20.15v14.17h-20.15Z"/>
    <path class="cls-1" d="m199.3,72.64c-.42,0-.77.43-1.18.94-.14.17-.29.35-.45.54l-1.03,1.33h-10.57l-5.09-2.17c-.23-.08-.41-.07-.52.03-.11.09-.14.24-.11.45.43,2.99.68,7.38.68,12.06v5.16c-.13,4.59-.19,6.14-.44,9.09,0,.65.45,1.34,1.28,1.34,1.73,0,3.47-.86,4.01-1.67.14-.28.13-.43.07-.68-.02-.2-.03-.4-.03-.66,0-.35-.02-.8-.09-1.45v-1.26h11.37v1.44c-.07.44-.1.76-.13,1.01-.02.18-.03.33-.06.47-.07.26-.07.4-.06.66.08.62.48,1.02,1.03,1.02,1.46,0,3.48-.89,4.24-1.65.19-.2.28-.4.28-.7-.25-3.97-.31-6.4-.44-12.87v-6.76c.9-.18,1.66-.53,2.21-1.01.29-.29.24-.54.14-.68-.66-1.21-4.38-3.97-5.13-3.97Zm-13.46,21.03v-16.23h11.37v16.23h-11.37Z"/>
    <path class="cls-1" d="m227.48,72.64c-.42,0-.77.43-1.18.93-.14.17-.29.35-.46.54l-1.03,1.33h-11.01l-5.09-2.17c-.23-.08-.41-.07-.52.03-.11.09-.14.24-.11.45.43,2.99.68,7.38.68,12.06v5.22c-.12,4.54-.18,6.03-.44,9.15,0,.66.46,1.34,1.22,1.34,1.73,0,3.6-.87,4.2-1.67.14-.28.13-.43.07-.68-.03-.22-.04-.44-.06-.72-.02-.35-.05-.8-.12-1.45v-1.33h11.75v1.57c-.08.54-.11.89-.13,1.19-.02.19-.03.36-.05.54-.07.26-.07.4-.06.67.17.68.53,1.01,1.09,1.01,1.28,0,3.39-.74,4.18-1.46.19-.19.28-.4.28-.7-.25-4.1-.31-6.6-.44-13.25v-6.89c.97-.24,1.73-.59,2.27-1.07.29-.29.24-.54.14-.68-.75-1.25-4.45-3.97-5.19-3.97Zm-13.84,21.03v-16.23h11.75v16.23h-11.75Z"/>
    <path class="cls-1" d="m283.75,62.89c-3.54-2.6-8.32-4.1-13.11-4.1-5.44,0-10.89,1.96-14.96,5.39-4.46,3.75-6.91,8.97-6.91,14.71,0,6.34,3.35,13.7,7.68,13.7,2.62,0,8.25-5.27,12.03-15.17,1.22-3.11,1.94-6.68,1.94-9.55,0-2.3-.62-5.32-1.46-7.12.34-.04.72-.04,1.09-.04,1.78,0,6.36.33,10.26,3.37,3.72,2.9,5.61,7.26,5.61,12.98s-2.65,16.05-20.4,19.04l-.12.02c-1.2.22-2.06.41-2.06.77s.93.37,1.12.37c4.16,0,10.45-.92,15.64-3.5,6.99-3.47,10.53-9,10.53-16.44,0-6.14-2.38-11.13-6.88-14.44Zm-27.19,24.34c-.82,0-4.04-2.42-4.04-9.25,0-4.34,1.62-8.47,4.57-11.62,2.81-3.02,6.63-4.97,10.74-5.52.38,1.29.56,2.55.56,3.98,0,5.36-1.6,10.15-5.36,16.02-.97,1.5-4.31,6.4-6.47,6.4Z"/>
    <path class="cls-1" d="m319.42,60.45c.81.17,2.72.58,2.72.96,0,.29-1.56,1.6-2.82,2.66-1.02.86-2.07,1.74-2.75,2.43-.26.26-.4.53-.4.76,0,.1.04.35.41.35.23,0,.58-.16,1-.46,4.8-3.77,8.98-4.94,11.65-5.27,2.74-.35,3.88-.73,3.88-2.21,0-1.74-1.71-3.44-3.23-3.89-.4-.17-.93-.26-1.59-.26-.93,0-2.04.13-3.21.27-1.25.15-2.54.29-3.69.29-2.8,0-6.18-.68-8.04-1.61-.23-.12-.44-.21-.62-.3-.31-.15-.55-.26-.74-.38-.08-.05-.5-.33-.62-.33-.13,0-.22.17-.22.41,0,.4.32,1.11.77,1.68.3.39,3.07,3.83,7.53,4.89Z"/>
    <path class="cls-1" d="m346.27,58.85c-1.51-.81-3.53-1.27-5.55-1.27-.04,0-3.9.11-3.9.91,0,.44.53.58,1.26.78.26.07.56.15.86.25,2.29.78,3.44,1.77,5.31,3.83.58.75,1.42,1.16,2.38,1.16,1.07,0,2.22-.67,2.22-2.15,0-1.36-.91-2.61-2.57-3.5Z"/>
    <path class="cls-1" d="m334.25,89.13c-.69,0-1.65.15-2.88.34-.33.05-.69.11-1.06.16-3.96.74-7.45,1.12-10.37,1.12s-5.46-.35-7.5-1.05c-3.05-1.09-4.54-2.79-4.54-5.19,0-.24.03-.49.06-.73.03-.25.06-.5.06-.76,0-.31,0-1.03-.54-1.03s-1.02,1.17-1.28,1.88c-.25.88-.38,1.89-.38,3.01,0,2.58.89,4.56,2.71,6.05,3.42,2.95,9.94,3.57,14.81,3.57,4.42,0,8.95-.51,11.54-1.31,2.28-.71,3.43-1.77,3.43-3.15,0-1.73-1.64-2.9-4.08-2.9Z"/>
    <path class="cls-1" d="m333.69,62.8c-.45,0-2.71.04-2.71.78,0,.39.44.56,1.05.78.19.07.41.15.64.25,2.59.99,4,2.46,5.43,4.51.81,1.17,1.88,1.35,2.45,1.35,1.26,0,2.53-.78,2.53-2.28,0-3.54-4.71-5.39-9.37-5.39Z"/>
    <path class="cls-1" d="m416.96,95.35c-8.82-1.74-17.66-5.9-22.61-10.63h20.16c.76,0,1.3-.25,1.58-.73,0,0,0-.02,0-.03.07-.26.07-.41,0-.67,0,0,0-.02,0-.03-.66-1.14-4.72-4.34-5.5-4.34,0,0,0,0-.01,0,.94-.22,1.54-.91,1.54-1.83,0-.72-.42-2.19-3.23-3.92-2.63-1.62-6.55-2.98-11.65-4.04,2.28-2.06,4.17-4.37,5.75-7.06h11.08c.76,0,1.3-.25,1.58-.74.14-.28.13-.43.06-.71-.63-1.2-4.35-4.04-5.07-4.04-.44,0-.83.53-1.32,1.2-.14.19-.28.38-.44.58,0,0,0,0,0,0l-1.22,1.64h-21.96c1.15-1.44,2.16-2.74,2.84-3.67l1.27-.42c.48-.14.76-.35.76-.59,0-.41-.65-1-5.35-2.52-.38-.15-.68-.04-.81.3-1.17,2.55-3.51,5.65-4.5,6.91h-7.85c-2.84-.07-5.25-.21-7.59-.44-.23,0-.41.09-.5.24-.08.14-.06.31.03.47l1.12,2.23c.13.34.35.45.73.37,3.09-.5,5.56-.75,8.01-.81h4.4c-2.85,3.5-5.19,6.15-6.95,7.86-.16.16-.23.31-.21.46.02.15.11.27.28.37,1.04.75,2.37,1.2,3.54,1.2.12,0,.21,0,.29-.06.2,0,.34-.08.53-.28.79-.79,1.75-1.85,2.83-3.14,3.1.53,6.22,1.18,9.78,2.05-5.45,3.27-13.12,5.54-24.84,7.33-.39.08-.52.27-.45.66v.08c.04.2.13.36.26.45.12.08.26.1.4.07,14.42-1.12,23.3-3.26,29.69-7.15,5.65,1.72,10.49,3.86,14.37,6.39.65.41,1.39.64,2.11.64.17,0,.33-.01.48-.04-.4.15-.84.71-1.37,1.39-.12.16-.25.32-.37.48,0,0,0,0,0,0l-1.34,1.83h-15.53v-2.52l1.01-.65c.29-.18.61-.39.61-.71,0-.53-1.05-1.17-6.17-2.58-.2-.07-.37-.06-.49.03-.09.06-.2.2-.2.51.19,1.79.31,4.1.31,5.93h-16.26c-2.84-.07-5.25-.21-7.59-.44-.23,0-.41.09-.5.24-.08.14-.06.31.03.47l1.06,2.23c.13.34.35.45.73.37,3.38-.5,6.12-.75,8.88-.81h8.69c-4.78,6.11-11.91,11.34-20.12,14.74-.19.08-.33.2-.39.36-.05.13-.04.27.03.4l.06.12c.16.31.4.43.74.36,10.56-3.07,19.08-7.9,24.64-13.96v4.84c-.12,4.43-.19,5.94-.44,8.84,0,.67.46,1.34,1.34,1.34,1.74,0,3.57-.79,4.18-1.52.21-.22.21-.37.21-.64-.19-2.94-.25-4.82-.37-9.76v-5.13h.53c4.42,7.09,11.72,12.72,20.55,15.86.18.07.36.07.5,0,.13-.07.22-.2.25-.37.59-1.83,1.85-3.23,3.37-3.74.25-.13.42-.21.49-.56.03-.09.02-.19-.03-.27-.08-.14-.26-.25-.48-.29Zm-19.98-33.28c-1.42,2.37-3.19,4.41-5.27,6.08-3.77-.55-7.73-.94-11.77-1.17l.34-.39c1.27-1.49,2.58-3.03,3.8-4.52h12.91Z"/>
    <path class="cls-1" d="m365.85,58.96c.68,0,1.45-.24,2.05-.64.61-.4,2.62-2.01,2.9-6.02h37.28c-.67,1.71-1.53,3.51-2.12,4.64-.24.4-.03.64.21.82.26.2.49.22.79.07,2.21-1.2,4.91-3.11,6.59-4.66.91-.06,1.54-.12,2.01-.39.29-.22.36-.46.22-.75-.62-1.31-3.96-4.54-4.69-4.54-.41,0-.78.41-1.25.92-.16.18-.33.36-.5.54,0,0,0,0,0,0l-1.15,1.33h-16.34v-2.27l1.01-.65c.37-.22.55-.43.55-.65,0-.58-1.07-1.25-6.29-2.58-.2-.07-.37-.06-.49.03-.09.06-.2.2-.2.51.19,1.76.31,3.9.31,5.61h-15.92c-.07-.94-.21-1.77-.43-2.6-.06-.32-.32-.52-.66-.52h-.06c-.37,0-.6.23-.6.59-.19,2.73-2.04,5.2-3.68,6.14-1.2.67-1.92,1.72-1.92,2.83,0,1.53,1.21,2.22,2.4,2.22Z"/>
    <path class="cls-1" d="m482.98,56.88c-.68-1.23-4.57-4.16-5.31-4.16-.46,0-.85.54-1.3,1.16-.09.12-.18.25-.28.38l-1.03,1.45h-16.21l.37-8.87,1.01-.65c.37-.22.55-.43.55-.65,0-.55-1.11-.99-6.62-1.53-.2-.03-.37,0-.49.1-.12.1-.18.27-.18.51.24,1.92.37,4.43.37,7.08,0,1.34,0,2.73-.12,4.01h-15.26l-5.39-2.42c-.26-.13-.42-.08-.51-.02-.12.09-.17.27-.13.5.62,4.24.68,9.84.68,12.06v18.29c-.13,8.17-.31,10.84-.68,16.18,0,.7.76,1.34,1.59,1.34,1.88,0,3.59-.99,4.31-1.97.14-.21.2-.35.2-.62-.24-4.32-.37-6.91-.5-14.31v-27.09h15.53c-.84,8.97-3.08,18.34-13.51,26.2-.35.26-.25.55-.09.82l.19.32c.23.3.48.35.81.15,8.22-4.42,13.2-10.01,15.68-17.57,5.42,5.37,9.39,11.14,10.62,15.46.07.28.15.42.42.56.6.4,1.11.58,1.67.58,1.38,0,2.28-1.24,2.28-3.15,0-3.89-3.79-10.18-14.48-15.11.67-2.56,1.16-5.33,1.46-8.24h16.92v36.49c0,.98-.38,1.33-1.46,1.33-1.55,0-7.87-.45-8.57-.5-.18-.04-.32,0-.44.09-.12.1-.18.25-.18.45,0,.43.31.54.58.6,2.71.45,4.39,1.02,5.61,1.91.75.64,1.18,1.55,1.47,3.13.14.34.34.51.6.51.04,0,.09,0,.13-.01,6.77-.79,7.31-3.49,7.31-6.94v-36.13c1.03-.15,1.82-.62,2.21-1.01.29-.29.24-.54.14-.68Z"/>
  </g>
</svg>